%TF.GenerationSoftware,KiCad,Pcbnew,9.0.4*%
%TF.CreationDate,2026-08-05T18:59:31+07:00*%
%TF.ProjectId,esp32-based-motherboard,65737033-322d-4626-9173-65642d6d6f74,rev?*%
%TF.SameCoordinates,Original*%
%TF.FileFunction,Soldermask,Top*%
%TF.FilePolarity,Negative*%
%FSLAX46Y46*%
G04 Gerber Fmt 4.6, Leading zero omitted, Abs format (unit mm)*
G04 Created by KiCad (PCBNEW 9.0.4) date 2026-08-05 18:59:31*
%MOMM*%
%LPD*%
G01*
G04 APERTURE LIST*
G04 Aperture macros list*
%AMRoundRect*
0 Rectangle with rounded corners*
0 $1 Rounding radius*
0 $2 $3 $4 $5 $6 $7 $8 $9 X,Y pos of 4 corners*
0 Add a 4 corners polygon primitive as box body*
4,1,4,$2,$3,$4,$5,$6,$7,$8,$9,$2,$3,0*
0 Add four circle primitives for the rounded corners*
1,1,$1+$1,$2,$3*
1,1,$1+$1,$4,$5*
1,1,$1+$1,$6,$7*
1,1,$1+$1,$8,$9*
0 Add four rect primitives between the rounded corners*
20,1,$1+$1,$2,$3,$4,$5,0*
20,1,$1+$1,$4,$5,$6,$7,0*
20,1,$1+$1,$6,$7,$8,$9,0*
20,1,$1+$1,$8,$9,$2,$3,0*%
G04 Aperture macros list end*
%ADD10RoundRect,0.225000X0.225000X0.250000X-0.225000X0.250000X-0.225000X-0.250000X0.225000X-0.250000X0*%
%ADD11RoundRect,0.250000X-0.550000X0.550000X-0.550000X-0.550000X0.550000X-0.550000X0.550000X0.550000X0*%
%ADD12C,1.600000*%
%ADD13RoundRect,0.200000X0.275000X-0.200000X0.275000X0.200000X-0.275000X0.200000X-0.275000X-0.200000X0*%
%ADD14RoundRect,0.225000X-0.225000X-0.250000X0.225000X-0.250000X0.225000X0.250000X-0.225000X0.250000X0*%
%ADD15RoundRect,0.112500X-0.187500X-0.112500X0.187500X-0.112500X0.187500X0.112500X-0.187500X0.112500X0*%
%ADD16RoundRect,0.250000X1.000000X0.900000X-1.000000X0.900000X-1.000000X-0.900000X1.000000X-0.900000X0*%
%ADD17RoundRect,0.200000X-0.275000X0.200000X-0.275000X-0.200000X0.275000X-0.200000X0.275000X0.200000X0*%
%ADD18RoundRect,0.200000X-0.200000X-0.275000X0.200000X-0.275000X0.200000X0.275000X-0.200000X0.275000X0*%
%ADD19RoundRect,0.062500X-0.375000X-0.062500X0.375000X-0.062500X0.375000X0.062500X-0.375000X0.062500X0*%
%ADD20RoundRect,0.062500X-0.062500X-0.375000X0.062500X-0.375000X0.062500X0.375000X-0.062500X0.375000X0*%
%ADD21R,2.500000X2.500000*%
%ADD22C,6.400000*%
%ADD23C,1.400000*%
%ADD24RoundRect,0.770000X0.980000X-0.980000X0.980000X0.980000X-0.980000X0.980000X-0.980000X-0.980000X0*%
%ADD25C,3.500000*%
%ADD26RoundRect,0.112500X-0.112500X0.187500X-0.112500X-0.187500X0.112500X-0.187500X0.112500X0.187500X0*%
%ADD27RoundRect,0.218750X0.256250X-0.218750X0.256250X0.218750X-0.256250X0.218750X-0.256250X-0.218750X0*%
%ADD28RoundRect,0.249999X0.850001X-1.100001X0.850001X1.100001X-0.850001X1.100001X-0.850001X-1.100001X0*%
%ADD29RoundRect,0.112500X0.187500X0.112500X-0.187500X0.112500X-0.187500X-0.112500X0.187500X-0.112500X0*%
%ADD30RoundRect,0.102000X0.350000X-0.750000X0.350000X0.750000X-0.350000X0.750000X-0.350000X-0.750000X0*%
%ADD31RoundRect,0.102000X0.750000X-0.350000X0.750000X0.350000X-0.750000X0.350000X-0.750000X-0.350000X0*%
%ADD32RoundRect,0.225000X-0.250000X0.225000X-0.250000X-0.225000X0.250000X-0.225000X0.250000X0.225000X0*%
%ADD33RoundRect,0.200000X0.200000X0.275000X-0.200000X0.275000X-0.200000X-0.275000X0.200000X-0.275000X0*%
%ADD34RoundRect,0.250000X-0.550000X-0.550000X0.550000X-0.550000X0.550000X0.550000X-0.550000X0.550000X0*%
%ADD35R,1.600000X1.500000*%
%ADD36C,3.000000*%
%ADD37RoundRect,0.250500X0.499500X0.499500X-0.499500X0.499500X-0.499500X-0.499500X0.499500X-0.499500X0*%
%ADD38C,1.500000*%
%ADD39C,2.500000*%
%ADD40RoundRect,0.250000X-1.000000X-0.650000X1.000000X-0.650000X1.000000X0.650000X-1.000000X0.650000X0*%
%ADD41RoundRect,0.200000X0.800000X-0.200000X0.800000X0.200000X-0.800000X0.200000X-0.800000X-0.200000X0*%
%ADD42RoundRect,0.225000X0.250000X-0.225000X0.250000X0.225000X-0.250000X0.225000X-0.250000X-0.225000X0*%
%ADD43RoundRect,0.218750X-0.218750X-0.256250X0.218750X-0.256250X0.218750X0.256250X-0.218750X0.256250X0*%
%ADD44RoundRect,0.225000X-0.017678X0.335876X-0.335876X0.017678X0.017678X-0.335876X0.335876X-0.017678X0*%
%ADD45R,0.600000X1.160000*%
%ADD46R,0.300000X1.160000*%
%ADD47O,0.900000X2.000000*%
%ADD48O,0.900000X1.700000*%
%ADD49RoundRect,0.250000X-0.350000X-0.625000X0.350000X-0.625000X0.350000X0.625000X-0.350000X0.625000X0*%
%ADD50O,1.200000X1.750000*%
%ADD51RoundRect,0.770000X-0.980000X0.980000X-0.980000X-0.980000X0.980000X-0.980000X0.980000X0.980000X0*%
%ADD52RoundRect,0.200000X-0.800000X0.200000X-0.800000X-0.200000X0.800000X-0.200000X0.800000X0.200000X0*%
%ADD53RoundRect,0.112500X0.112500X-0.187500X0.112500X0.187500X-0.112500X0.187500X-0.112500X-0.187500X0*%
%ADD54RoundRect,0.375000X0.375000X-0.625000X0.375000X0.625000X-0.375000X0.625000X-0.375000X-0.625000X0*%
%ADD55RoundRect,0.500000X1.400000X-0.500000X1.400000X0.500000X-1.400000X0.500000X-1.400000X-0.500000X0*%
%ADD56O,1.200000X2.200000*%
%ADD57RoundRect,0.062500X-0.350000X-0.062500X0.350000X-0.062500X0.350000X0.062500X-0.350000X0.062500X0*%
%ADD58RoundRect,0.062500X-0.062500X-0.350000X0.062500X-0.350000X0.062500X0.350000X-0.062500X0.350000X0*%
%ADD59R,2.600000X2.600000*%
%ADD60RoundRect,0.250000X0.550000X-0.550000X0.550000X0.550000X-0.550000X0.550000X-0.550000X-0.550000X0*%
%ADD61RoundRect,0.218750X-0.256250X0.218750X-0.256250X-0.218750X0.256250X-0.218750X0.256250X0.218750X0*%
%ADD62RoundRect,0.250000X2.050000X0.300000X-2.050000X0.300000X-2.050000X-0.300000X2.050000X-0.300000X0*%
%ADD63RoundRect,0.250002X4.449998X5.149998X-4.449998X5.149998X-4.449998X-5.149998X4.449998X-5.149998X0*%
%ADD64RoundRect,0.150000X0.150000X-0.875000X0.150000X0.875000X-0.150000X0.875000X-0.150000X-0.875000X0*%
%ADD65R,1.160000X0.600000*%
%ADD66R,1.160000X0.300000*%
%ADD67O,2.000000X0.900000*%
%ADD68O,1.700000X0.900000*%
%ADD69RoundRect,0.200000X0.200000X0.800000X-0.200000X0.800000X-0.200000X-0.800000X0.200000X-0.800000X0*%
%ADD70RoundRect,0.225000X0.017678X-0.335876X0.335876X-0.017678X-0.017678X0.335876X-0.335876X0.017678X0*%
%ADD71RoundRect,0.250000X-0.450000X-0.350000X0.450000X-0.350000X0.450000X0.350000X-0.450000X0.350000X0*%
%ADD72RoundRect,0.200000X-0.200000X-0.800000X0.200000X-0.800000X0.200000X0.800000X-0.200000X0.800000X0*%
G04 APERTURE END LIST*
D10*
%TO.C,C22*%
X100286656Y-92213114D03*
X98736656Y-92213114D03*
%TD*%
D11*
%TO.C,C27*%
X88316656Y-95528114D03*
D12*
X88316656Y-98028114D03*
%TD*%
D13*
%TO.C,R21*%
X118286656Y-103063114D03*
X118286656Y-101413114D03*
%TD*%
D14*
%TO.C,C34*%
X98550000Y-58990000D03*
X100100000Y-58990000D03*
%TD*%
D15*
%TO.C,D4*%
X121950000Y-58600000D03*
X124050000Y-58600000D03*
%TD*%
D16*
%TO.C,D15*%
X99500000Y-117200000D03*
X95200000Y-117200000D03*
%TD*%
D17*
%TO.C,R3*%
X95600000Y-57675000D03*
X95600000Y-59325000D03*
%TD*%
D18*
%TO.C,R5*%
X118850000Y-66300000D03*
X120500000Y-66300000D03*
%TD*%
D19*
%TO.C,U4*%
X96389156Y-86488114D03*
X96389156Y-86988114D03*
X96389156Y-87488114D03*
X96389156Y-87988114D03*
X96389156Y-88488114D03*
X96389156Y-88988114D03*
D20*
X97076656Y-89675614D03*
X97576656Y-89675614D03*
X98076656Y-89675614D03*
X98576656Y-89675614D03*
X99076656Y-89675614D03*
X99576656Y-89675614D03*
D19*
X100264156Y-88988114D03*
X100264156Y-88488114D03*
X100264156Y-87988114D03*
X100264156Y-87488114D03*
X100264156Y-86988114D03*
X100264156Y-86488114D03*
D20*
X99576656Y-85800614D03*
X99076656Y-85800614D03*
X98576656Y-85800614D03*
X98076656Y-85800614D03*
X97576656Y-85800614D03*
X97076656Y-85800614D03*
D21*
X98326656Y-87738114D03*
%TD*%
D22*
%TO.C,H1*%
X71300000Y-126600000D03*
%TD*%
D23*
%TO.C,J8*%
X71951656Y-118148114D03*
X71951656Y-107148114D03*
D24*
X81951656Y-110148114D03*
D25*
X81951656Y-115148114D03*
%TD*%
D26*
%TO.C,D10*%
X79900000Y-78850000D03*
X79900000Y-80950000D03*
%TD*%
D27*
%TO.C,D20*%
X121166656Y-110455614D03*
X121166656Y-108880614D03*
%TD*%
D28*
%TO.C,L2*%
X137446656Y-124508114D03*
X137446656Y-119408114D03*
%TD*%
D29*
%TO.C,D7*%
X96430000Y-62300000D03*
X94330000Y-62300000D03*
%TD*%
D28*
%TO.C,L1*%
X107716656Y-110988114D03*
X107716656Y-105888114D03*
%TD*%
D30*
%TO.C,U1*%
X107276656Y-98148114D03*
X108276656Y-98148114D03*
X109276656Y-98148114D03*
X110276656Y-98148114D03*
X111276656Y-98148114D03*
X112276656Y-98148114D03*
X113276656Y-98148114D03*
X114276656Y-98148114D03*
X115276656Y-98148114D03*
X116276656Y-98148114D03*
X117276656Y-98148114D03*
X118276656Y-98148114D03*
X119276656Y-98148114D03*
X120276656Y-98148114D03*
X121276656Y-98148114D03*
X122276656Y-98148114D03*
X123276656Y-98148114D03*
X124276656Y-98148114D03*
X125276656Y-98148114D03*
X126276656Y-98148114D03*
X127276656Y-98148114D03*
X128276656Y-98148114D03*
D31*
X130276656Y-96148114D03*
X130276656Y-95148114D03*
X130276656Y-94148114D03*
X130276656Y-93148114D03*
X130276656Y-92148114D03*
X130276656Y-91148114D03*
X130276656Y-90148114D03*
X130276656Y-89148114D03*
X130276656Y-88148114D03*
X130276656Y-87148114D03*
X130276656Y-86148114D03*
X130276656Y-85148114D03*
X130276656Y-84148114D03*
X130276656Y-83148114D03*
X130276656Y-82148114D03*
X130276656Y-81148114D03*
X130276656Y-80148114D03*
X130276656Y-79148114D03*
X130276656Y-78148114D03*
X130276656Y-77148114D03*
X130276656Y-76148114D03*
X130276656Y-75148114D03*
D30*
X128276656Y-73148114D03*
X127276656Y-73148114D03*
X126276656Y-73148114D03*
X125276656Y-73148114D03*
X124276656Y-73148114D03*
X123276656Y-73148114D03*
X122276656Y-73148114D03*
X121276656Y-73148114D03*
X120276656Y-73148114D03*
X119276656Y-73148114D03*
X118276656Y-73148114D03*
X117276656Y-73148114D03*
X116276656Y-73148114D03*
X115276656Y-73148114D03*
X114276656Y-73148114D03*
X113276656Y-73148114D03*
X112276656Y-73148114D03*
X111276656Y-73148114D03*
X110276656Y-73148114D03*
X109276656Y-73148114D03*
X108276656Y-73148114D03*
X107276656Y-73148114D03*
D31*
X105276656Y-75148114D03*
X105276656Y-76148114D03*
X105276656Y-77148114D03*
X105276656Y-78148114D03*
X105276656Y-79148114D03*
X105276656Y-80148114D03*
X105276656Y-81148114D03*
X105276656Y-82148114D03*
X105276656Y-83148114D03*
X105276656Y-84148114D03*
X105276656Y-85148114D03*
X105276656Y-86148114D03*
X105276656Y-87148114D03*
X105276656Y-88148114D03*
X105276656Y-89148114D03*
X105276656Y-90148114D03*
X105276656Y-91148114D03*
X105276656Y-92148114D03*
X105276656Y-93148114D03*
X105276656Y-94148114D03*
X105276656Y-95148114D03*
X105276656Y-96148114D03*
%TD*%
D32*
%TO.C,C17*%
X146516656Y-61783114D03*
X146516656Y-63333114D03*
%TD*%
D33*
%TO.C,R25*%
X92936656Y-81608114D03*
X91286656Y-81608114D03*
%TD*%
D17*
%TO.C,R30*%
X121191656Y-105643114D03*
X121191656Y-107293114D03*
%TD*%
%TO.C,R22*%
X139754156Y-54423114D03*
X139754156Y-56073114D03*
%TD*%
D34*
%TO.C,C29*%
X144864277Y-118398114D03*
D12*
X147364277Y-118398114D03*
%TD*%
D14*
%TO.C,C6*%
X82216656Y-87718114D03*
X83766656Y-87718114D03*
%TD*%
D35*
%TO.C,J1*%
X112500000Y-56660000D03*
D12*
X110000000Y-56660000D03*
X108000000Y-56660000D03*
X105500000Y-56660000D03*
D36*
X115570000Y-53950000D03*
X102430000Y-53950000D03*
%TD*%
D37*
%TO.C,J7*%
X81471656Y-59858114D03*
D38*
X80211656Y-62398114D03*
X78931656Y-59858114D03*
X77671656Y-62398114D03*
X76391656Y-59858114D03*
X75131656Y-62398114D03*
X73851656Y-59858114D03*
X72591656Y-62398114D03*
X83656656Y-48598114D03*
X81116656Y-48598114D03*
X72946656Y-48598114D03*
X70406656Y-48598114D03*
D39*
X84776656Y-56548114D03*
X69286656Y-56548114D03*
%TD*%
D40*
%TO.C,D16*%
X105909156Y-114628114D03*
X109909156Y-114628114D03*
%TD*%
D14*
%TO.C,C33*%
X127650000Y-58800000D03*
X129200000Y-58800000D03*
%TD*%
D10*
%TO.C,C10*%
X138791656Y-74398114D03*
X137241656Y-74398114D03*
%TD*%
D41*
%TO.C,SW2*%
X100900000Y-74800000D03*
X100900000Y-70600000D03*
%TD*%
D33*
%TO.C,R8*%
X121825000Y-63200000D03*
X120175000Y-63200000D03*
%TD*%
D18*
%TO.C,R14*%
X84895000Y-77400000D03*
X86545000Y-77400000D03*
%TD*%
D42*
%TO.C,C39*%
X76800000Y-67750000D03*
X76800000Y-66200000D03*
%TD*%
D43*
%TO.C,D14*%
X81822500Y-75790000D03*
X83397500Y-75790000D03*
%TD*%
D14*
%TO.C,C19*%
X91391656Y-85128114D03*
X92941656Y-85128114D03*
%TD*%
D27*
%TO.C,FB2*%
X144896656Y-63335614D03*
X144896656Y-61760614D03*
%TD*%
D32*
%TO.C,C30*%
X123096656Y-107363114D03*
X123096656Y-108913114D03*
%TD*%
D14*
%TO.C,C35*%
X98550000Y-60500000D03*
X100100000Y-60500000D03*
%TD*%
D44*
%TO.C,C37*%
X89348008Y-60651992D03*
X88251992Y-61748008D03*
%TD*%
D45*
%TO.C,J3*%
X97571656Y-55128114D03*
X96771656Y-55128114D03*
D46*
X95621656Y-55128114D03*
X94621656Y-55128114D03*
X94121656Y-55128114D03*
X93121656Y-55128114D03*
D45*
X91971656Y-55128114D03*
X91171656Y-55128114D03*
X91171656Y-55128114D03*
X91971656Y-55128114D03*
D46*
X92621656Y-55128114D03*
X93621656Y-55128114D03*
X95121656Y-55128114D03*
X96121656Y-55128114D03*
D45*
X96771656Y-55128114D03*
X97571656Y-55128114D03*
D47*
X98691656Y-54548114D03*
D48*
X98691656Y-50378114D03*
D47*
X90051656Y-54548114D03*
D48*
X90051656Y-50378114D03*
%TD*%
D18*
%TO.C,R15*%
X84900000Y-75800000D03*
X86550000Y-75800000D03*
%TD*%
%TO.C,R19*%
X107375000Y-71200000D03*
X109025000Y-71200000D03*
%TD*%
D14*
%TO.C,C13*%
X140881656Y-74268114D03*
X142431656Y-74268114D03*
%TD*%
D33*
%TO.C,R28*%
X90736656Y-101868114D03*
X89086656Y-101868114D03*
%TD*%
D15*
%TO.C,D2*%
X106500000Y-63600000D03*
X108600000Y-63600000D03*
%TD*%
D10*
%TO.C,C24*%
X92966656Y-91848114D03*
X91416656Y-91848114D03*
%TD*%
D17*
%TO.C,R10*%
X77966656Y-83273114D03*
X77966656Y-84923114D03*
%TD*%
D10*
%TO.C,C11*%
X138781656Y-72658114D03*
X137231656Y-72658114D03*
%TD*%
D43*
%TO.C,D19*%
X134764156Y-116128114D03*
X136339156Y-116128114D03*
%TD*%
D14*
%TO.C,C4*%
X98741656Y-97073114D03*
X100291656Y-97073114D03*
%TD*%
D49*
%TO.C,J6*%
X143756656Y-49878114D03*
D50*
X145756656Y-49878114D03*
X147756656Y-49878114D03*
%TD*%
D36*
%TO.C,F1*%
X79516656Y-125008114D03*
X102016656Y-125008114D03*
%TD*%
D29*
%TO.C,D1*%
X111550000Y-60900000D03*
X109450000Y-60900000D03*
%TD*%
D23*
%TO.C,J10*%
X142676656Y-102098114D03*
X142676656Y-113098114D03*
D51*
X137676656Y-105098114D03*
D25*
X137676656Y-110098114D03*
%TD*%
D42*
%TO.C,C16*%
X129100000Y-66675000D03*
X129100000Y-65125000D03*
%TD*%
D14*
%TO.C,C5*%
X82191656Y-86118114D03*
X83741656Y-86118114D03*
%TD*%
%TO.C,C25*%
X95401656Y-91848114D03*
X96951656Y-91848114D03*
%TD*%
D23*
%TO.C,J9*%
X76806656Y-101958114D03*
X76806656Y-90958114D03*
D24*
X81806656Y-98958114D03*
D25*
X81806656Y-93958114D03*
%TD*%
D15*
%TO.C,D5*%
X91310000Y-59520000D03*
X93410000Y-59520000D03*
%TD*%
D14*
%TO.C,C32*%
X127650000Y-57300000D03*
X129200000Y-57300000D03*
%TD*%
D13*
%TO.C,R12*%
X86906656Y-87763114D03*
X86906656Y-86113114D03*
%TD*%
D29*
%TO.C,D9*%
X100550000Y-57300000D03*
X98450000Y-57300000D03*
%TD*%
D10*
%TO.C,C14*%
X142741656Y-58308114D03*
X141191656Y-58308114D03*
%TD*%
D33*
%TO.C,R4*%
X91951656Y-57668114D03*
X90301656Y-57668114D03*
%TD*%
D40*
%TO.C,D18*%
X135366656Y-128038114D03*
X139366656Y-128038114D03*
%TD*%
D43*
%TO.C,D17*%
X85809156Y-101898114D03*
X87384156Y-101898114D03*
%TD*%
D13*
%TO.C,R11*%
X85321656Y-87738114D03*
X85321656Y-86088114D03*
%TD*%
D33*
%TO.C,R2*%
X120125000Y-59100000D03*
X118475000Y-59100000D03*
%TD*%
D14*
%TO.C,C9*%
X81781656Y-84618114D03*
X83331656Y-84618114D03*
%TD*%
%TO.C,C8*%
X81771656Y-83108114D03*
X83321656Y-83108114D03*
%TD*%
D52*
%TO.C,SW1*%
X95476656Y-94338114D03*
X95476656Y-98538114D03*
%TD*%
D53*
%TO.C,D11*%
X79800000Y-84250000D03*
X79800000Y-82150000D03*
%TD*%
D49*
%TO.C,J5*%
X134356656Y-49978114D03*
D50*
X136356656Y-49978114D03*
X138356656Y-49978114D03*
%TD*%
D33*
%TO.C,R7*%
X123625000Y-64800000D03*
X121975000Y-64800000D03*
%TD*%
%TO.C,R23*%
X92926656Y-83168114D03*
X91276656Y-83168114D03*
%TD*%
D54*
%TO.C,U7*%
X125246656Y-111808114D03*
X127546656Y-111808114D03*
D55*
X127546656Y-105508114D03*
D54*
X129846656Y-111808114D03*
%TD*%
D56*
%TO.C,SW5*%
X141681656Y-55148114D03*
X149381656Y-55148114D03*
%TD*%
D22*
%TO.C,H2*%
X148200000Y-126600000D03*
%TD*%
D18*
%TO.C,R6*%
X118850000Y-64800000D03*
X120500000Y-64800000D03*
%TD*%
D57*
%TO.C,U2*%
X85199156Y-80618114D03*
X85199156Y-81118114D03*
X85199156Y-81618114D03*
X85199156Y-82118114D03*
X85199156Y-82618114D03*
X85199156Y-83118114D03*
D58*
X85886656Y-83805614D03*
X86386656Y-83805614D03*
X86886656Y-83805614D03*
X87386656Y-83805614D03*
X87886656Y-83805614D03*
X88386656Y-83805614D03*
D57*
X89074156Y-83118114D03*
X89074156Y-82618114D03*
X89074156Y-82118114D03*
X89074156Y-81618114D03*
X89074156Y-81118114D03*
X89074156Y-80618114D03*
D58*
X88386656Y-79930614D03*
X87886656Y-79930614D03*
X87386656Y-79930614D03*
X86886656Y-79930614D03*
X86386656Y-79930614D03*
X85886656Y-79930614D03*
D59*
X87136656Y-81868114D03*
%TD*%
D60*
%TO.C,C28*%
X111900000Y-127022380D03*
D12*
X111900000Y-124522380D03*
%TD*%
D61*
%TO.C,FB1*%
X144876656Y-58280614D03*
X144876656Y-59855614D03*
%TD*%
D43*
%TO.C,D13*%
X81817500Y-77390000D03*
X83392500Y-77390000D03*
%TD*%
D13*
%TO.C,R18*%
X116706656Y-103073114D03*
X116706656Y-101423114D03*
%TD*%
D62*
%TO.C,U5*%
X99836656Y-112110000D03*
X99836656Y-110410000D03*
X99836656Y-108710000D03*
D63*
X90686656Y-108710000D03*
D62*
X99836656Y-107010000D03*
X99836656Y-105310000D03*
%TD*%
D42*
%TO.C,C31*%
X132079156Y-109313114D03*
X132079156Y-107763114D03*
%TD*%
D34*
%TO.C,C26*%
X106394277Y-120058114D03*
D12*
X108894277Y-120058114D03*
%TD*%
D13*
%TO.C,R9*%
X77996656Y-77763114D03*
X77996656Y-76113114D03*
%TD*%
D45*
%TO.C,J2*%
X127166656Y-55408114D03*
X126366656Y-55408114D03*
D46*
X125216656Y-55408114D03*
X124216656Y-55408114D03*
X123716656Y-55408114D03*
X122716656Y-55408114D03*
D45*
X121566656Y-55408114D03*
X120766656Y-55408114D03*
X120766656Y-55408114D03*
X121566656Y-55408114D03*
D46*
X122216656Y-55408114D03*
X123216656Y-55408114D03*
X124716656Y-55408114D03*
X125716656Y-55408114D03*
D45*
X126366656Y-55408114D03*
X127166656Y-55408114D03*
D47*
X128286656Y-54828114D03*
D48*
X128286656Y-50658114D03*
D47*
X119646656Y-54828114D03*
D48*
X119646656Y-50658114D03*
%TD*%
D32*
%TO.C,C15*%
X129156656Y-62048114D03*
X129156656Y-63598114D03*
%TD*%
D42*
%TO.C,C1*%
X116900000Y-58675000D03*
X116900000Y-57125000D03*
%TD*%
D29*
%TO.C,D12*%
X78276656Y-74428114D03*
X76176656Y-74428114D03*
%TD*%
D26*
%TO.C,D8*%
X130400000Y-53850000D03*
X130400000Y-55950000D03*
%TD*%
D15*
%TO.C,D3*%
X113450000Y-62300000D03*
X115550000Y-62300000D03*
%TD*%
D10*
%TO.C,C2*%
X115375000Y-60400000D03*
X113825000Y-60400000D03*
%TD*%
D64*
%TO.C,U3*%
X131106656Y-69988114D03*
X132376656Y-69988114D03*
X133646656Y-69988114D03*
X134916656Y-69988114D03*
X136186656Y-69988114D03*
X137456656Y-69988114D03*
X138726656Y-69988114D03*
X139996656Y-69988114D03*
X141266656Y-69988114D03*
X142536656Y-69988114D03*
X142536656Y-60688114D03*
X141266656Y-60688114D03*
X139996656Y-60688114D03*
X138726656Y-60688114D03*
X137456656Y-60688114D03*
X136186656Y-60688114D03*
X134916656Y-60688114D03*
X133646656Y-60688114D03*
X132376656Y-60688114D03*
X131106656Y-60688114D03*
%TD*%
D17*
%TO.C,R1*%
X126100000Y-57900000D03*
X126100000Y-59550000D03*
%TD*%
D65*
%TO.C,J4*%
X75261656Y-77838114D03*
X75261656Y-78638114D03*
D66*
X75261656Y-79788114D03*
X75261656Y-80788114D03*
X75261656Y-81288114D03*
X75261656Y-82288114D03*
D65*
X75261656Y-83438114D03*
X75261656Y-84238114D03*
X75261656Y-84238114D03*
X75261656Y-83438114D03*
D66*
X75261656Y-82788114D03*
X75261656Y-81788114D03*
X75261656Y-80288114D03*
X75261656Y-79288114D03*
D65*
X75261656Y-78638114D03*
X75261656Y-77838114D03*
D67*
X74681656Y-76718114D03*
D68*
X70511656Y-76718114D03*
D67*
X74681656Y-85358114D03*
D68*
X70511656Y-85358114D03*
%TD*%
D22*
%TO.C,H3*%
X71276656Y-71848114D03*
%TD*%
D69*
%TO.C,SW4*%
X108786656Y-102298114D03*
X104586656Y-102298114D03*
%TD*%
D33*
%TO.C,R29*%
X139506656Y-116088114D03*
X137856656Y-116088114D03*
%TD*%
D62*
%TO.C,U6*%
X129865000Y-124755000D03*
X129865000Y-123055000D03*
X129865000Y-121355000D03*
D63*
X120715000Y-121355000D03*
D62*
X129865000Y-119655000D03*
X129865000Y-117955000D03*
%TD*%
D22*
%TO.C,H4*%
X148100000Y-71800000D03*
%TD*%
D70*
%TO.C,C36*%
X87451992Y-64848008D03*
X88548008Y-63751992D03*
%TD*%
D71*
%TO.C,Y1*%
X91066656Y-88548114D03*
X93266656Y-88548114D03*
X93266656Y-86848114D03*
X91066656Y-86848114D03*
%TD*%
D29*
%TO.C,D6*%
X126950000Y-61200000D03*
X124850000Y-61200000D03*
%TD*%
D18*
%TO.C,R16*%
X98711656Y-98718114D03*
X100361656Y-98718114D03*
%TD*%
%TO.C,R20*%
X131641656Y-57998114D03*
X133291656Y-57998114D03*
%TD*%
D23*
%TO.C,J11*%
X142706656Y-86928114D03*
X142706656Y-97928114D03*
D51*
X137706656Y-89928114D03*
D25*
X137706656Y-94928114D03*
%TD*%
D72*
%TO.C,SW3*%
X110956656Y-102278114D03*
X115156656Y-102278114D03*
%TD*%
D33*
%TO.C,R17*%
X112925000Y-71200000D03*
X111275000Y-71200000D03*
%TD*%
D14*
%TO.C,C18*%
X91391656Y-90248114D03*
X92941656Y-90248114D03*
%TD*%
%TO.C,C12*%
X140861656Y-72648114D03*
X142411656Y-72648114D03*
%TD*%
D17*
%TO.C,R13*%
X88496656Y-86113114D03*
X88496656Y-87763114D03*
%TD*%
D14*
%TO.C,C3*%
X98741656Y-95473114D03*
X100291656Y-95473114D03*
%TD*%
D10*
%TO.C,C38*%
X87375000Y-68700000D03*
X85825000Y-68700000D03*
%TD*%
D14*
%TO.C,C7*%
X98741656Y-93848114D03*
X100291656Y-93848114D03*
%TD*%
M02*
