%TF.GenerationSoftware,KiCad,Pcbnew,9.0.4*%
%TF.CreationDate,2026-08-05T18:59:31+07:00*%
%TF.ProjectId,esp32-based-motherboard,65737033-322d-4626-9173-65642d6d6f74,rev?*%
%TF.SameCoordinates,Original*%
%TF.FileFunction,Soldermask,Bot*%
%TF.FilePolarity,Negative*%
%FSLAX46Y46*%
G04 Gerber Fmt 4.6, Leading zero omitted, Abs format (unit mm)*
G04 Created by KiCad (PCBNEW 9.0.4) date 2026-08-05 18:59:31*
%MOMM*%
%LPD*%
G01*
G04 APERTURE LIST*
G04 Aperture macros list*
%AMRoundRect*
0 Rectangle with rounded corners*
0 $1 Rounding radius*
0 $2 $3 $4 $5 $6 $7 $8 $9 X,Y pos of 4 corners*
0 Add a 4 corners polygon primitive as box body*
4,1,4,$2,$3,$4,$5,$6,$7,$8,$9,$2,$3,0*
0 Add four circle primitives for the rounded corners*
1,1,$1+$1,$2,$3*
1,1,$1+$1,$4,$5*
1,1,$1+$1,$6,$7*
1,1,$1+$1,$8,$9*
0 Add four rect primitives between the rounded corners*
20,1,$1+$1,$2,$3,$4,$5,0*
20,1,$1+$1,$4,$5,$6,$7,0*
20,1,$1+$1,$6,$7,$8,$9,0*
20,1,$1+$1,$8,$9,$2,$3,0*%
G04 Aperture macros list end*
%ADD10RoundRect,0.250000X-0.550000X0.550000X-0.550000X-0.550000X0.550000X-0.550000X0.550000X0.550000X0*%
%ADD11C,1.600000*%
%ADD12C,6.400000*%
%ADD13C,1.400000*%
%ADD14RoundRect,0.770000X0.980000X-0.980000X0.980000X0.980000X-0.980000X0.980000X-0.980000X-0.980000X0*%
%ADD15C,3.500000*%
%ADD16RoundRect,0.250000X-0.550000X-0.550000X0.550000X-0.550000X0.550000X0.550000X-0.550000X0.550000X0*%
%ADD17R,1.600000X1.500000*%
%ADD18C,3.000000*%
%ADD19C,3.250000*%
%ADD20RoundRect,0.250500X0.499500X0.499500X-0.499500X0.499500X-0.499500X-0.499500X0.499500X-0.499500X0*%
%ADD21C,1.500000*%
%ADD22C,2.500000*%
%ADD23C,0.600000*%
%ADD24O,0.900000X2.000000*%
%ADD25O,0.900000X1.700000*%
%ADD26RoundRect,0.250000X-0.350000X-0.625000X0.350000X-0.625000X0.350000X0.625000X-0.350000X0.625000X0*%
%ADD27O,1.200000X1.750000*%
%ADD28C,2.700000*%
%ADD29RoundRect,0.770000X-0.980000X0.980000X-0.980000X-0.980000X0.980000X-0.980000X0.980000X0.980000X0*%
%ADD30O,1.200000X2.200000*%
%ADD31RoundRect,0.250000X0.550000X-0.550000X0.550000X0.550000X-0.550000X0.550000X-0.550000X-0.550000X0*%
%ADD32O,2.000000X0.900000*%
%ADD33O,1.700000X0.900000*%
%ADD34RoundRect,0.225000X0.225000X0.250000X-0.225000X0.250000X-0.225000X-0.250000X0.225000X-0.250000X0*%
%ADD35RoundRect,0.225000X0.250000X-0.225000X0.250000X0.225000X-0.250000X0.225000X-0.250000X-0.225000X0*%
%ADD36RoundRect,0.200000X0.200000X0.275000X-0.200000X0.275000X-0.200000X-0.275000X0.200000X-0.275000X0*%
%ADD37RoundRect,0.200000X-0.200000X-0.275000X0.200000X-0.275000X0.200000X0.275000X-0.200000X0.275000X0*%
G04 APERTURE END LIST*
D10*
%TO.C,C27*%
X88316656Y-95528114D03*
D11*
X88316656Y-98028114D03*
%TD*%
D12*
%TO.C,H1*%
X71300000Y-126600000D03*
%TD*%
D13*
%TO.C,J8*%
X71951656Y-118148114D03*
X71951656Y-107148114D03*
D14*
X81951656Y-110148114D03*
D15*
X81951656Y-115148114D03*
%TD*%
D16*
%TO.C,C29*%
X144864277Y-118398114D03*
D11*
X147364277Y-118398114D03*
%TD*%
D17*
%TO.C,J1*%
X112500000Y-56660000D03*
D11*
X110000000Y-56660000D03*
X108000000Y-56660000D03*
X105500000Y-56660000D03*
D18*
X115570000Y-53950000D03*
X102430000Y-53950000D03*
%TD*%
D19*
%TO.C,J7*%
X82746656Y-53498114D03*
X71316656Y-53498114D03*
D20*
X81471656Y-59858114D03*
D21*
X80211656Y-62398114D03*
X78931656Y-59858114D03*
X77671656Y-62398114D03*
X76391656Y-59858114D03*
X75131656Y-62398114D03*
X73851656Y-59858114D03*
X72591656Y-62398114D03*
X83656656Y-48598114D03*
X81116656Y-48598114D03*
X72946656Y-48598114D03*
X70406656Y-48598114D03*
D22*
X84776656Y-56548114D03*
X69286656Y-56548114D03*
%TD*%
D23*
%TO.C,J3*%
X97261656Y-54068114D03*
X91481656Y-54068114D03*
D24*
X98691656Y-54548114D03*
D25*
X98691656Y-50378114D03*
D24*
X90051656Y-54548114D03*
D25*
X90051656Y-50378114D03*
%TD*%
D26*
%TO.C,J6*%
X143756656Y-49878114D03*
D27*
X145756656Y-49878114D03*
X147756656Y-49878114D03*
%TD*%
D28*
%TO.C,F1*%
X90766656Y-125008114D03*
D18*
X79516656Y-125008114D03*
X102016656Y-125008114D03*
%TD*%
D13*
%TO.C,J10*%
X142676656Y-102098114D03*
X142676656Y-113098114D03*
D29*
X137676656Y-105098114D03*
D15*
X137676656Y-110098114D03*
%TD*%
D13*
%TO.C,J9*%
X76806656Y-101958114D03*
X76806656Y-90958114D03*
D14*
X81806656Y-98958114D03*
D15*
X81806656Y-93958114D03*
%TD*%
D26*
%TO.C,J5*%
X134356656Y-49978114D03*
D27*
X136356656Y-49978114D03*
X138356656Y-49978114D03*
%TD*%
D30*
%TO.C,SW5*%
X141681656Y-55148114D03*
X149381656Y-55148114D03*
%TD*%
D12*
%TO.C,H2*%
X148200000Y-126600000D03*
%TD*%
D31*
%TO.C,C28*%
X111900000Y-127022380D03*
D11*
X111900000Y-124522380D03*
%TD*%
D16*
%TO.C,C26*%
X106394277Y-120058114D03*
D11*
X108894277Y-120058114D03*
%TD*%
D23*
%TO.C,J2*%
X126856656Y-54348114D03*
X121076656Y-54348114D03*
D24*
X128286656Y-54828114D03*
D25*
X128286656Y-50658114D03*
D24*
X119646656Y-54828114D03*
D25*
X119646656Y-50658114D03*
%TD*%
D23*
%TO.C,J4*%
X74201656Y-78148114D03*
X74201656Y-83928114D03*
D32*
X74681656Y-76718114D03*
D33*
X70511656Y-76718114D03*
D32*
X74681656Y-85358114D03*
D33*
X70511656Y-85358114D03*
%TD*%
D12*
%TO.C,H3*%
X71276656Y-71848114D03*
%TD*%
%TO.C,H4*%
X148100000Y-71800000D03*
%TD*%
D13*
%TO.C,J11*%
X142706656Y-86928114D03*
X142706656Y-97928114D03*
D29*
X137706656Y-89928114D03*
D15*
X137706656Y-94928114D03*
%TD*%
D34*
%TO.C,C21*%
X102550000Y-82900000D03*
X101000000Y-82900000D03*
%TD*%
D35*
%TO.C,C23*%
X95700000Y-87050000D03*
X95700000Y-85500000D03*
%TD*%
D36*
%TO.C,R26*%
X75900000Y-48600000D03*
X74250000Y-48600000D03*
%TD*%
D37*
%TO.C,R27*%
X77400000Y-48600000D03*
X79050000Y-48600000D03*
%TD*%
%TO.C,R24*%
X95650000Y-83900000D03*
X97300000Y-83900000D03*
%TD*%
D34*
%TO.C,C20*%
X102550000Y-84500000D03*
X101000000Y-84500000D03*
%TD*%
M02*
