%TF.GenerationSoftware,KiCad,Pcbnew,9.0.4*%
%TF.CreationDate,2026-08-05T18:59:31+07:00*%
%TF.ProjectId,esp32-based-motherboard,65737033-322d-4626-9173-65642d6d6f74,rev?*%
%TF.SameCoordinates,Original*%
%TF.FileFunction,Copper,L4,Bot*%
%TF.FilePolarity,Positive*%
%FSLAX46Y46*%
G04 Gerber Fmt 4.6, Leading zero omitted, Abs format (unit mm)*
G04 Created by KiCad (PCBNEW 9.0.4) date 2026-08-05 18:59:31*
%MOMM*%
%LPD*%
G01*
G04 APERTURE LIST*
G04 Aperture macros list*
%AMRoundRect*
0 Rectangle with rounded corners*
0 $1 Rounding radius*
0 $2 $3 $4 $5 $6 $7 $8 $9 X,Y pos of 4 corners*
0 Add a 4 corners polygon primitive as box body*
4,1,4,$2,$3,$4,$5,$6,$7,$8,$9,$2,$3,0*
0 Add four circle primitives for the rounded corners*
1,1,$1+$1,$2,$3*
1,1,$1+$1,$4,$5*
1,1,$1+$1,$6,$7*
1,1,$1+$1,$8,$9*
0 Add four rect primitives between the rounded corners*
20,1,$1+$1,$2,$3,$4,$5,0*
20,1,$1+$1,$4,$5,$6,$7,0*
20,1,$1+$1,$6,$7,$8,$9,0*
20,1,$1+$1,$8,$9,$2,$3,0*%
G04 Aperture macros list end*
%TA.AperFunction,ComponentPad*%
%ADD10RoundRect,0.250000X-0.550000X0.550000X-0.550000X-0.550000X0.550000X-0.550000X0.550000X0.550000X0*%
%TD*%
%TA.AperFunction,ComponentPad*%
%ADD11C,1.600000*%
%TD*%
%TA.AperFunction,HeatsinkPad*%
%ADD12C,0.600000*%
%TD*%
%TA.AperFunction,HeatsinkPad*%
%ADD13R,2.500000X2.500000*%
%TD*%
%TA.AperFunction,ComponentPad*%
%ADD14C,6.400000*%
%TD*%
%TA.AperFunction,ComponentPad*%
%ADD15C,1.400000*%
%TD*%
%TA.AperFunction,ComponentPad*%
%ADD16RoundRect,0.770000X0.980000X-0.980000X0.980000X0.980000X-0.980000X0.980000X-0.980000X-0.980000X0*%
%TD*%
%TA.AperFunction,ComponentPad*%
%ADD17C,3.500000*%
%TD*%
%TA.AperFunction,ComponentPad*%
%ADD18RoundRect,0.250000X-0.550000X-0.550000X0.550000X-0.550000X0.550000X0.550000X-0.550000X0.550000X0*%
%TD*%
%TA.AperFunction,ComponentPad*%
%ADD19R,1.600000X1.500000*%
%TD*%
%TA.AperFunction,ComponentPad*%
%ADD20C,3.000000*%
%TD*%
%TA.AperFunction,ComponentPad*%
%ADD21RoundRect,0.250500X0.499500X0.499500X-0.499500X0.499500X-0.499500X-0.499500X0.499500X-0.499500X0*%
%TD*%
%TA.AperFunction,ComponentPad*%
%ADD22C,1.500000*%
%TD*%
%TA.AperFunction,ComponentPad*%
%ADD23C,2.500000*%
%TD*%
%TA.AperFunction,HeatsinkPad*%
%ADD24O,0.900000X2.000000*%
%TD*%
%TA.AperFunction,HeatsinkPad*%
%ADD25O,0.900000X1.700000*%
%TD*%
%TA.AperFunction,ComponentPad*%
%ADD26RoundRect,0.250000X-0.350000X-0.625000X0.350000X-0.625000X0.350000X0.625000X-0.350000X0.625000X0*%
%TD*%
%TA.AperFunction,ComponentPad*%
%ADD27O,1.200000X1.750000*%
%TD*%
%TA.AperFunction,ComponentPad*%
%ADD28RoundRect,0.770000X-0.980000X0.980000X-0.980000X-0.980000X0.980000X-0.980000X0.980000X0.980000X0*%
%TD*%
%TA.AperFunction,ComponentPad*%
%ADD29O,1.200000X2.200000*%
%TD*%
%TA.AperFunction,ComponentPad*%
%ADD30RoundRect,0.250000X0.550000X-0.550000X0.550000X0.550000X-0.550000X0.550000X-0.550000X-0.550000X0*%
%TD*%
%TA.AperFunction,HeatsinkPad*%
%ADD31O,2.000000X0.900000*%
%TD*%
%TA.AperFunction,HeatsinkPad*%
%ADD32O,1.700000X0.900000*%
%TD*%
%TA.AperFunction,SMDPad,CuDef*%
%ADD33RoundRect,0.225000X0.225000X0.250000X-0.225000X0.250000X-0.225000X-0.250000X0.225000X-0.250000X0*%
%TD*%
%TA.AperFunction,SMDPad,CuDef*%
%ADD34RoundRect,0.225000X0.250000X-0.225000X0.250000X0.225000X-0.250000X0.225000X-0.250000X-0.225000X0*%
%TD*%
%TA.AperFunction,SMDPad,CuDef*%
%ADD35RoundRect,0.200000X0.200000X0.275000X-0.200000X0.275000X-0.200000X-0.275000X0.200000X-0.275000X0*%
%TD*%
%TA.AperFunction,SMDPad,CuDef*%
%ADD36RoundRect,0.200000X-0.200000X-0.275000X0.200000X-0.275000X0.200000X0.275000X-0.200000X0.275000X0*%
%TD*%
%TA.AperFunction,ViaPad*%
%ADD37C,0.600000*%
%TD*%
%TA.AperFunction,ViaPad*%
%ADD38C,0.500000*%
%TD*%
%TA.AperFunction,Conductor*%
%ADD39C,0.300000*%
%TD*%
%TA.AperFunction,Conductor*%
%ADD40C,0.500000*%
%TD*%
%TA.AperFunction,Conductor*%
%ADD41C,0.250000*%
%TD*%
G04 APERTURE END LIST*
D10*
%TO.P,C27,1*%
%TO.N,+12V*%
X88316656Y-95528114D03*
D11*
%TO.P,C27,2*%
%TO.N,GND*%
X88316656Y-98028114D03*
%TD*%
D12*
%TO.P,U4,25,VSS*%
%TO.N,GND*%
X97376656Y-86788114D03*
X97376656Y-87748114D03*
X97376656Y-88678114D03*
D13*
X98326656Y-87738114D03*
D12*
X98336656Y-86788114D03*
X98336656Y-88678114D03*
X98346656Y-87738114D03*
X99256656Y-86788114D03*
X99256656Y-87748114D03*
X99256656Y-88678114D03*
%TD*%
D14*
%TO.P,H1,1,1*%
%TO.N,unconnected-(H1-Pad1)*%
X71300000Y-126600000D03*
%TD*%
D15*
%TO.P,J8,*%
%TO.N,*%
X71951656Y-118148114D03*
X71951656Y-107148114D03*
D16*
%TO.P,J8,1,Pin_1*%
%TO.N,GND*%
X81951656Y-110148114D03*
D17*
%TO.P,J8,2,Pin_2*%
%TO.N,Net-(J8-Pin_2)*%
X81951656Y-115148114D03*
%TD*%
D18*
%TO.P,C29,1*%
%TO.N,+5V*%
X144864277Y-118398114D03*
D11*
%TO.P,C29,2*%
%TO.N,GND*%
X147364277Y-118398114D03*
%TD*%
D19*
%TO.P,J1,1,VBUS*%
%TO.N,+5V*%
X112500000Y-56660000D03*
D11*
%TO.P,J1,2,D-*%
%TO.N,/USB_A_N*%
X110000000Y-56660000D03*
%TO.P,J1,3,D+*%
%TO.N,/USB_A_P*%
X108000000Y-56660000D03*
%TO.P,J1,4,GND*%
%TO.N,GND*%
X105500000Y-56660000D03*
D20*
%TO.P,J1,5,Shield*%
X115570000Y-53950000D03*
X102430000Y-53950000D03*
%TD*%
D21*
%TO.P,J7,1,TD+*%
%TO.N,ETH_TD+*%
X81471656Y-59858114D03*
D22*
%TO.P,J7,2,TD-*%
%TO.N,ETH_TD-*%
X80211656Y-62398114D03*
%TO.P,J7,3,RD+*%
%TO.N,ETH_RD+*%
X78931656Y-59858114D03*
%TO.P,J7,4,TCT*%
%TO.N,unconnected-(J7-TCT-Pad4)*%
X77671656Y-62398114D03*
%TO.P,J7,5,RCT*%
%TO.N,unconnected-(J7-RCT-Pad5)*%
X76391656Y-59858114D03*
%TO.P,J7,6,RD-*%
%TO.N,ETH_RD-*%
X75131656Y-62398114D03*
%TO.P,J7,7,NC*%
%TO.N,unconnected-(J7-NC-Pad7)*%
X73851656Y-59858114D03*
%TO.P,J7,8*%
%TO.N,GND*%
X72591656Y-62398114D03*
%TO.P,J7,9*%
%TO.N,PHY_LED1*%
X83656656Y-48598114D03*
%TO.P,J7,10*%
%TO.N,Net-(J7-Pad10)*%
X81116656Y-48598114D03*
%TO.P,J7,11*%
%TO.N,Net-(J7-Pad11)*%
X72946656Y-48598114D03*
%TO.P,J7,12*%
%TO.N,PHY_LED2*%
X70406656Y-48598114D03*
D23*
%TO.P,J7,SH*%
%TO.N,unconnected-(J7-PadSH)_1*%
X84776656Y-56548114D03*
%TO.N,unconnected-(J7-PadSH)*%
X69286656Y-56548114D03*
%TD*%
D24*
%TO.P,J3,S1,SHIELD*%
%TO.N,GND*%
X98691656Y-54548114D03*
D25*
X98691656Y-50378114D03*
D24*
X90051656Y-54548114D03*
D25*
X90051656Y-50378114D03*
%TD*%
D26*
%TO.P,J6,1,Pin_1*%
%TO.N,CAN_H*%
X143756656Y-49878114D03*
D27*
%TO.P,J6,2,Pin_2*%
%TO.N,CAN_L*%
X145756656Y-49878114D03*
%TO.P,J6,3,Pin_3*%
%TO.N,GNDREF*%
X147756656Y-49878114D03*
%TD*%
D20*
%TO.P,F1,1*%
%TO.N,Net-(J8-Pin_2)*%
X79516656Y-125008114D03*
%TO.P,F1,2*%
%TO.N,/power_system/Vcc*%
X102016656Y-125008114D03*
%TD*%
D15*
%TO.P,J10,*%
%TO.N,*%
X142676656Y-102098114D03*
X142676656Y-113098114D03*
D28*
%TO.P,J10,1,Pin_1*%
%TO.N,GND*%
X137676656Y-105098114D03*
D17*
%TO.P,J10,2,Pin_2*%
%TO.N,+5V*%
X137676656Y-110098114D03*
%TD*%
D15*
%TO.P,J9,*%
%TO.N,*%
X76806656Y-101958114D03*
X76806656Y-90958114D03*
D16*
%TO.P,J9,1,Pin_1*%
%TO.N,GND*%
X81806656Y-98958114D03*
D17*
%TO.P,J9,2,Pin_2*%
%TO.N,+12V*%
X81806656Y-93958114D03*
%TD*%
D26*
%TO.P,J5,1,Pin_1*%
%TO.N,CAN_H*%
X134356656Y-49978114D03*
D27*
%TO.P,J5,2,Pin_2*%
%TO.N,CAN_L*%
X136356656Y-49978114D03*
%TO.P,J5,3,Pin_3*%
%TO.N,GNDREF*%
X138356656Y-49978114D03*
%TD*%
D29*
%TO.P,SW5,1,A*%
%TO.N,Net-(SW5-A)*%
X141681656Y-55148114D03*
%TO.P,SW5,2,B*%
%TO.N,CAN_L*%
X149381656Y-55148114D03*
%TD*%
D14*
%TO.P,H2,1,1*%
%TO.N,unconnected-(H2-Pad1)*%
X148200000Y-126600000D03*
%TD*%
D30*
%TO.P,C28,1*%
%TO.N,/power_system/Vcc*%
X111900000Y-127022380D03*
D11*
%TO.P,C28,2*%
%TO.N,GND*%
X111900000Y-124522380D03*
%TD*%
D18*
%TO.P,C26,1*%
%TO.N,/power_system/Vcc*%
X106394277Y-120058114D03*
D11*
%TO.P,C26,2*%
%TO.N,GND*%
X108894277Y-120058114D03*
%TD*%
D24*
%TO.P,J2,S1,SHIELD*%
%TO.N,GND*%
X128286656Y-54828114D03*
D25*
X128286656Y-50658114D03*
D24*
X119646656Y-54828114D03*
D25*
X119646656Y-50658114D03*
%TD*%
D31*
%TO.P,J4,S1,SHIELD*%
%TO.N,GND*%
X74681656Y-76718114D03*
D32*
X70511656Y-76718114D03*
D31*
X74681656Y-85358114D03*
D32*
X70511656Y-85358114D03*
%TD*%
D14*
%TO.P,H3,1,1*%
%TO.N,unconnected-(H3-Pad1)*%
X71276656Y-71848114D03*
%TD*%
%TO.P,H4,1,1*%
%TO.N,unconnected-(H4-Pad1)*%
X148100000Y-71800000D03*
%TD*%
D15*
%TO.P,J11,*%
%TO.N,*%
X142706656Y-86928114D03*
X142706656Y-97928114D03*
D28*
%TO.P,J11,1,Pin_1*%
%TO.N,GND*%
X137706656Y-89928114D03*
D17*
%TO.P,J11,2,Pin_2*%
%TO.N,+3.3V*%
X137706656Y-94928114D03*
%TD*%
D33*
%TO.P,C21,1*%
%TO.N,GND*%
X102550000Y-82900000D03*
%TO.P,C21,2*%
%TO.N,+3.3V*%
X101000000Y-82900000D03*
%TD*%
D34*
%TO.P,C23,1*%
%TO.N,GND*%
X95700000Y-87050000D03*
%TO.P,C23,2*%
%TO.N,+3.3V*%
X95700000Y-85500000D03*
%TD*%
D35*
%TO.P,R26,1*%
%TO.N,GND*%
X75900000Y-48600000D03*
%TO.P,R26,2*%
%TO.N,Net-(J7-Pad11)*%
X74250000Y-48600000D03*
%TD*%
D36*
%TO.P,R27,1*%
%TO.N,GND*%
X77400000Y-48600000D03*
%TO.P,R27,2*%
%TO.N,Net-(J7-Pad10)*%
X79050000Y-48600000D03*
%TD*%
%TO.P,R24,1*%
%TO.N,Net-(U4-RBIAS)*%
X95650000Y-83900000D03*
%TO.P,R24,2*%
%TO.N,GND*%
X97300000Y-83900000D03*
%TD*%
D33*
%TO.P,C20,1*%
%TO.N,GND*%
X102550000Y-84500000D03*
%TO.P,C20,2*%
%TO.N,+3.3V*%
X101000000Y-84500000D03*
%TD*%
D37*
%TO.N,+3.3V*%
X101000000Y-82900000D03*
X112925000Y-71200000D03*
D38*
X120800000Y-99940000D03*
D37*
X134330000Y-78500000D03*
D38*
X84526946Y-85418114D03*
D37*
X101000000Y-84500000D03*
X107375000Y-71200000D03*
X95700000Y-85400000D03*
D38*
X102760000Y-93190000D03*
X88496656Y-89600000D03*
D37*
%TO.N,+5V*%
X130900000Y-114000000D03*
D38*
X139996656Y-65216656D03*
D37*
X130300000Y-113400000D03*
D38*
X130400000Y-55950000D03*
D37*
X85200000Y-84800000D03*
X131520000Y-114620000D03*
D38*
%TO.N,GNDREF*%
X135890000Y-57600000D03*
X133900000Y-56440000D03*
X143650000Y-59590000D03*
X140110000Y-58720000D03*
%TO.N,GND*%
X112500000Y-83400000D03*
X96490000Y-96510000D03*
X90370000Y-84300000D03*
X89300000Y-112200000D03*
X124600000Y-85800000D03*
X103600000Y-96900000D03*
X79870000Y-86410000D03*
X118600000Y-82200000D03*
X114900000Y-84600000D03*
X114900000Y-83400000D03*
X79900000Y-74700000D03*
X121000000Y-78600000D03*
X99300000Y-65060000D03*
X96490000Y-95910000D03*
X134800000Y-74600000D03*
X79870000Y-85770000D03*
X148650000Y-59050000D03*
X116100000Y-78600000D03*
X89300000Y-105000000D03*
X118600000Y-84600000D03*
X80470000Y-87710000D03*
X87460000Y-81180000D03*
X101100000Y-63760000D03*
X88100000Y-105000000D03*
X124300000Y-117600000D03*
X123700000Y-96500000D03*
X123700000Y-95300000D03*
X97600000Y-91800000D03*
X111300000Y-78600000D03*
X119800000Y-78600000D03*
D37*
X87375000Y-68700000D03*
D38*
X122200000Y-78600000D03*
X112870000Y-101900000D03*
X123400000Y-83400000D03*
X101100000Y-65060000D03*
X124300000Y-121200000D03*
X114900000Y-82200000D03*
X111300000Y-84600000D03*
X122200000Y-82200000D03*
X144900000Y-66500000D03*
X109800000Y-49700000D03*
X109700000Y-96600000D03*
X86900000Y-107400000D03*
X90500000Y-111000000D03*
X121000000Y-85800000D03*
X101100000Y-63100000D03*
X118300000Y-123600000D03*
X94550000Y-95910000D03*
X121900000Y-121200000D03*
X133600000Y-73400000D03*
D37*
X77400000Y-48600000D03*
D38*
X123100000Y-120000000D03*
X128460000Y-115970000D03*
X107400000Y-50900000D03*
X90500000Y-107400000D03*
X144900000Y-67700000D03*
X100900000Y-75800000D03*
X114900000Y-78600000D03*
X124600000Y-78600000D03*
X86790000Y-82510000D03*
X96840645Y-91812762D03*
X100500000Y-65060000D03*
X95190000Y-96510000D03*
X113470000Y-102560000D03*
X90500000Y-106200000D03*
X124300000Y-123600000D03*
X121900000Y-117600000D03*
X92900000Y-106200000D03*
D37*
X111600000Y-62400000D03*
D38*
X90500000Y-109800000D03*
X124600000Y-81000000D03*
X88100000Y-108600000D03*
X92900000Y-111000000D03*
X124300000Y-124800000D03*
X88100000Y-112200000D03*
X119500000Y-122400000D03*
X121900000Y-122400000D03*
X120700000Y-122400000D03*
X124900000Y-95300000D03*
X117300000Y-78600000D03*
X94100000Y-112200000D03*
X99900000Y-63760000D03*
X90250000Y-90870000D03*
X119500000Y-117600000D03*
X108600000Y-50900000D03*
X81200000Y-74700000D03*
X89650000Y-91530000D03*
X90500000Y-105000000D03*
D37*
X76800000Y-67750000D03*
D38*
X99300000Y-63100000D03*
X116100000Y-84600000D03*
X120700000Y-118800000D03*
X116100000Y-83400000D03*
X119500000Y-123600000D03*
X123400000Y-82200000D03*
X120700000Y-117600000D03*
X118300000Y-124800000D03*
X120700000Y-120000000D03*
X94100000Y-109800000D03*
X121000000Y-81000000D03*
X117300000Y-83400000D03*
X94550000Y-96510000D03*
X112500000Y-78600000D03*
X124600000Y-83400000D03*
X125800000Y-85800000D03*
X90370000Y-85600000D03*
X118600000Y-78600000D03*
X129760000Y-116570000D03*
X99900000Y-65060000D03*
X121000000Y-82200000D03*
X90250000Y-90230000D03*
X94100000Y-107400000D03*
X119800000Y-85800000D03*
X143700000Y-67700000D03*
X125800000Y-82200000D03*
X109800000Y-52100000D03*
X117300000Y-84600000D03*
X123100000Y-122400000D03*
X89300000Y-108600000D03*
X119500000Y-120000000D03*
X87460000Y-81820000D03*
X90370000Y-84940000D03*
X110100000Y-83400000D03*
D37*
X112400000Y-62400000D03*
D38*
X119500000Y-121200000D03*
X117100000Y-120000000D03*
X113700000Y-85800000D03*
X122200000Y-85800000D03*
X86900000Y-112200000D03*
X89770000Y-85600000D03*
X99300000Y-63760000D03*
X121900000Y-124800000D03*
X142500000Y-65300000D03*
X116100000Y-85800000D03*
X86900000Y-106200000D03*
X123400000Y-84600000D03*
X92900000Y-107400000D03*
X148650000Y-59650000D03*
X99900000Y-64400000D03*
X117100000Y-123600000D03*
X133600000Y-74600000D03*
X123700000Y-94100000D03*
X110100000Y-81000000D03*
X132400000Y-72200000D03*
X88100000Y-107400000D03*
X117100000Y-124800000D03*
X123100000Y-121200000D03*
X117300000Y-79800000D03*
X120700000Y-123600000D03*
X94100000Y-111000000D03*
X114900000Y-79800000D03*
X94100000Y-105000000D03*
X86900000Y-109800000D03*
X112870000Y-103200000D03*
X142500000Y-66500000D03*
X143700000Y-65300000D03*
X100100000Y-75800000D03*
X118300000Y-122400000D03*
X119800000Y-81000000D03*
X117300000Y-81000000D03*
X140000000Y-79300000D03*
X130400000Y-116570000D03*
X125800000Y-84600000D03*
X116100000Y-81000000D03*
X111300000Y-81000000D03*
X124600000Y-84600000D03*
X80500000Y-74060000D03*
X124300000Y-120000000D03*
X101100000Y-64400000D03*
X86190000Y-81210000D03*
X119800000Y-82200000D03*
X101120000Y-92350000D03*
X122200000Y-81000000D03*
X89300000Y-111000000D03*
X129100000Y-116570000D03*
X92900000Y-112200000D03*
X102990000Y-97540000D03*
X86900000Y-105000000D03*
X108400000Y-96600000D03*
X122200000Y-79800000D03*
X95190000Y-95910000D03*
X91700000Y-112200000D03*
X121000000Y-79800000D03*
X94100000Y-108600000D03*
X118300000Y-120000000D03*
X120700000Y-124800000D03*
X134800000Y-72200000D03*
X144900000Y-65300000D03*
X110100000Y-85800000D03*
X112500000Y-85800000D03*
X110100000Y-78600000D03*
X122500000Y-96500000D03*
X79870000Y-87710000D03*
X91700000Y-109800000D03*
X94100000Y-106200000D03*
X113470000Y-101260000D03*
X123400000Y-81000000D03*
X110100000Y-84600000D03*
X89770000Y-84300000D03*
X101600000Y-75800000D03*
X119800000Y-83400000D03*
X121000000Y-83400000D03*
X143700000Y-66500000D03*
X117100000Y-121200000D03*
X113700000Y-81000000D03*
X124300000Y-122400000D03*
X111300000Y-85800000D03*
X89650000Y-90870000D03*
X100500000Y-63760000D03*
X137600000Y-80500000D03*
X92900000Y-108600000D03*
X81800000Y-74700000D03*
X86790000Y-81210000D03*
X109800000Y-50900000D03*
X118300000Y-121200000D03*
X90500000Y-108600000D03*
X122500000Y-94100000D03*
X123100000Y-118800000D03*
X128460000Y-116570000D03*
X100500000Y-63100000D03*
X112500000Y-82200000D03*
X80500000Y-74700000D03*
X103000000Y-96900000D03*
X99300000Y-64400000D03*
X113470000Y-103200000D03*
X125800000Y-79800000D03*
X142500000Y-67700000D03*
X117100000Y-118800000D03*
X87460000Y-82480000D03*
X103590000Y-97540000D03*
X91700000Y-107400000D03*
X119500000Y-124800000D03*
X80470000Y-85770000D03*
X121900000Y-118800000D03*
X114900000Y-81000000D03*
X147780000Y-53150000D03*
X121900000Y-123600000D03*
X114900000Y-85800000D03*
X140000000Y-78100000D03*
X95850000Y-95910000D03*
X79870000Y-87070000D03*
X122200000Y-84600000D03*
X88060000Y-81820000D03*
X109700000Y-96000000D03*
X138800000Y-80500000D03*
X124300000Y-118800000D03*
X134800000Y-73400000D03*
X125800000Y-81000000D03*
X107760000Y-96600000D03*
D37*
X87451992Y-64848008D03*
D38*
X113700000Y-82200000D03*
X108600000Y-52100000D03*
X118600000Y-85800000D03*
X111300000Y-82200000D03*
X120700000Y-121200000D03*
X118300000Y-117600000D03*
X138800000Y-78100000D03*
X129100000Y-115970000D03*
X137600000Y-78100000D03*
X113470000Y-101900000D03*
X81800000Y-74060000D03*
X112870000Y-101260000D03*
D37*
X89348008Y-60651992D03*
D38*
X89770000Y-84940000D03*
X112500000Y-79800000D03*
X81200000Y-74060000D03*
X80470000Y-87070000D03*
X107400000Y-49700000D03*
X116100000Y-82200000D03*
X117300000Y-82200000D03*
X111300000Y-83400000D03*
X89300000Y-107400000D03*
X123400000Y-78600000D03*
D37*
X112400000Y-63200000D03*
D38*
X123400000Y-85800000D03*
X113700000Y-78600000D03*
X113700000Y-83400000D03*
X123100000Y-123600000D03*
X140000000Y-80500000D03*
X109060000Y-96600000D03*
X130400000Y-115970000D03*
X91700000Y-106200000D03*
X132400000Y-73400000D03*
X86190000Y-81850000D03*
X122200000Y-83400000D03*
X113700000Y-79800000D03*
X91700000Y-111000000D03*
X109060000Y-96000000D03*
X117300000Y-85800000D03*
D37*
X111600000Y-63200000D03*
D38*
X91700000Y-105000000D03*
X121900000Y-120000000D03*
X86790000Y-81850000D03*
X89300000Y-106200000D03*
X138800000Y-79300000D03*
X92900000Y-109800000D03*
X137600000Y-79300000D03*
X119500000Y-118800000D03*
X117100000Y-122400000D03*
X124600000Y-82200000D03*
X125800000Y-83400000D03*
X122500000Y-95300000D03*
X113700000Y-84600000D03*
X100500000Y-64400000D03*
X88100000Y-111000000D03*
X112870000Y-102560000D03*
X112500000Y-84600000D03*
X108400000Y-96000000D03*
X121000000Y-84600000D03*
X112500000Y-81000000D03*
X99900000Y-63100000D03*
X110100000Y-82200000D03*
X95850000Y-96510000D03*
X140910000Y-50080000D03*
X111300000Y-79800000D03*
X118600000Y-79800000D03*
X90250000Y-91530000D03*
X91700000Y-108600000D03*
X108600000Y-49700000D03*
X89650000Y-90230000D03*
X107760000Y-96000000D03*
X90500000Y-112200000D03*
X89300000Y-109800000D03*
X86900000Y-108600000D03*
X124900000Y-94100000D03*
X88060000Y-81180000D03*
X125800000Y-78600000D03*
X118300000Y-118800000D03*
X101720000Y-92350000D03*
X123400000Y-79800000D03*
X124600000Y-79800000D03*
X133600000Y-72200000D03*
X118600000Y-83400000D03*
X92900000Y-105000000D03*
X117100000Y-117600000D03*
X123100000Y-117600000D03*
X88060000Y-82480000D03*
X107400000Y-52100000D03*
X86190000Y-82510000D03*
X119800000Y-84600000D03*
X119800000Y-79800000D03*
X118600000Y-81000000D03*
X116100000Y-79800000D03*
X124900000Y-96500000D03*
X79900000Y-74060000D03*
X123100000Y-124800000D03*
X80470000Y-86410000D03*
X147780000Y-52550000D03*
X129760000Y-115970000D03*
X132400000Y-74600000D03*
X140910000Y-49480000D03*
X86900000Y-111000000D03*
X110100000Y-79800000D03*
X88100000Y-109800000D03*
X88100000Y-106200000D03*
%TO.N,D-*%
X78700000Y-81700000D03*
X73600000Y-80600000D03*
D37*
%TO.N,PHY_LED2*%
X92234756Y-80650871D03*
D38*
%TO.N,PHY_LED1*%
X93800000Y-83400000D03*
X93786372Y-84600000D03*
%TO.N,CAN_L*%
X137680000Y-57660000D03*
D37*
%TO.N,C6_UART_RX*%
X108000000Y-100800000D03*
D38*
X87900000Y-78200000D03*
%TO.N,RMII_TXEN*%
X102900000Y-79200000D03*
X103650000Y-76550000D03*
D37*
%TO.N,C6_UART_TX*%
X110300000Y-100100000D03*
D38*
X89200000Y-78845729D03*
%TO.N,PHY_MDIO*%
X102706450Y-89557921D03*
X126600000Y-92300000D03*
%TO.N,RMII_RXD0*%
X97495498Y-90917294D03*
X104224000Y-82465099D03*
%TO.N,RMII_TXD1*%
X101011886Y-86413114D03*
X102620882Y-78198114D03*
%TO.N,CAN_RX*%
X115276656Y-70800000D03*
X132600000Y-67800000D03*
%TO.N,PHY_MDC*%
X125550000Y-93250000D03*
X101750000Y-89823000D03*
%TO.N,PHY_Reset*%
X102525000Y-87800000D03*
X126966587Y-90433413D03*
%TO.N,RMII_RXD1*%
X96001656Y-90700000D03*
X104224000Y-83465099D03*
%TO.N,CAN_TX*%
X135260401Y-68493686D03*
X114701656Y-71400000D03*
D37*
%TO.N,Net-(U4-RBIAS)*%
X95725000Y-83900000D03*
%TD*%
D39*
%TO.N,GND*%
X75900000Y-48600000D02*
X77400000Y-48600000D01*
X76350000Y-67750000D02*
X76800000Y-67750000D01*
X72591656Y-63991656D02*
X76350000Y-67750000D01*
X72591656Y-62398114D02*
X72591656Y-63991656D01*
D40*
X97014770Y-87050000D02*
X97326656Y-86738114D01*
X102550000Y-82900000D02*
X102550000Y-84500000D01*
X102174000Y-85426000D02*
X102550000Y-85050000D01*
X99326656Y-86738114D02*
X100638770Y-85426000D01*
X100638770Y-85426000D02*
X102174000Y-85426000D01*
X102550000Y-85050000D02*
X102550000Y-84500000D01*
X95700000Y-87050000D02*
X97014770Y-87050000D01*
D39*
%TO.N,PHY_LED2*%
X68500000Y-59800000D02*
X68500000Y-66200000D01*
X73700000Y-54600000D02*
X68500000Y-59800000D01*
X68500000Y-66200000D02*
X70000000Y-67700000D01*
X78300000Y-73400000D02*
X84983885Y-73400000D01*
X84983885Y-73400000D02*
X92234756Y-80650871D01*
X70406656Y-48598114D02*
X70406656Y-50206656D01*
X73700000Y-51600000D02*
X73700000Y-54600000D01*
X72600000Y-67700000D02*
X78300000Y-73400000D01*
X70406656Y-50206656D02*
X70900000Y-50700000D01*
X72800000Y-50700000D02*
X73700000Y-51600000D01*
X70900000Y-50700000D02*
X72800000Y-50700000D01*
X70000000Y-67700000D02*
X72600000Y-67700000D01*
%TO.N,PHY_LED1*%
X69001000Y-65992480D02*
X69001000Y-60007521D01*
X78404260Y-72795740D02*
X72807520Y-67199000D01*
X69001000Y-60007521D02*
X74201000Y-54807520D01*
X74201000Y-54807520D02*
X74201000Y-51499000D01*
X85300279Y-72795740D02*
X78404260Y-72795740D01*
X93800000Y-83400000D02*
X93800000Y-81295461D01*
X74201000Y-51499000D02*
X74472615Y-51227385D01*
X70207520Y-67199000D02*
X69001000Y-65992480D01*
X72807520Y-67199000D02*
X70207520Y-67199000D01*
X74472615Y-51227385D02*
X82772615Y-51227385D01*
X83656656Y-50343344D02*
X83656656Y-48598114D01*
X82772615Y-51227385D02*
X83656656Y-50343344D01*
X93800000Y-81295461D02*
X85300279Y-72795740D01*
D41*
%TO.N,C6_UART_RX*%
X93100000Y-94400000D02*
X93100000Y-99900000D01*
X93100000Y-99900000D02*
X94000000Y-100800000D01*
X91200000Y-81906046D02*
X91200000Y-92500000D01*
X87900000Y-78200000D02*
X88300000Y-78200000D01*
X94000000Y-100800000D02*
X108000000Y-100800000D01*
X88300000Y-78200000D02*
X88624000Y-78524000D01*
X91200000Y-92500000D02*
X93100000Y-94400000D01*
X88624000Y-78524000D02*
X88624000Y-79330046D01*
X88624000Y-79330046D02*
X91200000Y-81906046D01*
%TO.N,C6_UART_TX*%
X91900000Y-81200000D02*
X91900000Y-91700000D01*
X91900000Y-91700000D02*
X93900000Y-93700000D01*
X89200000Y-78845729D02*
X89545729Y-78845729D01*
X95000000Y-100100000D02*
X110300000Y-100100000D01*
X93900000Y-99000000D02*
X95000000Y-100100000D01*
X93900000Y-93700000D02*
X93900000Y-99000000D01*
X89545729Y-78845729D02*
X91900000Y-81200000D01*
%TO.N,CAN_RX*%
X115276656Y-70800000D02*
X115300000Y-70776656D01*
X119500000Y-67800000D02*
X132600000Y-67800000D01*
X116523344Y-70776656D02*
X119500000Y-67800000D01*
X115300000Y-70776656D02*
X116523344Y-70776656D01*
D39*
%TO.N,CAN_TX*%
X114701656Y-71400000D02*
X116800000Y-71400000D01*
X119706314Y-68493686D02*
X135260401Y-68493686D01*
X116800000Y-71400000D02*
X119706314Y-68493686D01*
%TO.N,Net-(J7-Pad11)*%
X72946656Y-48598114D02*
X74248114Y-48598114D01*
X74248114Y-48598114D02*
X74250000Y-48600000D01*
%TO.N,Net-(J7-Pad10)*%
X79050000Y-48600000D02*
X81114770Y-48600000D01*
X81114770Y-48600000D02*
X81116656Y-48598114D01*
%TD*%
%TA.AperFunction,Conductor*%
%TO.N,GND*%
G36*
X149410771Y-47648615D02*
G01*
X149472914Y-47648614D01*
X149480400Y-47648840D01*
X149770465Y-47666381D01*
X149785323Y-47668185D01*
X150067464Y-47719886D01*
X150081989Y-47723466D01*
X150355850Y-47808801D01*
X150369844Y-47814108D01*
X150631411Y-47931827D01*
X150644670Y-47938786D01*
X150890137Y-48087173D01*
X150902460Y-48095679D01*
X151128244Y-48272567D01*
X151139453Y-48282496D01*
X151292316Y-48435358D01*
X151342283Y-48485324D01*
X151352212Y-48496532D01*
X151529105Y-48722317D01*
X151537612Y-48734641D01*
X151686002Y-48980108D01*
X151692961Y-48993367D01*
X151810684Y-49254937D01*
X151815993Y-49268938D01*
X151901322Y-49542771D01*
X151904906Y-49557309D01*
X151956610Y-49839449D01*
X151958415Y-49854315D01*
X151975929Y-50143878D01*
X151976155Y-50151362D01*
X151976155Y-50184207D01*
X151976155Y-50214004D01*
X151976155Y-50214006D01*
X151976156Y-50223998D01*
X151976156Y-71059620D01*
X151956471Y-71126659D01*
X151903667Y-71172414D01*
X151834509Y-71182358D01*
X151770953Y-71153333D01*
X151733179Y-71094555D01*
X151730539Y-71083811D01*
X151693935Y-70899787D01*
X151693932Y-70899776D01*
X151693931Y-70899773D01*
X151693930Y-70899767D01*
X151588386Y-70551836D01*
X151449247Y-70215924D01*
X151407193Y-70137247D01*
X151277859Y-69895279D01*
X151277858Y-69895277D01*
X151277853Y-69895268D01*
X151075854Y-69592956D01*
X150845197Y-69311899D01*
X150845196Y-69311898D01*
X150845192Y-69311893D01*
X150588106Y-69054807D01*
X150307049Y-68824150D01*
X150307048Y-68824149D01*
X150307044Y-68824146D01*
X150004732Y-68622147D01*
X150004727Y-68622144D01*
X150004720Y-68622140D01*
X149684083Y-68450756D01*
X149684078Y-68450754D01*
X149348165Y-68311614D01*
X149000223Y-68206067D01*
X149000212Y-68206064D01*
X148643630Y-68135137D01*
X148371111Y-68108296D01*
X148281794Y-68099500D01*
X147918206Y-68099500D01*
X147835679Y-68107628D01*
X147556369Y-68135137D01*
X147199787Y-68206064D01*
X147199776Y-68206067D01*
X146851834Y-68311614D01*
X146515921Y-68450754D01*
X146515916Y-68450756D01*
X146195279Y-68622140D01*
X146195261Y-68622151D01*
X145892964Y-68824140D01*
X145892950Y-68824150D01*
X145611893Y-69054807D01*
X145354807Y-69311893D01*
X145124150Y-69592950D01*
X145124140Y-69592964D01*
X144922151Y-69895261D01*
X144922140Y-69895279D01*
X144750756Y-70215916D01*
X144750754Y-70215921D01*
X144611614Y-70551834D01*
X144506067Y-70899776D01*
X144506064Y-70899787D01*
X144435137Y-71256369D01*
X144419984Y-71410225D01*
X144399500Y-71618206D01*
X144399500Y-71981794D01*
X144404239Y-72029908D01*
X144435137Y-72343630D01*
X144506064Y-72700212D01*
X144506067Y-72700223D01*
X144611614Y-73048165D01*
X144750754Y-73384078D01*
X144750756Y-73384083D01*
X144922140Y-73704720D01*
X144922151Y-73704738D01*
X145124140Y-74007035D01*
X145124150Y-74007049D01*
X145354807Y-74288106D01*
X145611893Y-74545192D01*
X145611898Y-74545196D01*
X145611899Y-74545197D01*
X145892956Y-74775854D01*
X146195268Y-74977853D01*
X146195277Y-74977858D01*
X146195279Y-74977859D01*
X146515916Y-75149243D01*
X146515918Y-75149243D01*
X146515924Y-75149247D01*
X146851836Y-75288386D01*
X147199767Y-75393930D01*
X147199773Y-75393931D01*
X147199776Y-75393932D01*
X147199787Y-75393935D01*
X147556369Y-75464862D01*
X147918206Y-75500500D01*
X147918209Y-75500500D01*
X148281791Y-75500500D01*
X148281794Y-75500500D01*
X148643631Y-75464862D01*
X148758346Y-75442044D01*
X149000212Y-75393935D01*
X149000223Y-75393932D01*
X149000223Y-75393931D01*
X149000233Y-75393930D01*
X149348164Y-75288386D01*
X149684076Y-75149247D01*
X150004732Y-74977853D01*
X150307044Y-74775854D01*
X150588101Y-74545197D01*
X150845197Y-74288101D01*
X151075854Y-74007044D01*
X151277853Y-73704732D01*
X151449247Y-73384076D01*
X151588386Y-73048164D01*
X151693930Y-72700233D01*
X151693932Y-72700223D01*
X151693935Y-72700212D01*
X151730539Y-72516188D01*
X151762923Y-72454277D01*
X151823639Y-72419703D01*
X151893408Y-72423442D01*
X151950081Y-72464308D01*
X151975662Y-72529326D01*
X151976156Y-72540379D01*
X151976156Y-125464546D01*
X151956471Y-125531585D01*
X151903667Y-125577340D01*
X151834509Y-125587284D01*
X151770953Y-125558259D01*
X151733495Y-125500541D01*
X151703336Y-125401119D01*
X151688386Y-125351836D01*
X151549247Y-125015924D01*
X151474987Y-124876994D01*
X151377859Y-124695279D01*
X151377858Y-124695277D01*
X151377853Y-124695268D01*
X151175854Y-124392956D01*
X150945197Y-124111899D01*
X150945196Y-124111898D01*
X150945192Y-124111893D01*
X150688106Y-123854807D01*
X150407049Y-123624150D01*
X150407048Y-123624149D01*
X150407044Y-123624146D01*
X150104732Y-123422147D01*
X150104727Y-123422144D01*
X150104720Y-123422140D01*
X149784083Y-123250756D01*
X149784078Y-123250754D01*
X149448165Y-123111614D01*
X149100223Y-123006067D01*
X149100212Y-123006064D01*
X148743630Y-122935137D01*
X148471111Y-122908296D01*
X148381794Y-122899500D01*
X148018206Y-122899500D01*
X147935679Y-122907628D01*
X147656369Y-122935137D01*
X147299787Y-123006064D01*
X147299776Y-123006067D01*
X146951834Y-123111614D01*
X146615921Y-123250754D01*
X146615916Y-123250756D01*
X146295279Y-123422140D01*
X146295261Y-123422151D01*
X145992964Y-123624140D01*
X145992950Y-123624150D01*
X145711893Y-123854807D01*
X145454807Y-124111893D01*
X145224150Y-124392950D01*
X145224140Y-124392964D01*
X145022151Y-124695261D01*
X145022140Y-124695279D01*
X144850756Y-125015916D01*
X144850754Y-125015921D01*
X144711614Y-125351834D01*
X144606067Y-125699776D01*
X144606064Y-125699787D01*
X144535137Y-126056369D01*
X144521900Y-126190774D01*
X144499500Y-126418206D01*
X144499500Y-126781794D01*
X144501900Y-126806157D01*
X144535137Y-127143630D01*
X144606064Y-127500212D01*
X144606067Y-127500223D01*
X144711614Y-127848165D01*
X144850754Y-128184078D01*
X144850756Y-128184083D01*
X145022140Y-128504720D01*
X145022151Y-128504738D01*
X145224140Y-128807035D01*
X145224150Y-128807049D01*
X145454807Y-129088106D01*
X145711893Y-129345192D01*
X145711898Y-129345196D01*
X145711899Y-129345197D01*
X145992956Y-129575854D01*
X146295268Y-129777853D01*
X146295277Y-129777858D01*
X146295279Y-129777859D01*
X146615916Y-129949243D01*
X146615918Y-129949243D01*
X146615924Y-129949247D01*
X146951836Y-130088386D01*
X147299767Y-130193930D01*
X147340319Y-130201996D01*
X147402230Y-130234381D01*
X147436804Y-130295097D01*
X147433065Y-130364866D01*
X147392199Y-130421539D01*
X147327181Y-130447120D01*
X147316128Y-130447614D01*
X72183872Y-130447614D01*
X72116833Y-130427929D01*
X72071078Y-130375125D01*
X72061134Y-130305967D01*
X72090159Y-130242411D01*
X72148937Y-130204637D01*
X72159676Y-130201997D01*
X72200233Y-130193930D01*
X72548164Y-130088386D01*
X72884076Y-129949247D01*
X73204732Y-129777853D01*
X73507044Y-129575854D01*
X73788101Y-129345197D01*
X74045197Y-129088101D01*
X74275854Y-128807044D01*
X74477853Y-128504732D01*
X74649247Y-128184076D01*
X74788386Y-127848164D01*
X74893930Y-127500233D01*
X74893932Y-127500223D01*
X74893935Y-127500212D01*
X74964862Y-127143630D01*
X74981531Y-126974384D01*
X75000500Y-126781794D01*
X75000500Y-126418206D01*
X74964862Y-126056369D01*
X74932727Y-125894814D01*
X74893935Y-125699787D01*
X74893932Y-125699776D01*
X74893931Y-125699773D01*
X74893930Y-125699767D01*
X74788386Y-125351836D01*
X74649247Y-125015924D01*
X74574987Y-124876994D01*
X74574983Y-124876986D01*
X77516156Y-124876986D01*
X77516156Y-125139241D01*
X77542779Y-125341453D01*
X77550386Y-125399230D01*
X77618258Y-125652532D01*
X77618261Y-125652542D01*
X77718609Y-125894804D01*
X77718614Y-125894814D01*
X77849731Y-126121917D01*
X78009374Y-126329965D01*
X78009382Y-126329974D01*
X78194796Y-126515388D01*
X78194804Y-126515395D01*
X78402852Y-126675038D01*
X78629955Y-126806155D01*
X78629965Y-126806160D01*
X78872227Y-126906508D01*
X78872237Y-126906512D01*
X79125540Y-126974384D01*
X79385536Y-127008614D01*
X79385543Y-127008614D01*
X79647769Y-127008614D01*
X79647776Y-127008614D01*
X79907772Y-126974384D01*
X80161075Y-126906512D01*
X80403353Y-126806157D01*
X80630459Y-126675038D01*
X80838507Y-126515396D01*
X80838511Y-126515391D01*
X80838516Y-126515388D01*
X81023930Y-126329974D01*
X81023933Y-126329969D01*
X81023938Y-126329965D01*
X81183580Y-126121917D01*
X81314699Y-125894811D01*
X81320972Y-125879668D01*
X81415050Y-125652542D01*
X81415054Y-125652533D01*
X81482926Y-125399230D01*
X81517156Y-125139234D01*
X81517156Y-124886087D01*
X89216156Y-124886087D01*
X89216156Y-125130140D01*
X89251269Y-125351836D01*
X89254335Y-125371190D01*
X89329752Y-125603299D01*
X89423640Y-125787566D01*
X89440552Y-125820756D01*
X89583995Y-126018190D01*
X89583999Y-126018195D01*
X89756574Y-126190770D01*
X89756579Y-126190774D01*
X89928792Y-126315893D01*
X89954017Y-126334220D01*
X90171471Y-126445018D01*
X90403580Y-126520435D01*
X90644629Y-126558614D01*
X90644630Y-126558614D01*
X90888682Y-126558614D01*
X90888683Y-126558614D01*
X91129732Y-126520435D01*
X91361841Y-126445018D01*
X91579295Y-126334220D01*
X91776739Y-126190769D01*
X91949311Y-126018197D01*
X92092762Y-125820753D01*
X92203560Y-125603299D01*
X92278977Y-125371190D01*
X92317156Y-125130141D01*
X92317156Y-124886087D01*
X92315715Y-124876986D01*
X100016156Y-124876986D01*
X100016156Y-125139241D01*
X100042779Y-125341453D01*
X100050386Y-125399230D01*
X100118258Y-125652532D01*
X100118261Y-125652542D01*
X100218609Y-125894804D01*
X100218614Y-125894814D01*
X100349731Y-126121917D01*
X100509374Y-126329965D01*
X100509382Y-126329974D01*
X100694796Y-126515388D01*
X100694804Y-126515395D01*
X100902852Y-126675038D01*
X101129955Y-126806155D01*
X101129965Y-126806160D01*
X101372227Y-126906508D01*
X101372237Y-126906512D01*
X101625540Y-126974384D01*
X101885536Y-127008614D01*
X101885543Y-127008614D01*
X102147769Y-127008614D01*
X102147776Y-127008614D01*
X102407772Y-126974384D01*
X102661075Y-126906512D01*
X102903353Y-126806157D01*
X103130459Y-126675038D01*
X103338507Y-126515396D01*
X103338511Y-126515391D01*
X103338516Y-126515388D01*
X103431541Y-126422363D01*
X110599500Y-126422363D01*
X110599500Y-127622381D01*
X110599501Y-127622398D01*
X110610000Y-127725176D01*
X110610001Y-127725179D01*
X110613406Y-127735453D01*
X110665186Y-127891714D01*
X110757288Y-128041036D01*
X110881344Y-128165092D01*
X111030666Y-128257194D01*
X111197203Y-128312379D01*
X111299991Y-128322880D01*
X112500008Y-128322879D01*
X112602797Y-128312379D01*
X112769334Y-128257194D01*
X112918656Y-128165092D01*
X113042712Y-128041036D01*
X113134814Y-127891714D01*
X113189999Y-127725177D01*
X113200500Y-127622389D01*
X113200499Y-126422372D01*
X113200073Y-126418206D01*
X113189999Y-126319583D01*
X113189998Y-126319580D01*
X113134814Y-126153046D01*
X113042712Y-126003724D01*
X112918656Y-125879668D01*
X112769334Y-125787566D01*
X112602797Y-125732381D01*
X112602795Y-125732380D01*
X112500010Y-125721880D01*
X111299998Y-125721880D01*
X111299981Y-125721881D01*
X111197203Y-125732380D01*
X111197200Y-125732381D01*
X111030668Y-125787565D01*
X111030663Y-125787567D01*
X110881342Y-125879669D01*
X110757289Y-126003722D01*
X110665187Y-126153043D01*
X110665186Y-126153046D01*
X110610001Y-126319583D01*
X110610001Y-126319584D01*
X110610000Y-126319584D01*
X110599500Y-126422363D01*
X103431541Y-126422363D01*
X103523930Y-126329974D01*
X103523933Y-126329969D01*
X103523938Y-126329965D01*
X103683580Y-126121917D01*
X103814699Y-125894811D01*
X103820972Y-125879668D01*
X103915050Y-125652542D01*
X103915054Y-125652533D01*
X103982926Y-125399230D01*
X104017156Y-125139234D01*
X104017156Y-124876994D01*
X103982926Y-124616998D01*
X103915054Y-124363695D01*
X103845375Y-124195475D01*
X103814702Y-124121423D01*
X103814697Y-124121413D01*
X103683580Y-123894310D01*
X103523937Y-123686262D01*
X103523930Y-123686254D01*
X103338516Y-123500840D01*
X103338507Y-123500832D01*
X103130459Y-123341189D01*
X102903356Y-123210072D01*
X102903346Y-123210067D01*
X102661084Y-123109719D01*
X102661077Y-123109717D01*
X102661075Y-123109716D01*
X102407772Y-123041844D01*
X102349995Y-123034237D01*
X102147783Y-123007614D01*
X102147776Y-123007614D01*
X101885536Y-123007614D01*
X101885528Y-123007614D01*
X101654428Y-123038040D01*
X101625540Y-123041844D01*
X101372237Y-123109716D01*
X101372227Y-123109719D01*
X101129965Y-123210067D01*
X101129955Y-123210072D01*
X100902852Y-123341189D01*
X100694804Y-123500832D01*
X100509374Y-123686262D01*
X100349731Y-123894310D01*
X100218614Y-124121413D01*
X100218609Y-124121423D01*
X100118261Y-124363685D01*
X100118258Y-124363695D01*
X100050386Y-124616999D01*
X100016156Y-124876986D01*
X92315715Y-124876986D01*
X92278977Y-124645038D01*
X92203560Y-124412929D01*
X92092762Y-124195475D01*
X92032041Y-124111899D01*
X91949316Y-123998037D01*
X91949312Y-123998032D01*
X91776737Y-123825457D01*
X91776732Y-123825453D01*
X91579298Y-123682010D01*
X91579297Y-123682009D01*
X91579295Y-123682008D01*
X91361841Y-123571210D01*
X91129732Y-123495793D01*
X91129730Y-123495792D01*
X91129728Y-123495792D01*
X90961425Y-123469135D01*
X90888683Y-123457614D01*
X90644629Y-123457614D01*
X90588749Y-123466464D01*
X90403583Y-123495792D01*
X90171468Y-123571211D01*
X89954013Y-123682010D01*
X89756579Y-123825453D01*
X89756574Y-123825457D01*
X89583999Y-123998032D01*
X89583995Y-123998037D01*
X89440552Y-124195471D01*
X89329753Y-124412926D01*
X89254334Y-124645041D01*
X89216156Y-124886087D01*
X81517156Y-124886087D01*
X81517156Y-124876994D01*
X81482926Y-124616998D01*
X81415054Y-124363695D01*
X81345375Y-124195475D01*
X81314702Y-124121423D01*
X81314697Y-124121413D01*
X81183580Y-123894310D01*
X81023937Y-123686262D01*
X81023930Y-123686254D01*
X80838516Y-123500840D01*
X80838507Y-123500832D01*
X80630459Y-123341189D01*
X80403356Y-123210072D01*
X80403346Y-123210067D01*
X80161084Y-123109719D01*
X80161077Y-123109717D01*
X80161075Y-123109716D01*
X79907772Y-123041844D01*
X79849995Y-123034237D01*
X79647783Y-123007614D01*
X79647776Y-123007614D01*
X79385536Y-123007614D01*
X79385528Y-123007614D01*
X79154428Y-123038040D01*
X79125540Y-123041844D01*
X78872237Y-123109716D01*
X78872227Y-123109719D01*
X78629965Y-123210067D01*
X78629955Y-123210072D01*
X78402852Y-123341189D01*
X78194804Y-123500832D01*
X78009374Y-123686262D01*
X77849731Y-123894310D01*
X77718614Y-124121413D01*
X77718609Y-124121423D01*
X77618261Y-124363685D01*
X77618258Y-124363695D01*
X77550386Y-124616999D01*
X77516156Y-124876986D01*
X74574983Y-124876986D01*
X74477859Y-124695279D01*
X74477858Y-124695277D01*
X74477853Y-124695268D01*
X74275854Y-124392956D01*
X74045197Y-124111899D01*
X74045196Y-124111898D01*
X74045192Y-124111893D01*
X73788106Y-123854807D01*
X73507049Y-123624150D01*
X73507048Y-123624149D01*
X73507044Y-123624146D01*
X73204732Y-123422147D01*
X73204727Y-123422144D01*
X73204720Y-123422140D01*
X72884083Y-123250756D01*
X72884078Y-123250754D01*
X72548165Y-123111614D01*
X72200223Y-123006067D01*
X72200212Y-123006064D01*
X71843630Y-122935137D01*
X71571111Y-122908296D01*
X71481794Y-122899500D01*
X71118206Y-122899500D01*
X71035679Y-122907628D01*
X70756369Y-122935137D01*
X70399787Y-123006064D01*
X70399776Y-123006067D01*
X70051834Y-123111614D01*
X69715921Y-123250754D01*
X69715916Y-123250756D01*
X69395279Y-123422140D01*
X69395261Y-123422151D01*
X69092964Y-123624140D01*
X69092950Y-123624150D01*
X68811893Y-123854807D01*
X68554807Y-124111893D01*
X68324150Y-124392950D01*
X68324140Y-124392964D01*
X68122151Y-124695261D01*
X68122140Y-124695279D01*
X67950756Y-125015916D01*
X67950754Y-125015921D01*
X67815717Y-125341930D01*
X67771876Y-125396333D01*
X67705582Y-125418398D01*
X67637882Y-125401119D01*
X67590272Y-125349981D01*
X67577156Y-125294477D01*
X67577156Y-119458097D01*
X105093777Y-119458097D01*
X105093777Y-120658115D01*
X105093778Y-120658132D01*
X105104277Y-120760910D01*
X105104278Y-120760913D01*
X105159462Y-120927445D01*
X105159463Y-120927448D01*
X105251565Y-121076770D01*
X105375621Y-121200826D01*
X105524943Y-121292928D01*
X105691480Y-121348113D01*
X105794268Y-121358614D01*
X106994285Y-121358613D01*
X107097074Y-121348113D01*
X107263611Y-121292928D01*
X107412933Y-121200826D01*
X107536989Y-121076770D01*
X107629091Y-120927448D01*
X107684276Y-120760911D01*
X107694777Y-120658123D01*
X107694776Y-119458106D01*
X107690553Y-119416770D01*
X107684276Y-119355317D01*
X107684275Y-119355314D01*
X107676707Y-119332475D01*
X107629091Y-119188780D01*
X107536989Y-119039458D01*
X107412933Y-118915402D01*
X107263611Y-118823300D01*
X107097074Y-118768115D01*
X107097072Y-118768114D01*
X106994287Y-118757614D01*
X105794275Y-118757614D01*
X105794258Y-118757615D01*
X105691480Y-118768114D01*
X105691477Y-118768115D01*
X105524945Y-118823299D01*
X105524940Y-118823301D01*
X105375619Y-118915403D01*
X105251566Y-119039456D01*
X105159464Y-119188777D01*
X105159463Y-119188780D01*
X105104278Y-119355317D01*
X105104278Y-119355318D01*
X105104277Y-119355318D01*
X105093777Y-119458097D01*
X67577156Y-119458097D01*
X67577156Y-118053627D01*
X70751156Y-118053627D01*
X70751156Y-118242600D01*
X70780715Y-118429232D01*
X70839110Y-118608950D01*
X70914859Y-118757614D01*
X70924896Y-118777313D01*
X71035966Y-118930187D01*
X71169583Y-119063804D01*
X71322457Y-119174874D01*
X71402003Y-119215404D01*
X71490819Y-119260659D01*
X71490821Y-119260659D01*
X71490824Y-119260661D01*
X71587153Y-119291960D01*
X71670537Y-119319054D01*
X71857170Y-119348614D01*
X71857175Y-119348614D01*
X72046142Y-119348614D01*
X72148039Y-119332475D01*
X72232774Y-119319054D01*
X72412488Y-119260661D01*
X72580855Y-119174874D01*
X72733729Y-119063804D01*
X72867346Y-118930187D01*
X72978416Y-118777313D01*
X73064203Y-118608946D01*
X73122596Y-118429232D01*
X73152156Y-118242600D01*
X73152156Y-118053627D01*
X73134959Y-117945054D01*
X73122596Y-117866996D01*
X73122595Y-117866992D01*
X73122595Y-117866991D01*
X73111637Y-117833266D01*
X73100210Y-117798097D01*
X143563777Y-117798097D01*
X143563777Y-118998115D01*
X143563778Y-118998132D01*
X143574277Y-119100910D01*
X143574278Y-119100913D01*
X143627213Y-119260659D01*
X143629463Y-119267448D01*
X143721565Y-119416770D01*
X143845621Y-119540826D01*
X143994943Y-119632928D01*
X144161480Y-119688113D01*
X144264268Y-119698614D01*
X145464285Y-119698613D01*
X145567074Y-119688113D01*
X145733611Y-119632928D01*
X145882933Y-119540826D01*
X146006989Y-119416770D01*
X146099091Y-119267448D01*
X146154276Y-119100911D01*
X146164777Y-118998123D01*
X146164776Y-117798106D01*
X146154276Y-117695317D01*
X146099091Y-117528780D01*
X146006989Y-117379458D01*
X145882933Y-117255402D01*
X145733611Y-117163300D01*
X145567074Y-117108115D01*
X145567072Y-117108114D01*
X145464287Y-117097614D01*
X144264275Y-117097614D01*
X144264258Y-117097615D01*
X144161480Y-117108114D01*
X144161477Y-117108115D01*
X143994945Y-117163299D01*
X143994940Y-117163301D01*
X143845619Y-117255403D01*
X143721566Y-117379456D01*
X143629464Y-117528777D01*
X143629463Y-117528780D01*
X143574278Y-117695317D01*
X143574278Y-117695318D01*
X143574277Y-117695318D01*
X143563777Y-117798097D01*
X73100210Y-117798097D01*
X73066814Y-117695318D01*
X73064203Y-117687282D01*
X73064201Y-117687279D01*
X73064201Y-117687277D01*
X72983442Y-117528780D01*
X72978416Y-117518915D01*
X72867346Y-117366041D01*
X72733729Y-117232424D01*
X72580855Y-117121354D01*
X72554870Y-117108114D01*
X72412492Y-117035568D01*
X72232774Y-116977173D01*
X72046142Y-116947614D01*
X72046137Y-116947614D01*
X71857175Y-116947614D01*
X71857170Y-116947614D01*
X71670537Y-116977173D01*
X71490819Y-117035568D01*
X71322456Y-117121354D01*
X71235235Y-117184724D01*
X71169583Y-117232424D01*
X71169581Y-117232426D01*
X71169580Y-117232426D01*
X71035968Y-117366038D01*
X71035968Y-117366039D01*
X71035966Y-117366041D01*
X71026218Y-117379458D01*
X70924896Y-117518914D01*
X70839110Y-117687277D01*
X70780715Y-117866995D01*
X70751156Y-118053627D01*
X67577156Y-118053627D01*
X67577156Y-115000600D01*
X79701156Y-115000600D01*
X79701156Y-115295627D01*
X79733227Y-115539227D01*
X79739663Y-115588107D01*
X79739664Y-115588109D01*
X79816017Y-115873065D01*
X79816020Y-115873075D01*
X79928910Y-116145614D01*
X79928914Y-116145624D01*
X80076417Y-116401107D01*
X80256008Y-116635154D01*
X80256014Y-116635161D01*
X80464608Y-116843755D01*
X80464615Y-116843761D01*
X80698662Y-117023352D01*
X80954145Y-117170855D01*
X80954146Y-117170855D01*
X80954149Y-117170857D01*
X81226704Y-117283753D01*
X81511663Y-117360107D01*
X81804150Y-117398614D01*
X81804157Y-117398614D01*
X82099155Y-117398614D01*
X82099162Y-117398614D01*
X82391649Y-117360107D01*
X82676608Y-117283753D01*
X82949163Y-117170857D01*
X83204650Y-117023352D01*
X83438698Y-116843760D01*
X83647302Y-116635156D01*
X83826894Y-116401108D01*
X83974399Y-116145621D01*
X84087295Y-115873066D01*
X84163649Y-115588107D01*
X84202156Y-115295620D01*
X84202156Y-115000608D01*
X84163649Y-114708121D01*
X84087295Y-114423162D01*
X83974399Y-114150607D01*
X83950785Y-114109707D01*
X83826894Y-113895120D01*
X83647303Y-113661073D01*
X83647297Y-113661066D01*
X83438703Y-113452472D01*
X83438696Y-113452466D01*
X83387849Y-113413450D01*
X83387847Y-113413449D01*
X83267565Y-113321153D01*
X129499500Y-113321153D01*
X129499500Y-113478846D01*
X129530261Y-113633489D01*
X129530264Y-113633501D01*
X129590602Y-113779172D01*
X129590609Y-113779185D01*
X129678210Y-113910288D01*
X129678213Y-113910292D01*
X129789707Y-114021786D01*
X129789711Y-114021789D01*
X129920814Y-114109390D01*
X129920818Y-114109392D01*
X129920821Y-114109394D01*
X130064138Y-114168757D01*
X130118537Y-114212595D01*
X130131243Y-114235864D01*
X130190602Y-114379172D01*
X130190609Y-114379185D01*
X130278210Y-114510288D01*
X130278213Y-114510292D01*
X130389707Y-114621786D01*
X130389711Y-114621789D01*
X130520814Y-114709390D01*
X130520827Y-114709397D01*
X130666503Y-114769737D01*
X130667347Y-114769993D01*
X130667734Y-114770246D01*
X130672131Y-114772068D01*
X130671785Y-114772902D01*
X130725784Y-114808293D01*
X130747494Y-114848051D01*
X130747932Y-114847870D01*
X130749615Y-114851935D01*
X130750004Y-114852646D01*
X130750260Y-114853492D01*
X130810602Y-114999172D01*
X130810609Y-114999185D01*
X130898210Y-115130288D01*
X130898213Y-115130292D01*
X131009707Y-115241786D01*
X131009711Y-115241789D01*
X131140814Y-115329390D01*
X131140827Y-115329397D01*
X131286498Y-115389735D01*
X131286503Y-115389737D01*
X131441153Y-115420499D01*
X131441156Y-115420500D01*
X131441158Y-115420500D01*
X131598844Y-115420500D01*
X131598845Y-115420499D01*
X131753497Y-115389737D01*
X131899179Y-115329394D01*
X132030289Y-115241789D01*
X132141789Y-115130289D01*
X132229394Y-114999179D01*
X132289737Y-114853497D01*
X132320500Y-114698842D01*
X132320500Y-114541158D01*
X132320500Y-114541155D01*
X132320499Y-114541153D01*
X132314360Y-114510289D01*
X132289737Y-114386503D01*
X132286703Y-114379179D01*
X132229397Y-114240827D01*
X132229390Y-114240814D01*
X132141789Y-114109711D01*
X132141786Y-114109707D01*
X132030292Y-113998213D01*
X132030288Y-113998210D01*
X131899185Y-113910609D01*
X131899172Y-113910602D01*
X131753492Y-113850260D01*
X131752646Y-113850004D01*
X131752257Y-113849749D01*
X131747870Y-113847932D01*
X131748214Y-113847099D01*
X131694211Y-113811701D01*
X131672506Y-113771949D01*
X131672068Y-113772131D01*
X131670380Y-113768055D01*
X131669993Y-113767347D01*
X131669737Y-113766503D01*
X131609397Y-113620827D01*
X131609390Y-113620814D01*
X131521789Y-113489711D01*
X131521786Y-113489707D01*
X131410292Y-113378213D01*
X131410288Y-113378210D01*
X131279185Y-113290609D01*
X131279172Y-113290602D01*
X131135864Y-113231243D01*
X131111970Y-113211988D01*
X131086764Y-113194487D01*
X131083568Y-113189100D01*
X131081460Y-113187402D01*
X131068761Y-113164147D01*
X131019910Y-113046209D01*
X131009397Y-113020826D01*
X131009390Y-113020814D01*
X130997906Y-113003627D01*
X141476156Y-113003627D01*
X141476156Y-113192600D01*
X141505715Y-113379232D01*
X141564110Y-113558950D01*
X141616145Y-113661073D01*
X141649896Y-113727313D01*
X141760966Y-113880187D01*
X141894583Y-114013804D01*
X142047457Y-114124874D01*
X142097961Y-114150607D01*
X142215819Y-114210659D01*
X142215821Y-114210659D01*
X142215824Y-114210661D01*
X142308625Y-114240814D01*
X142395537Y-114269054D01*
X142582170Y-114298614D01*
X142582175Y-114298614D01*
X142771142Y-114298614D01*
X142957774Y-114269054D01*
X143137488Y-114210661D01*
X143305855Y-114124874D01*
X143458729Y-114013804D01*
X143592346Y-113880187D01*
X143703416Y-113727313D01*
X143789203Y-113558946D01*
X143847596Y-113379232D01*
X143856795Y-113321153D01*
X143877156Y-113192600D01*
X143877156Y-113003627D01*
X143847596Y-112816995D01*
X143789201Y-112637277D01*
X143703415Y-112468914D01*
X143592346Y-112316041D01*
X143458729Y-112182424D01*
X143305855Y-112071354D01*
X143137492Y-111985568D01*
X142957774Y-111927173D01*
X142771142Y-111897614D01*
X142771137Y-111897614D01*
X142582175Y-111897614D01*
X142582170Y-111897614D01*
X142395537Y-111927173D01*
X142215819Y-111985568D01*
X142047456Y-112071354D01*
X141960235Y-112134724D01*
X141894583Y-112182424D01*
X141894581Y-112182426D01*
X141894580Y-112182426D01*
X141760968Y-112316038D01*
X141760968Y-112316039D01*
X141760966Y-112316041D01*
X141737301Y-112348613D01*
X141649896Y-112468914D01*
X141564110Y-112637277D01*
X141505715Y-112816995D01*
X141476156Y-113003627D01*
X130997906Y-113003627D01*
X130921789Y-112889711D01*
X130921786Y-112889707D01*
X130810292Y-112778213D01*
X130810288Y-112778210D01*
X130679185Y-112690609D01*
X130679172Y-112690602D01*
X130533501Y-112630264D01*
X130533489Y-112630261D01*
X130378845Y-112599500D01*
X130378842Y-112599500D01*
X130221158Y-112599500D01*
X130221155Y-112599500D01*
X130066510Y-112630261D01*
X130066498Y-112630264D01*
X129920827Y-112690602D01*
X129920814Y-112690609D01*
X129789711Y-112778210D01*
X129789707Y-112778213D01*
X129678213Y-112889707D01*
X129678210Y-112889711D01*
X129590609Y-113020814D01*
X129590602Y-113020827D01*
X129530264Y-113166498D01*
X129530261Y-113166510D01*
X129499500Y-113321153D01*
X83267565Y-113321153D01*
X83204650Y-113272876D01*
X83204645Y-113272872D01*
X82949166Y-113125372D01*
X82949156Y-113125368D01*
X82676617Y-113012478D01*
X82676610Y-113012476D01*
X82676608Y-113012475D01*
X82391649Y-112936121D01*
X82342769Y-112929685D01*
X82099169Y-112897614D01*
X82099162Y-112897614D01*
X81804150Y-112897614D01*
X81804142Y-112897614D01*
X81525741Y-112934267D01*
X81511663Y-112936121D01*
X81259703Y-113003633D01*
X81226704Y-113012475D01*
X81226694Y-113012478D01*
X80954155Y-113125368D01*
X80954145Y-113125372D01*
X80698662Y-113272875D01*
X80464615Y-113452466D01*
X80464608Y-113452472D01*
X80256014Y-113661066D01*
X80256008Y-113661073D01*
X80076417Y-113895120D01*
X79928914Y-114150603D01*
X79928910Y-114150613D01*
X79816020Y-114423152D01*
X79816017Y-114423162D01*
X79762796Y-114621789D01*
X79739664Y-114708118D01*
X79739662Y-114708129D01*
X79701156Y-115000600D01*
X67577156Y-115000600D01*
X67577156Y-109950600D01*
X135426156Y-109950600D01*
X135426156Y-110245627D01*
X135458227Y-110489227D01*
X135464663Y-110538107D01*
X135464664Y-110538109D01*
X135541017Y-110823065D01*
X135541020Y-110823075D01*
X135653910Y-111095614D01*
X135653914Y-111095624D01*
X135801417Y-111351107D01*
X135981008Y-111585154D01*
X135981014Y-111585161D01*
X136189608Y-111793755D01*
X136189615Y-111793761D01*
X136423662Y-111973352D01*
X136679145Y-112120855D01*
X136679146Y-112120855D01*
X136679149Y-112120857D01*
X136951704Y-112233753D01*
X137236663Y-112310107D01*
X137529150Y-112348614D01*
X137529157Y-112348614D01*
X137824155Y-112348614D01*
X137824162Y-112348614D01*
X138116649Y-112310107D01*
X138401608Y-112233753D01*
X138674163Y-112120857D01*
X138929650Y-111973352D01*
X139163698Y-111793760D01*
X139372302Y-111585156D01*
X139551894Y-111351108D01*
X139699399Y-111095621D01*
X139812295Y-110823066D01*
X139888649Y-110538107D01*
X139927156Y-110245620D01*
X139927156Y-109950608D01*
X139888649Y-109658121D01*
X139812295Y-109373162D01*
X139699399Y-109100607D01*
X139551894Y-108845120D01*
X139372302Y-108611072D01*
X139372297Y-108611066D01*
X139163703Y-108402472D01*
X139163696Y-108402466D01*
X138929649Y-108222875D01*
X138674166Y-108075372D01*
X138674156Y-108075368D01*
X138401617Y-107962478D01*
X138401610Y-107962476D01*
X138401608Y-107962475D01*
X138116649Y-107886121D01*
X138067769Y-107879685D01*
X137824169Y-107847614D01*
X137824162Y-107847614D01*
X137529150Y-107847614D01*
X137529142Y-107847614D01*
X137250741Y-107884267D01*
X137236663Y-107886121D01*
X137072202Y-107930188D01*
X136951704Y-107962475D01*
X136951694Y-107962478D01*
X136679155Y-108075368D01*
X136679145Y-108075372D01*
X136423662Y-108222875D01*
X136189615Y-108402466D01*
X136189608Y-108402472D01*
X135981014Y-108611066D01*
X135981008Y-108611073D01*
X135801417Y-108845120D01*
X135653914Y-109100603D01*
X135653910Y-109100613D01*
X135541020Y-109373152D01*
X135541017Y-109373162D01*
X135464664Y-109658118D01*
X135464662Y-109658129D01*
X135426156Y-109950600D01*
X67577156Y-109950600D01*
X67577156Y-107053627D01*
X70751156Y-107053627D01*
X70751156Y-107242600D01*
X70780715Y-107429232D01*
X70839110Y-107608950D01*
X70924896Y-107777313D01*
X71035966Y-107930187D01*
X71169583Y-108063804D01*
X71322457Y-108174874D01*
X71402003Y-108215404D01*
X71490819Y-108260659D01*
X71490821Y-108260659D01*
X71490824Y-108260661D01*
X71587153Y-108291960D01*
X71670537Y-108319054D01*
X71857170Y-108348614D01*
X71857175Y-108348614D01*
X72046142Y-108348614D01*
X72232774Y-108319054D01*
X72412488Y-108260661D01*
X72580855Y-108174874D01*
X72733729Y-108063804D01*
X72867346Y-107930187D01*
X72978416Y-107777313D01*
X73064203Y-107608946D01*
X73122596Y-107429232D01*
X73152156Y-107242600D01*
X73152156Y-107053627D01*
X73122596Y-106866995D01*
X73064201Y-106687277D01*
X72978415Y-106518914D01*
X72867346Y-106366041D01*
X72733729Y-106232424D01*
X72580855Y-106121354D01*
X72412492Y-106035568D01*
X72232774Y-105977173D01*
X72046142Y-105947614D01*
X72046137Y-105947614D01*
X71857175Y-105947614D01*
X71857170Y-105947614D01*
X71670537Y-105977173D01*
X71490819Y-106035568D01*
X71322456Y-106121354D01*
X71235235Y-106184724D01*
X71169583Y-106232424D01*
X71169581Y-106232426D01*
X71169580Y-106232426D01*
X71035968Y-106366038D01*
X71035968Y-106366039D01*
X71035966Y-106366041D01*
X70988266Y-106431693D01*
X70924896Y-106518914D01*
X70839110Y-106687277D01*
X70780715Y-106866995D01*
X70751156Y-107053627D01*
X67577156Y-107053627D01*
X67577156Y-101863627D01*
X75606156Y-101863627D01*
X75606156Y-102052600D01*
X75635715Y-102239232D01*
X75694110Y-102418950D01*
X75765442Y-102558946D01*
X75779896Y-102587313D01*
X75890966Y-102740187D01*
X76024583Y-102873804D01*
X76177457Y-102984874D01*
X76234230Y-103013801D01*
X76345819Y-103070659D01*
X76345821Y-103070659D01*
X76345824Y-103070661D01*
X76442153Y-103101960D01*
X76525537Y-103129054D01*
X76712170Y-103158614D01*
X76712175Y-103158614D01*
X76901142Y-103158614D01*
X77087774Y-103129054D01*
X77267488Y-103070661D01*
X77435855Y-102984874D01*
X77588729Y-102873804D01*
X77722346Y-102740187D01*
X77833416Y-102587313D01*
X77919203Y-102418946D01*
X77977596Y-102239232D01*
X77984982Y-102192600D01*
X78007156Y-102052600D01*
X78007156Y-102003627D01*
X141476156Y-102003627D01*
X141476156Y-102192600D01*
X141505715Y-102379232D01*
X141564110Y-102558950D01*
X141649896Y-102727313D01*
X141760966Y-102880187D01*
X141894583Y-103013804D01*
X142047457Y-103124874D01*
X142113676Y-103158614D01*
X142215819Y-103210659D01*
X142215821Y-103210659D01*
X142215824Y-103210661D01*
X142312153Y-103241960D01*
X142395537Y-103269054D01*
X142582170Y-103298614D01*
X142582175Y-103298614D01*
X142771142Y-103298614D01*
X142957774Y-103269054D01*
X143137488Y-103210661D01*
X143305855Y-103124874D01*
X143458729Y-103013804D01*
X143592346Y-102880187D01*
X143703416Y-102727313D01*
X143789203Y-102558946D01*
X143847596Y-102379232D01*
X143869770Y-102239232D01*
X143877156Y-102192600D01*
X143877156Y-102003627D01*
X143847596Y-101816995D01*
X143802107Y-101676996D01*
X143789203Y-101637282D01*
X143789201Y-101637279D01*
X143789201Y-101637277D01*
X143743946Y-101548461D01*
X143703416Y-101468915D01*
X143592346Y-101316041D01*
X143458729Y-101182424D01*
X143305855Y-101071354D01*
X143137492Y-100985568D01*
X142957774Y-100927173D01*
X142771142Y-100897614D01*
X142771137Y-100897614D01*
X142582175Y-100897614D01*
X142582170Y-100897614D01*
X142395537Y-100927173D01*
X142215819Y-100985568D01*
X142047456Y-101071354D01*
X141960235Y-101134724D01*
X141894583Y-101182424D01*
X141894581Y-101182426D01*
X141894580Y-101182426D01*
X141760968Y-101316038D01*
X141760968Y-101316039D01*
X141760966Y-101316041D01*
X141713266Y-101381693D01*
X141649896Y-101468914D01*
X141564110Y-101637277D01*
X141505715Y-101816995D01*
X141476156Y-102003627D01*
X78007156Y-102003627D01*
X78007156Y-101863627D01*
X77977596Y-101676995D01*
X77950502Y-101593611D01*
X77919203Y-101497282D01*
X77919201Y-101497279D01*
X77919201Y-101497277D01*
X77846356Y-101354311D01*
X77833416Y-101328915D01*
X77722346Y-101176041D01*
X77588729Y-101042424D01*
X77435855Y-100931354D01*
X77427649Y-100927173D01*
X77267492Y-100845568D01*
X77087774Y-100787173D01*
X76901142Y-100757614D01*
X76901137Y-100757614D01*
X76712175Y-100757614D01*
X76712170Y-100757614D01*
X76525537Y-100787173D01*
X76345819Y-100845568D01*
X76177456Y-100931354D01*
X76102838Y-100985568D01*
X76024583Y-101042424D01*
X76024581Y-101042426D01*
X76024580Y-101042426D01*
X75890968Y-101176038D01*
X75890968Y-101176039D01*
X75890966Y-101176041D01*
X75843266Y-101241693D01*
X75779896Y-101328914D01*
X75694110Y-101497277D01*
X75635715Y-101676995D01*
X75606156Y-101863627D01*
X67577156Y-101863627D01*
X67577156Y-93810600D01*
X79556156Y-93810600D01*
X79556156Y-94105627D01*
X79580865Y-94293300D01*
X79594663Y-94398107D01*
X79654861Y-94622771D01*
X79671017Y-94683065D01*
X79671020Y-94683075D01*
X79783910Y-94955614D01*
X79783914Y-94955624D01*
X79931417Y-95211107D01*
X80111008Y-95445154D01*
X80111014Y-95445161D01*
X80319608Y-95653755D01*
X80319615Y-95653761D01*
X80553662Y-95833352D01*
X80809145Y-95980855D01*
X80809146Y-95980855D01*
X80809149Y-95980857D01*
X81081704Y-96093753D01*
X81366663Y-96170107D01*
X81659150Y-96208614D01*
X81659157Y-96208614D01*
X81954155Y-96208614D01*
X81954162Y-96208614D01*
X82246649Y-96170107D01*
X82531608Y-96093753D01*
X82804163Y-95980857D01*
X83059650Y-95833352D01*
X83293698Y-95653760D01*
X83502302Y-95445156D01*
X83681894Y-95211108D01*
X83829399Y-94955621D01*
X83840800Y-94928097D01*
X87016156Y-94928097D01*
X87016156Y-96128115D01*
X87016157Y-96128132D01*
X87026656Y-96230910D01*
X87026657Y-96230913D01*
X87081841Y-96397445D01*
X87081842Y-96397448D01*
X87173944Y-96546770D01*
X87298000Y-96670826D01*
X87447322Y-96762928D01*
X87613859Y-96818113D01*
X87716647Y-96828614D01*
X88916664Y-96828613D01*
X89019453Y-96818113D01*
X89185990Y-96762928D01*
X89335312Y-96670826D01*
X89459368Y-96546770D01*
X89551470Y-96397448D01*
X89606655Y-96230911D01*
X89617156Y-96128123D01*
X89617155Y-94928106D01*
X89606655Y-94825317D01*
X89551470Y-94658780D01*
X89459368Y-94509458D01*
X89335312Y-94385402D01*
X89185990Y-94293300D01*
X89019453Y-94238115D01*
X89019451Y-94238114D01*
X88916666Y-94227614D01*
X87716654Y-94227614D01*
X87716637Y-94227615D01*
X87613859Y-94238114D01*
X87613856Y-94238115D01*
X87447324Y-94293299D01*
X87447319Y-94293301D01*
X87297998Y-94385403D01*
X87173945Y-94509456D01*
X87081843Y-94658777D01*
X87081841Y-94658782D01*
X87054005Y-94742784D01*
X87026657Y-94825317D01*
X87026657Y-94825318D01*
X87026656Y-94825318D01*
X87016156Y-94928097D01*
X83840800Y-94928097D01*
X83942295Y-94683066D01*
X84018649Y-94398107D01*
X84057156Y-94105620D01*
X84057156Y-93810608D01*
X84018649Y-93518121D01*
X83942295Y-93233162D01*
X83934415Y-93214139D01*
X83893799Y-93116082D01*
X83829399Y-92960607D01*
X83784564Y-92882951D01*
X83681894Y-92705120D01*
X83502303Y-92471073D01*
X83502297Y-92471066D01*
X83293703Y-92262472D01*
X83293696Y-92262466D01*
X83059649Y-92082875D01*
X82804166Y-91935372D01*
X82804156Y-91935368D01*
X82531617Y-91822478D01*
X82531610Y-91822476D01*
X82531608Y-91822475D01*
X82246649Y-91746121D01*
X82197769Y-91739685D01*
X81954169Y-91707614D01*
X81954162Y-91707614D01*
X81659150Y-91707614D01*
X81659142Y-91707614D01*
X81380741Y-91744267D01*
X81366663Y-91746121D01*
X81085044Y-91821580D01*
X81081704Y-91822475D01*
X81081694Y-91822478D01*
X80809155Y-91935368D01*
X80809145Y-91935372D01*
X80553662Y-92082875D01*
X80319615Y-92262466D01*
X80319608Y-92262472D01*
X80111014Y-92471066D01*
X80111008Y-92471073D01*
X79931417Y-92705120D01*
X79783914Y-92960603D01*
X79783910Y-92960613D01*
X79671020Y-93233152D01*
X79671017Y-93233162D01*
X79594815Y-93517556D01*
X79594664Y-93518118D01*
X79594662Y-93518129D01*
X79556156Y-93810600D01*
X67577156Y-93810600D01*
X67577156Y-90863627D01*
X75606156Y-90863627D01*
X75606156Y-91052600D01*
X75635715Y-91239232D01*
X75694110Y-91418950D01*
X75760629Y-91549500D01*
X75779896Y-91587313D01*
X75890966Y-91740187D01*
X76024583Y-91873804D01*
X76177457Y-91984874D01*
X76257003Y-92025404D01*
X76345819Y-92070659D01*
X76345821Y-92070659D01*
X76345824Y-92070661D01*
X76383415Y-92082875D01*
X76525537Y-92129054D01*
X76712170Y-92158614D01*
X76712175Y-92158614D01*
X76901142Y-92158614D01*
X77087774Y-92129054D01*
X77267488Y-92070661D01*
X77435855Y-91984874D01*
X77588729Y-91873804D01*
X77722346Y-91740187D01*
X77833416Y-91587313D01*
X77919203Y-91418946D01*
X77977596Y-91239232D01*
X78007156Y-91052600D01*
X78007156Y-90863627D01*
X77977596Y-90676995D01*
X77934596Y-90544656D01*
X77919203Y-90497282D01*
X77919201Y-90497279D01*
X77919201Y-90497277D01*
X77848997Y-90359495D01*
X77833416Y-90328915D01*
X77722346Y-90176041D01*
X77588729Y-90042424D01*
X77435855Y-89931354D01*
X77267492Y-89845568D01*
X77087774Y-89787173D01*
X76901142Y-89757614D01*
X76901137Y-89757614D01*
X76712175Y-89757614D01*
X76712170Y-89757614D01*
X76525537Y-89787173D01*
X76345819Y-89845568D01*
X76177456Y-89931354D01*
X76090235Y-89994724D01*
X76024583Y-90042424D01*
X76024581Y-90042426D01*
X76024580Y-90042426D01*
X75890968Y-90176038D01*
X75890968Y-90176039D01*
X75890966Y-90176041D01*
X75856842Y-90223008D01*
X75779896Y-90328914D01*
X75694110Y-90497277D01*
X75635715Y-90676995D01*
X75606156Y-90863627D01*
X67577156Y-90863627D01*
X67577156Y-89673920D01*
X87746155Y-89673920D01*
X87774996Y-89818907D01*
X87774999Y-89818917D01*
X87831568Y-89955488D01*
X87831575Y-89955501D01*
X87913704Y-90078415D01*
X87913707Y-90078419D01*
X88018236Y-90182948D01*
X88018240Y-90182951D01*
X88141154Y-90265080D01*
X88141167Y-90265087D01*
X88245786Y-90308421D01*
X88277743Y-90321658D01*
X88277747Y-90321658D01*
X88277748Y-90321659D01*
X88422735Y-90350500D01*
X88422738Y-90350500D01*
X88570576Y-90350500D01*
X88679086Y-90328915D01*
X88715569Y-90321658D01*
X88834479Y-90272404D01*
X88852144Y-90265087D01*
X88852144Y-90265086D01*
X88852151Y-90265084D01*
X88975072Y-90182951D01*
X89079607Y-90078416D01*
X89161740Y-89955495D01*
X89218314Y-89818913D01*
X89232205Y-89749079D01*
X89247156Y-89673920D01*
X89247156Y-89526079D01*
X89218315Y-89381092D01*
X89218314Y-89381091D01*
X89218314Y-89381087D01*
X89203194Y-89344584D01*
X89161743Y-89244511D01*
X89161736Y-89244498D01*
X89079607Y-89121584D01*
X89079604Y-89121580D01*
X88975075Y-89017051D01*
X88975071Y-89017048D01*
X88852157Y-88934919D01*
X88852144Y-88934912D01*
X88715573Y-88878343D01*
X88715563Y-88878340D01*
X88570576Y-88849500D01*
X88570574Y-88849500D01*
X88422738Y-88849500D01*
X88422736Y-88849500D01*
X88277748Y-88878340D01*
X88277738Y-88878343D01*
X88141167Y-88934912D01*
X88141154Y-88934919D01*
X88018240Y-89017048D01*
X88018236Y-89017051D01*
X87913707Y-89121580D01*
X87913704Y-89121584D01*
X87831575Y-89244498D01*
X87831568Y-89244511D01*
X87774999Y-89381082D01*
X87774996Y-89381092D01*
X87746156Y-89526079D01*
X87746156Y-89526082D01*
X87746156Y-89673918D01*
X87746156Y-89673920D01*
X87746155Y-89673920D01*
X67577156Y-89673920D01*
X67577156Y-85492034D01*
X83776445Y-85492034D01*
X83805286Y-85637021D01*
X83805289Y-85637031D01*
X83861858Y-85773602D01*
X83861865Y-85773615D01*
X83943994Y-85896529D01*
X83943997Y-85896533D01*
X84048526Y-86001062D01*
X84048530Y-86001065D01*
X84171444Y-86083194D01*
X84171457Y-86083201D01*
X84308028Y-86139770D01*
X84308033Y-86139772D01*
X84308037Y-86139772D01*
X84308038Y-86139773D01*
X84453025Y-86168614D01*
X84453028Y-86168614D01*
X84600866Y-86168614D01*
X84714358Y-86146038D01*
X84745859Y-86139772D01*
X84882441Y-86083198D01*
X85005362Y-86001065D01*
X85109897Y-85896530D01*
X85192030Y-85773609D01*
X85192137Y-85773352D01*
X85237013Y-85665010D01*
X85280853Y-85610606D01*
X85327383Y-85590845D01*
X85374397Y-85581492D01*
X85433497Y-85569737D01*
X85579179Y-85509394D01*
X85710289Y-85421789D01*
X85821789Y-85310289D01*
X85909394Y-85179179D01*
X85969737Y-85033497D01*
X86000500Y-84878842D01*
X86000500Y-84721158D01*
X86000500Y-84721155D01*
X86000499Y-84721153D01*
X85980307Y-84619641D01*
X85969737Y-84566503D01*
X85927531Y-84464607D01*
X85909397Y-84420827D01*
X85909390Y-84420814D01*
X85821789Y-84289711D01*
X85821786Y-84289707D01*
X85710292Y-84178213D01*
X85710288Y-84178210D01*
X85579185Y-84090609D01*
X85579172Y-84090602D01*
X85433501Y-84030264D01*
X85433489Y-84030261D01*
X85278845Y-83999500D01*
X85278842Y-83999500D01*
X85121158Y-83999500D01*
X85121155Y-83999500D01*
X84966510Y-84030261D01*
X84966498Y-84030264D01*
X84820827Y-84090602D01*
X84820814Y-84090609D01*
X84689711Y-84178210D01*
X84689707Y-84178213D01*
X84578213Y-84289707D01*
X84578210Y-84289711D01*
X84490609Y-84420814D01*
X84490602Y-84420827D01*
X84430264Y-84566498D01*
X84430262Y-84566506D01*
X84424547Y-84595235D01*
X84392160Y-84657146D01*
X84331443Y-84691718D01*
X84327123Y-84692658D01*
X84308037Y-84696454D01*
X84308030Y-84696456D01*
X84171457Y-84753026D01*
X84171444Y-84753033D01*
X84048530Y-84835162D01*
X84048526Y-84835165D01*
X83943997Y-84939694D01*
X83943994Y-84939698D01*
X83861865Y-85062612D01*
X83861858Y-85062625D01*
X83805289Y-85199196D01*
X83805286Y-85199206D01*
X83776446Y-85344193D01*
X83776446Y-85344196D01*
X83776446Y-85492032D01*
X83776446Y-85492034D01*
X83776445Y-85492034D01*
X67577156Y-85492034D01*
X67577156Y-83862222D01*
X73701156Y-83862222D01*
X73701156Y-83994006D01*
X73710871Y-84030263D01*
X73735264Y-84121301D01*
X73740394Y-84130186D01*
X73801156Y-84235428D01*
X73894342Y-84328614D01*
X74008470Y-84394506D01*
X74135764Y-84428614D01*
X74135766Y-84428614D01*
X74267546Y-84428614D01*
X74267548Y-84428614D01*
X74394842Y-84394506D01*
X74508970Y-84328614D01*
X74602156Y-84235428D01*
X74668048Y-84121300D01*
X74702156Y-83994006D01*
X74702156Y-83862222D01*
X74668048Y-83734928D01*
X74602156Y-83620800D01*
X74508970Y-83527614D01*
X74415970Y-83473920D01*
X74394843Y-83461722D01*
X74331195Y-83444668D01*
X74267548Y-83427614D01*
X74135764Y-83427614D01*
X74008468Y-83461722D01*
X73894342Y-83527614D01*
X73894339Y-83527616D01*
X73801158Y-83620797D01*
X73801156Y-83620800D01*
X73735264Y-83734926D01*
X73721129Y-83787681D01*
X73701156Y-83862222D01*
X67577156Y-83862222D01*
X67577156Y-81773920D01*
X77949499Y-81773920D01*
X77978340Y-81918907D01*
X77978343Y-81918917D01*
X78034912Y-82055488D01*
X78034919Y-82055501D01*
X78117048Y-82178415D01*
X78117051Y-82178419D01*
X78221580Y-82282948D01*
X78221584Y-82282951D01*
X78344498Y-82365080D01*
X78344511Y-82365087D01*
X78481082Y-82421656D01*
X78481087Y-82421658D01*
X78481091Y-82421658D01*
X78481092Y-82421659D01*
X78626079Y-82450500D01*
X78626082Y-82450500D01*
X78773920Y-82450500D01*
X78871462Y-82431096D01*
X78918913Y-82421658D01*
X79055495Y-82365084D01*
X79178416Y-82282951D01*
X79282951Y-82178416D01*
X79365084Y-82055495D01*
X79421658Y-81918913D01*
X79431096Y-81871462D01*
X79450500Y-81773920D01*
X79450500Y-81626079D01*
X79421659Y-81481092D01*
X79421658Y-81481091D01*
X79421658Y-81481087D01*
X79421104Y-81479749D01*
X79365087Y-81344511D01*
X79365080Y-81344498D01*
X79282951Y-81221584D01*
X79282948Y-81221580D01*
X79178419Y-81117051D01*
X79178415Y-81117048D01*
X79055501Y-81034919D01*
X79055488Y-81034912D01*
X78918917Y-80978343D01*
X78918907Y-80978340D01*
X78773920Y-80949500D01*
X78773918Y-80949500D01*
X78626082Y-80949500D01*
X78626080Y-80949500D01*
X78481092Y-80978340D01*
X78481082Y-80978343D01*
X78344511Y-81034912D01*
X78344498Y-81034919D01*
X78221584Y-81117048D01*
X78221580Y-81117051D01*
X78117051Y-81221580D01*
X78117048Y-81221584D01*
X78034919Y-81344498D01*
X78034912Y-81344511D01*
X77978343Y-81481082D01*
X77978340Y-81481092D01*
X77949500Y-81626079D01*
X77949500Y-81626082D01*
X77949500Y-81773918D01*
X77949500Y-81773920D01*
X77949499Y-81773920D01*
X67577156Y-81773920D01*
X67577156Y-80673920D01*
X72849499Y-80673920D01*
X72878340Y-80818907D01*
X72878343Y-80818917D01*
X72934912Y-80955488D01*
X72934917Y-80955497D01*
X73017048Y-81078415D01*
X73017051Y-81078419D01*
X73121580Y-81182948D01*
X73121584Y-81182951D01*
X73244498Y-81265080D01*
X73244511Y-81265087D01*
X73381082Y-81321656D01*
X73381087Y-81321658D01*
X73381091Y-81321658D01*
X73381092Y-81321659D01*
X73526079Y-81350500D01*
X73526082Y-81350500D01*
X73673920Y-81350500D01*
X73771462Y-81331096D01*
X73818913Y-81321658D01*
X73955495Y-81265084D01*
X74078416Y-81182951D01*
X74182951Y-81078416D01*
X74243810Y-80987334D01*
X74265083Y-80955497D01*
X74265087Y-80955488D01*
X74277902Y-80924547D01*
X74321658Y-80818913D01*
X74350500Y-80673918D01*
X74350500Y-80526082D01*
X74350500Y-80526079D01*
X74321659Y-80381092D01*
X74321658Y-80381091D01*
X74321658Y-80381087D01*
X74321656Y-80381082D01*
X74265087Y-80244511D01*
X74265080Y-80244498D01*
X74182951Y-80121584D01*
X74182948Y-80121580D01*
X74078419Y-80017051D01*
X74078415Y-80017048D01*
X73955501Y-79934919D01*
X73955488Y-79934912D01*
X73818917Y-79878343D01*
X73818907Y-79878340D01*
X73673920Y-79849500D01*
X73673918Y-79849500D01*
X73526082Y-79849500D01*
X73526080Y-79849500D01*
X73381092Y-79878340D01*
X73381082Y-79878343D01*
X73244511Y-79934912D01*
X73244498Y-79934919D01*
X73121584Y-80017048D01*
X73121580Y-80017051D01*
X73017051Y-80121580D01*
X73017048Y-80121584D01*
X72934919Y-80244498D01*
X72934912Y-80244511D01*
X72878343Y-80381082D01*
X72878340Y-80381092D01*
X72849500Y-80526079D01*
X72849500Y-80526082D01*
X72849500Y-80673918D01*
X72849500Y-80673920D01*
X72849499Y-80673920D01*
X67577156Y-80673920D01*
X67577156Y-78082222D01*
X73701156Y-78082222D01*
X73701156Y-78214005D01*
X73735264Y-78341301D01*
X73768210Y-78398364D01*
X73801156Y-78455428D01*
X73894342Y-78548614D01*
X74008470Y-78614506D01*
X74135764Y-78648614D01*
X74135766Y-78648614D01*
X74267546Y-78648614D01*
X74267548Y-78648614D01*
X74394842Y-78614506D01*
X74508970Y-78548614D01*
X74602156Y-78455428D01*
X74668048Y-78341300D01*
X74702156Y-78214006D01*
X74702156Y-78082222D01*
X74668048Y-77954928D01*
X74602156Y-77840800D01*
X74508970Y-77747614D01*
X74451906Y-77714668D01*
X74394843Y-77681722D01*
X74331195Y-77664668D01*
X74267548Y-77647614D01*
X74135764Y-77647614D01*
X74008468Y-77681722D01*
X73894342Y-77747614D01*
X73894339Y-77747616D01*
X73801158Y-77840797D01*
X73801156Y-77840800D01*
X73735264Y-77954926D01*
X73701156Y-78082222D01*
X67577156Y-78082222D01*
X67577156Y-73209993D01*
X67596841Y-73142954D01*
X67649645Y-73097199D01*
X67718803Y-73087255D01*
X67782359Y-73116280D01*
X67815715Y-73162538D01*
X67927409Y-73432190D01*
X67927410Y-73432192D01*
X67927412Y-73432197D01*
X68098796Y-73752834D01*
X68098807Y-73752852D01*
X68300796Y-74055149D01*
X68300806Y-74055163D01*
X68531463Y-74336220D01*
X68788549Y-74593306D01*
X68788554Y-74593310D01*
X68788555Y-74593311D01*
X69069612Y-74823968D01*
X69371924Y-75025967D01*
X69371933Y-75025972D01*
X69371935Y-75025973D01*
X69692572Y-75197357D01*
X69692574Y-75197357D01*
X69692580Y-75197361D01*
X70028492Y-75336500D01*
X70376423Y-75442044D01*
X70376429Y-75442045D01*
X70376432Y-75442046D01*
X70376443Y-75442049D01*
X70670303Y-75500500D01*
X70733025Y-75512976D01*
X71094862Y-75548614D01*
X71094865Y-75548614D01*
X71458447Y-75548614D01*
X71458450Y-75548614D01*
X71820287Y-75512976D01*
X71889701Y-75499168D01*
X72176868Y-75442049D01*
X72176879Y-75442046D01*
X72176879Y-75442045D01*
X72176889Y-75442044D01*
X72524820Y-75336500D01*
X72860732Y-75197361D01*
X73181388Y-75025967D01*
X73483700Y-74823968D01*
X73764757Y-74593311D01*
X74021853Y-74336215D01*
X74252510Y-74055158D01*
X74454509Y-73752846D01*
X74625903Y-73432190D01*
X74765042Y-73096278D01*
X74870586Y-72748347D01*
X74870588Y-72748337D01*
X74870591Y-72748326D01*
X74941518Y-72391744D01*
X74958505Y-72219274D01*
X74977156Y-72029908D01*
X74977156Y-71666320D01*
X74941518Y-71304483D01*
X74936093Y-71277209D01*
X74942320Y-71207618D01*
X74985183Y-71152441D01*
X75051073Y-71129196D01*
X75119070Y-71145264D01*
X75145391Y-71165337D01*
X77885324Y-73905271D01*
X77885327Y-73905274D01*
X77950192Y-73948615D01*
X77991866Y-73976461D01*
X77991872Y-73976464D01*
X77991873Y-73976465D01*
X78110256Y-74025501D01*
X78110260Y-74025501D01*
X78110261Y-74025502D01*
X78235928Y-74050500D01*
X78235931Y-74050500D01*
X84663077Y-74050500D01*
X84730116Y-74070185D01*
X84750758Y-74086819D01*
X87902288Y-77238349D01*
X87935773Y-77299672D01*
X87930789Y-77369364D01*
X87888917Y-77425297D01*
X87831884Y-77447443D01*
X87832057Y-77448311D01*
X87827122Y-77449292D01*
X87826761Y-77449433D01*
X87826078Y-77449500D01*
X87681092Y-77478340D01*
X87681082Y-77478343D01*
X87544511Y-77534912D01*
X87544498Y-77534919D01*
X87421584Y-77617048D01*
X87421580Y-77617051D01*
X87317051Y-77721580D01*
X87317048Y-77721584D01*
X87234919Y-77844498D01*
X87234912Y-77844511D01*
X87178343Y-77981082D01*
X87178340Y-77981092D01*
X87149500Y-78126079D01*
X87149500Y-78126082D01*
X87149500Y-78273918D01*
X87149500Y-78273920D01*
X87149499Y-78273920D01*
X87178340Y-78418907D01*
X87178343Y-78418917D01*
X87234912Y-78555488D01*
X87234919Y-78555501D01*
X87317048Y-78678415D01*
X87317051Y-78678419D01*
X87421580Y-78782948D01*
X87421584Y-78782951D01*
X87544498Y-78865080D01*
X87544511Y-78865087D01*
X87651974Y-78909599D01*
X87681087Y-78921658D01*
X87681091Y-78921658D01*
X87681092Y-78921659D01*
X87826079Y-78950500D01*
X87874500Y-78950500D01*
X87941539Y-78970185D01*
X87987294Y-79022989D01*
X87998500Y-79074500D01*
X87998500Y-79391657D01*
X88022535Y-79512490D01*
X88022540Y-79512507D01*
X88069685Y-79626326D01*
X88069687Y-79626329D01*
X88069688Y-79626332D01*
X88103915Y-79677555D01*
X88138142Y-79728779D01*
X88225267Y-79815904D01*
X88225270Y-79815906D01*
X88232554Y-79823190D01*
X90538181Y-82128817D01*
X90571666Y-82190140D01*
X90574500Y-82216498D01*
X90574500Y-92561610D01*
X90598535Y-92682444D01*
X90598537Y-92682452D01*
X90610604Y-92711584D01*
X90645688Y-92796286D01*
X90671226Y-92834505D01*
X90675570Y-92841006D01*
X90675571Y-92841008D01*
X90714141Y-92898733D01*
X90805586Y-92990178D01*
X90805608Y-92990198D01*
X92438181Y-94622771D01*
X92471666Y-94684094D01*
X92474500Y-94710452D01*
X92474500Y-99961611D01*
X92498535Y-100082444D01*
X92498540Y-100082461D01*
X92545685Y-100196281D01*
X92545690Y-100196290D01*
X92559965Y-100217654D01*
X92559971Y-100217661D01*
X92563896Y-100223535D01*
X92614142Y-100298733D01*
X92701267Y-100385858D01*
X92701270Y-100385860D01*
X92709232Y-100393822D01*
X93511016Y-101195606D01*
X93511045Y-101195637D01*
X93601263Y-101285855D01*
X93601267Y-101285858D01*
X93703707Y-101354307D01*
X93703713Y-101354310D01*
X93703714Y-101354311D01*
X93817548Y-101401463D01*
X93877971Y-101413481D01*
X93938393Y-101425500D01*
X93938394Y-101425500D01*
X107457650Y-101425500D01*
X107524689Y-101445185D01*
X107526541Y-101446398D01*
X107620821Y-101509394D01*
X107620823Y-101509395D01*
X107620827Y-101509397D01*
X107766498Y-101569735D01*
X107766503Y-101569737D01*
X107921153Y-101600499D01*
X107921156Y-101600500D01*
X107921158Y-101600500D01*
X108078844Y-101600500D01*
X108078845Y-101600499D01*
X108233497Y-101569737D01*
X108379179Y-101509394D01*
X108510289Y-101421789D01*
X108621789Y-101310289D01*
X108709394Y-101179179D01*
X108769737Y-101033497D01*
X108800500Y-100878842D01*
X108800500Y-100849500D01*
X108820185Y-100782461D01*
X108872989Y-100736706D01*
X108924500Y-100725500D01*
X109757650Y-100725500D01*
X109824689Y-100745185D01*
X109826541Y-100746398D01*
X109920821Y-100809394D01*
X109920823Y-100809395D01*
X109920827Y-100809397D01*
X110008153Y-100845568D01*
X110066503Y-100869737D01*
X110206649Y-100897614D01*
X110221153Y-100900499D01*
X110221156Y-100900500D01*
X110221158Y-100900500D01*
X110378844Y-100900500D01*
X110378845Y-100900499D01*
X110533497Y-100869737D01*
X110679179Y-100809394D01*
X110810289Y-100721789D01*
X110921789Y-100610289D01*
X111009394Y-100479179D01*
X111069737Y-100333497D01*
X111100500Y-100178842D01*
X111100500Y-100021158D01*
X111100500Y-100021155D01*
X111100499Y-100021153D01*
X111099060Y-100013920D01*
X120049499Y-100013920D01*
X120078340Y-100158907D01*
X120078343Y-100158917D01*
X120134912Y-100295488D01*
X120134919Y-100295501D01*
X120217048Y-100418415D01*
X120217051Y-100418419D01*
X120321580Y-100522948D01*
X120321584Y-100522951D01*
X120444498Y-100605080D01*
X120444511Y-100605087D01*
X120581082Y-100661656D01*
X120581087Y-100661658D01*
X120581091Y-100661658D01*
X120581092Y-100661659D01*
X120726079Y-100690500D01*
X120726082Y-100690500D01*
X120873920Y-100690500D01*
X120971462Y-100671096D01*
X121018913Y-100661658D01*
X121142929Y-100610289D01*
X121155488Y-100605087D01*
X121155488Y-100605086D01*
X121155495Y-100605084D01*
X121278416Y-100522951D01*
X121382951Y-100418416D01*
X121465084Y-100295495D01*
X121521658Y-100158913D01*
X121549060Y-100021158D01*
X121550500Y-100013920D01*
X121550500Y-99866079D01*
X121521659Y-99721092D01*
X121521658Y-99721091D01*
X121521658Y-99721087D01*
X121521545Y-99720814D01*
X121465087Y-99584511D01*
X121465080Y-99584498D01*
X121382951Y-99461584D01*
X121382948Y-99461580D01*
X121278419Y-99357051D01*
X121278415Y-99357048D01*
X121155501Y-99274919D01*
X121155488Y-99274912D01*
X121018917Y-99218343D01*
X121018907Y-99218340D01*
X120873920Y-99189500D01*
X120873918Y-99189500D01*
X120726082Y-99189500D01*
X120726080Y-99189500D01*
X120581092Y-99218340D01*
X120581082Y-99218343D01*
X120444511Y-99274912D01*
X120444498Y-99274919D01*
X120321584Y-99357048D01*
X120321580Y-99357051D01*
X120217051Y-99461580D01*
X120217048Y-99461584D01*
X120134919Y-99584498D01*
X120134912Y-99584511D01*
X120078343Y-99721082D01*
X120078340Y-99721092D01*
X120049500Y-99866079D01*
X120049500Y-99866082D01*
X120049500Y-100013918D01*
X120049500Y-100013920D01*
X120049499Y-100013920D01*
X111099060Y-100013920D01*
X111073254Y-99884181D01*
X111069738Y-99866508D01*
X111069737Y-99866507D01*
X111069737Y-99866503D01*
X111058094Y-99838393D01*
X111009397Y-99720827D01*
X111009390Y-99720814D01*
X110921789Y-99589711D01*
X110921786Y-99589707D01*
X110810292Y-99478213D01*
X110810288Y-99478210D01*
X110679185Y-99390609D01*
X110679172Y-99390602D01*
X110533501Y-99330264D01*
X110533489Y-99330261D01*
X110378845Y-99299500D01*
X110378842Y-99299500D01*
X110221158Y-99299500D01*
X110221155Y-99299500D01*
X110066510Y-99330261D01*
X110066498Y-99330264D01*
X109920827Y-99390602D01*
X109920815Y-99390609D01*
X109826541Y-99453602D01*
X109759864Y-99474480D01*
X109757650Y-99474500D01*
X95310452Y-99474500D01*
X95243413Y-99454815D01*
X95222771Y-99438181D01*
X94561819Y-98777229D01*
X94528334Y-98715906D01*
X94525500Y-98689548D01*
X94525500Y-97833627D01*
X141506156Y-97833627D01*
X141506156Y-98022600D01*
X141535715Y-98209232D01*
X141594110Y-98388950D01*
X141679896Y-98557313D01*
X141790966Y-98710187D01*
X141924583Y-98843804D01*
X142077457Y-98954874D01*
X142157003Y-98995404D01*
X142245819Y-99040659D01*
X142245821Y-99040659D01*
X142245824Y-99040661D01*
X142342153Y-99071960D01*
X142425537Y-99099054D01*
X142612170Y-99128614D01*
X142612175Y-99128614D01*
X142801142Y-99128614D01*
X142987774Y-99099054D01*
X143167488Y-99040661D01*
X143335855Y-98954874D01*
X143488729Y-98843804D01*
X143622346Y-98710187D01*
X143733416Y-98557313D01*
X143819203Y-98388946D01*
X143877596Y-98209232D01*
X143907156Y-98022600D01*
X143907156Y-97833627D01*
X143877596Y-97646995D01*
X143819201Y-97467277D01*
X143733415Y-97298914D01*
X143622346Y-97146041D01*
X143488729Y-97012424D01*
X143335855Y-96901354D01*
X143167492Y-96815568D01*
X142987774Y-96757173D01*
X142801142Y-96727614D01*
X142801137Y-96727614D01*
X142612175Y-96727614D01*
X142612170Y-96727614D01*
X142425537Y-96757173D01*
X142245819Y-96815568D01*
X142077456Y-96901354D01*
X141990235Y-96964724D01*
X141924583Y-97012424D01*
X141924581Y-97012426D01*
X141924580Y-97012426D01*
X141790968Y-97146038D01*
X141790968Y-97146039D01*
X141790966Y-97146041D01*
X141767301Y-97178613D01*
X141679896Y-97298914D01*
X141594110Y-97467277D01*
X141535715Y-97646995D01*
X141506156Y-97833627D01*
X94525500Y-97833627D01*
X94525500Y-94780600D01*
X135456156Y-94780600D01*
X135456156Y-95075627D01*
X135473993Y-95211107D01*
X135494663Y-95368107D01*
X135571017Y-95653065D01*
X135571020Y-95653075D01*
X135683910Y-95925614D01*
X135683914Y-95925624D01*
X135831417Y-96181107D01*
X136011008Y-96415154D01*
X136011014Y-96415161D01*
X136219608Y-96623755D01*
X136219615Y-96623761D01*
X136453662Y-96803352D01*
X136709145Y-96950855D01*
X136709146Y-96950855D01*
X136709149Y-96950857D01*
X136981704Y-97063753D01*
X137266663Y-97140107D01*
X137559150Y-97178614D01*
X137559157Y-97178614D01*
X137854155Y-97178614D01*
X137854162Y-97178614D01*
X138146649Y-97140107D01*
X138431608Y-97063753D01*
X138704163Y-96950857D01*
X138959650Y-96803352D01*
X139193698Y-96623760D01*
X139402302Y-96415156D01*
X139581894Y-96181108D01*
X139729399Y-95925621D01*
X139842295Y-95653066D01*
X139918649Y-95368107D01*
X139957156Y-95075620D01*
X139957156Y-94780608D01*
X139918649Y-94488121D01*
X139842295Y-94203162D01*
X139729399Y-93930607D01*
X139718459Y-93911659D01*
X139581894Y-93675120D01*
X139402303Y-93441073D01*
X139402297Y-93441066D01*
X139193703Y-93232472D01*
X139193696Y-93232466D01*
X138959649Y-93052875D01*
X138704166Y-92905372D01*
X138704156Y-92905368D01*
X138431617Y-92792478D01*
X138431610Y-92792476D01*
X138431608Y-92792475D01*
X138146649Y-92716121D01*
X138081562Y-92707552D01*
X137854169Y-92677614D01*
X137854162Y-92677614D01*
X137559150Y-92677614D01*
X137559142Y-92677614D01*
X137280741Y-92714267D01*
X137266663Y-92716121D01*
X137059686Y-92771580D01*
X136981704Y-92792475D01*
X136981694Y-92792478D01*
X136709155Y-92905368D01*
X136709145Y-92905372D01*
X136453662Y-93052875D01*
X136219615Y-93232466D01*
X136219608Y-93232472D01*
X136011014Y-93441066D01*
X136011008Y-93441073D01*
X135831417Y-93675120D01*
X135683914Y-93930603D01*
X135683910Y-93930613D01*
X135571020Y-94203152D01*
X135571017Y-94203162D01*
X135518782Y-94398109D01*
X135494664Y-94488118D01*
X135494662Y-94488129D01*
X135456156Y-94780600D01*
X94525500Y-94780600D01*
X94525500Y-93638393D01*
X94525499Y-93638389D01*
X94507023Y-93545501D01*
X94501463Y-93517548D01*
X94481318Y-93468913D01*
X94454312Y-93403714D01*
X94420084Y-93352490D01*
X94385858Y-93301267D01*
X94385856Y-93301264D01*
X94348512Y-93263920D01*
X102009499Y-93263920D01*
X102038340Y-93408907D01*
X102038343Y-93408917D01*
X102094912Y-93545488D01*
X102094919Y-93545501D01*
X102177048Y-93668415D01*
X102177051Y-93668419D01*
X102281580Y-93772948D01*
X102281584Y-93772951D01*
X102404498Y-93855080D01*
X102404511Y-93855087D01*
X102541082Y-93911656D01*
X102541087Y-93911658D01*
X102541091Y-93911658D01*
X102541092Y-93911659D01*
X102686079Y-93940500D01*
X102686082Y-93940500D01*
X102833920Y-93940500D01*
X102931462Y-93921096D01*
X102978913Y-93911658D01*
X103115495Y-93855084D01*
X103238416Y-93772951D01*
X103342951Y-93668416D01*
X103425084Y-93545495D01*
X103481658Y-93408913D01*
X103498565Y-93323920D01*
X124799499Y-93323920D01*
X124828340Y-93468907D01*
X124828342Y-93468913D01*
X124884912Y-93605488D01*
X124884919Y-93605501D01*
X124967048Y-93728415D01*
X124967051Y-93728419D01*
X125071580Y-93832948D01*
X125071584Y-93832951D01*
X125194498Y-93915080D01*
X125194511Y-93915087D01*
X125331082Y-93971656D01*
X125331087Y-93971658D01*
X125331091Y-93971658D01*
X125331092Y-93971659D01*
X125476079Y-94000500D01*
X125476082Y-94000500D01*
X125623920Y-94000500D01*
X125721462Y-93981096D01*
X125768913Y-93971658D01*
X125905495Y-93915084D01*
X126028416Y-93832951D01*
X126132951Y-93728416D01*
X126215084Y-93605495D01*
X126271658Y-93468913D01*
X126300500Y-93323918D01*
X126300500Y-93176082D01*
X126300500Y-93176079D01*
X126299903Y-93170017D01*
X126302375Y-93169773D01*
X126307625Y-93111040D01*
X126350482Y-93055858D01*
X126416369Y-93032606D01*
X126447208Y-93034810D01*
X126506420Y-93046588D01*
X126526081Y-93050500D01*
X126526082Y-93050500D01*
X126673920Y-93050500D01*
X126771537Y-93031082D01*
X126818913Y-93021658D01*
X126924547Y-92977902D01*
X126955488Y-92965087D01*
X126955488Y-92965086D01*
X126955495Y-92965084D01*
X127078416Y-92882951D01*
X127182951Y-92778416D01*
X127265084Y-92655495D01*
X127321658Y-92518913D01*
X127337550Y-92439021D01*
X127350500Y-92373920D01*
X127350500Y-92226079D01*
X127321659Y-92081092D01*
X127321658Y-92081091D01*
X127321658Y-92081087D01*
X127321656Y-92081082D01*
X127265087Y-91944511D01*
X127265080Y-91944498D01*
X127182951Y-91821584D01*
X127182948Y-91821580D01*
X127078419Y-91717051D01*
X127078415Y-91717048D01*
X126955501Y-91634919D01*
X126955488Y-91634912D01*
X126818917Y-91578343D01*
X126818907Y-91578340D01*
X126673920Y-91549500D01*
X126673918Y-91549500D01*
X126526082Y-91549500D01*
X126526080Y-91549500D01*
X126381092Y-91578340D01*
X126381082Y-91578343D01*
X126244511Y-91634912D01*
X126244498Y-91634919D01*
X126121584Y-91717048D01*
X126121580Y-91717051D01*
X126017051Y-91821580D01*
X126017048Y-91821584D01*
X125934919Y-91944498D01*
X125934912Y-91944511D01*
X125878343Y-92081082D01*
X125878340Y-92081092D01*
X125849500Y-92226079D01*
X125849500Y-92373920D01*
X125850097Y-92379983D01*
X125847636Y-92380225D01*
X125842349Y-92439021D01*
X125799463Y-92494180D01*
X125733563Y-92517396D01*
X125702787Y-92515188D01*
X125623920Y-92499500D01*
X125623918Y-92499500D01*
X125476082Y-92499500D01*
X125476080Y-92499500D01*
X125331092Y-92528340D01*
X125331082Y-92528343D01*
X125194511Y-92584912D01*
X125194498Y-92584919D01*
X125071584Y-92667048D01*
X125071580Y-92667051D01*
X124967051Y-92771580D01*
X124967048Y-92771584D01*
X124884919Y-92894498D01*
X124884912Y-92894511D01*
X124828343Y-93031082D01*
X124828340Y-93031092D01*
X124799500Y-93176079D01*
X124799500Y-93176082D01*
X124799500Y-93323918D01*
X124799500Y-93323920D01*
X124799499Y-93323920D01*
X103498565Y-93323920D01*
X103510500Y-93263918D01*
X103510500Y-93116082D01*
X103510500Y-93116079D01*
X103481659Y-92971092D01*
X103481658Y-92971091D01*
X103481658Y-92971087D01*
X103479173Y-92965087D01*
X103425087Y-92834511D01*
X103425080Y-92834498D01*
X103342951Y-92711584D01*
X103342948Y-92711580D01*
X103238419Y-92607051D01*
X103238415Y-92607048D01*
X103115501Y-92524919D01*
X103115488Y-92524912D01*
X102978917Y-92468343D01*
X102978907Y-92468340D01*
X102833920Y-92439500D01*
X102833918Y-92439500D01*
X102686082Y-92439500D01*
X102686080Y-92439500D01*
X102541092Y-92468340D01*
X102541082Y-92468343D01*
X102404511Y-92524912D01*
X102404498Y-92524919D01*
X102281584Y-92607048D01*
X102281580Y-92607051D01*
X102177051Y-92711580D01*
X102177048Y-92711584D01*
X102094919Y-92834498D01*
X102094912Y-92834511D01*
X102038343Y-92971082D01*
X102038340Y-92971092D01*
X102009500Y-93116079D01*
X102009500Y-93116082D01*
X102009500Y-93263918D01*
X102009500Y-93263920D01*
X102009499Y-93263920D01*
X94348512Y-93263920D01*
X94295637Y-93211045D01*
X94295606Y-93211016D01*
X92561819Y-91477229D01*
X92528334Y-91415906D01*
X92525500Y-91389548D01*
X92525500Y-90773920D01*
X95251155Y-90773920D01*
X95279996Y-90918907D01*
X95279999Y-90918917D01*
X95336568Y-91055488D01*
X95336575Y-91055501D01*
X95418704Y-91178415D01*
X95418707Y-91178419D01*
X95523236Y-91282948D01*
X95523240Y-91282951D01*
X95646154Y-91365080D01*
X95646167Y-91365087D01*
X95776205Y-91418950D01*
X95782743Y-91421658D01*
X95782747Y-91421658D01*
X95782748Y-91421659D01*
X95927735Y-91450500D01*
X95927738Y-91450500D01*
X96075576Y-91450500D01*
X96173118Y-91431096D01*
X96220569Y-91421658D01*
X96357151Y-91365084D01*
X96480072Y-91282951D01*
X96584607Y-91178416D01*
X96584609Y-91178412D01*
X96588471Y-91173708D01*
X96589876Y-91174861D01*
X96636924Y-91135529D01*
X96706247Y-91126809D01*
X96769280Y-91156953D01*
X96800994Y-91201763D01*
X96830412Y-91272786D01*
X96830417Y-91272795D01*
X96912546Y-91395709D01*
X96912549Y-91395713D01*
X97017078Y-91500242D01*
X97017082Y-91500245D01*
X97139996Y-91582374D01*
X97140009Y-91582381D01*
X97266841Y-91634916D01*
X97276585Y-91638952D01*
X97276589Y-91638952D01*
X97276590Y-91638953D01*
X97421577Y-91667794D01*
X97421580Y-91667794D01*
X97569418Y-91667794D01*
X97666960Y-91648390D01*
X97714411Y-91638952D01*
X97850993Y-91582378D01*
X97973914Y-91500245D01*
X98078449Y-91395710D01*
X98160582Y-91272789D01*
X98217156Y-91136207D01*
X98233211Y-91055495D01*
X98245998Y-90991214D01*
X98245998Y-90843373D01*
X98217157Y-90698386D01*
X98217156Y-90698385D01*
X98217156Y-90698381D01*
X98198081Y-90652330D01*
X98160585Y-90561805D01*
X98160578Y-90561792D01*
X98078449Y-90438878D01*
X98078446Y-90438874D01*
X97973917Y-90334345D01*
X97973913Y-90334342D01*
X97850999Y-90252213D01*
X97850986Y-90252206D01*
X97714415Y-90195637D01*
X97714405Y-90195634D01*
X97569418Y-90166794D01*
X97569416Y-90166794D01*
X97421580Y-90166794D01*
X97421578Y-90166794D01*
X97276590Y-90195634D01*
X97276580Y-90195637D01*
X97140009Y-90252206D01*
X97139996Y-90252213D01*
X97017082Y-90334342D01*
X97017078Y-90334345D01*
X96912549Y-90438874D01*
X96908683Y-90443586D01*
X96907284Y-90442438D01*
X96860188Y-90481783D01*
X96790861Y-90490476D01*
X96727839Y-90460309D01*
X96696159Y-90415529D01*
X96666743Y-90344510D01*
X96666736Y-90344498D01*
X96584607Y-90221584D01*
X96584604Y-90221580D01*
X96480075Y-90117051D01*
X96480071Y-90117048D01*
X96357157Y-90034919D01*
X96357144Y-90034912D01*
X96220573Y-89978343D01*
X96220563Y-89978340D01*
X96075576Y-89949500D01*
X96075574Y-89949500D01*
X95927738Y-89949500D01*
X95927736Y-89949500D01*
X95782748Y-89978340D01*
X95782738Y-89978343D01*
X95646167Y-90034912D01*
X95646154Y-90034919D01*
X95523240Y-90117048D01*
X95523236Y-90117051D01*
X95418707Y-90221580D01*
X95418704Y-90221584D01*
X95336575Y-90344498D01*
X95336568Y-90344511D01*
X95279999Y-90481082D01*
X95279996Y-90481092D01*
X95251156Y-90626079D01*
X95251156Y-90626082D01*
X95251156Y-90773918D01*
X95251156Y-90773920D01*
X95251155Y-90773920D01*
X92525500Y-90773920D01*
X92525500Y-89896920D01*
X100999499Y-89896920D01*
X101028340Y-90041907D01*
X101028343Y-90041917D01*
X101084912Y-90178488D01*
X101084919Y-90178501D01*
X101167048Y-90301415D01*
X101167051Y-90301419D01*
X101271580Y-90405948D01*
X101271584Y-90405951D01*
X101394498Y-90488080D01*
X101394511Y-90488087D01*
X101531082Y-90544656D01*
X101531087Y-90544658D01*
X101531091Y-90544658D01*
X101531092Y-90544659D01*
X101676079Y-90573500D01*
X101676082Y-90573500D01*
X101823920Y-90573500D01*
X101921462Y-90554096D01*
X101968913Y-90544658D01*
X102059024Y-90507333D01*
X126216086Y-90507333D01*
X126244927Y-90652320D01*
X126244930Y-90652330D01*
X126301499Y-90788901D01*
X126301506Y-90788914D01*
X126383635Y-90911828D01*
X126383638Y-90911832D01*
X126488167Y-91016361D01*
X126488171Y-91016364D01*
X126611085Y-91098493D01*
X126611098Y-91098500D01*
X126747669Y-91155069D01*
X126747674Y-91155071D01*
X126747678Y-91155071D01*
X126747679Y-91155072D01*
X126892666Y-91183913D01*
X126892669Y-91183913D01*
X127040507Y-91183913D01*
X127138049Y-91164509D01*
X127185500Y-91155071D01*
X127322082Y-91098497D01*
X127445003Y-91016364D01*
X127549538Y-90911829D01*
X127631671Y-90788908D01*
X127688245Y-90652326D01*
X127706251Y-90561805D01*
X127717087Y-90507333D01*
X127717087Y-90359492D01*
X127688246Y-90214505D01*
X127688245Y-90214504D01*
X127688245Y-90214500D01*
X127680431Y-90195636D01*
X127631674Y-90077924D01*
X127631667Y-90077911D01*
X127549538Y-89954997D01*
X127549535Y-89954993D01*
X127445006Y-89850464D01*
X127445002Y-89850461D01*
X127322088Y-89768332D01*
X127322075Y-89768325D01*
X127185504Y-89711756D01*
X127185494Y-89711753D01*
X127040507Y-89682913D01*
X127040505Y-89682913D01*
X126892669Y-89682913D01*
X126892667Y-89682913D01*
X126747679Y-89711753D01*
X126747669Y-89711756D01*
X126611098Y-89768325D01*
X126611085Y-89768332D01*
X126488171Y-89850461D01*
X126488167Y-89850464D01*
X126383638Y-89954993D01*
X126383635Y-89954997D01*
X126301506Y-90077911D01*
X126301499Y-90077924D01*
X126244930Y-90214495D01*
X126244927Y-90214505D01*
X126216087Y-90359492D01*
X126216087Y-90359495D01*
X126216087Y-90507331D01*
X126216087Y-90507333D01*
X126216086Y-90507333D01*
X102059024Y-90507333D01*
X102105495Y-90488084D01*
X102228416Y-90405951D01*
X102332951Y-90301416D01*
X102332952Y-90301413D01*
X102335081Y-90299285D01*
X102396404Y-90265799D01*
X102466096Y-90270783D01*
X102470176Y-90272388D01*
X102487537Y-90279579D01*
X102487541Y-90279579D01*
X102487542Y-90279580D01*
X102632529Y-90308421D01*
X102632532Y-90308421D01*
X102780370Y-90308421D01*
X102877912Y-90289017D01*
X102925363Y-90279579D01*
X102991438Y-90252210D01*
X103023712Y-90238842D01*
X103061938Y-90223008D01*
X103061938Y-90223007D01*
X103061945Y-90223005D01*
X103184866Y-90140872D01*
X103289401Y-90036337D01*
X103371534Y-89913416D01*
X103428108Y-89776834D01*
X103446791Y-89682913D01*
X103456950Y-89631841D01*
X103456950Y-89484000D01*
X103428109Y-89339013D01*
X103428108Y-89339012D01*
X103428108Y-89339008D01*
X103428106Y-89339003D01*
X103371537Y-89202432D01*
X103371530Y-89202419D01*
X103289401Y-89079505D01*
X103289398Y-89079501D01*
X103184869Y-88974972D01*
X103184865Y-88974969D01*
X103061951Y-88892840D01*
X103061938Y-88892833D01*
X102925367Y-88836264D01*
X102925357Y-88836261D01*
X102780370Y-88807421D01*
X102780368Y-88807421D01*
X102632532Y-88807421D01*
X102632530Y-88807421D01*
X102487542Y-88836261D01*
X102487532Y-88836264D01*
X102350961Y-88892833D01*
X102350948Y-88892840D01*
X102228034Y-88974969D01*
X102121366Y-89081637D01*
X102060043Y-89115121D01*
X101990351Y-89110137D01*
X101986258Y-89108526D01*
X101968913Y-89101342D01*
X101968909Y-89101341D01*
X101968906Y-89101340D01*
X101823920Y-89072500D01*
X101823918Y-89072500D01*
X101676082Y-89072500D01*
X101676080Y-89072500D01*
X101531092Y-89101340D01*
X101531082Y-89101343D01*
X101394511Y-89157912D01*
X101394498Y-89157919D01*
X101271584Y-89240048D01*
X101271580Y-89240051D01*
X101167051Y-89344580D01*
X101167048Y-89344584D01*
X101084919Y-89467498D01*
X101084912Y-89467511D01*
X101028343Y-89604082D01*
X101028340Y-89604092D01*
X100999500Y-89749079D01*
X100999500Y-89749082D01*
X100999500Y-89896918D01*
X100999500Y-89896920D01*
X100999499Y-89896920D01*
X92525500Y-89896920D01*
X92525500Y-87873920D01*
X101774499Y-87873920D01*
X101803340Y-88018907D01*
X101803343Y-88018917D01*
X101859912Y-88155488D01*
X101859919Y-88155501D01*
X101942048Y-88278415D01*
X101942051Y-88278419D01*
X102046580Y-88382948D01*
X102046584Y-88382951D01*
X102169498Y-88465080D01*
X102169511Y-88465087D01*
X102306082Y-88521656D01*
X102306087Y-88521658D01*
X102306091Y-88521658D01*
X102306092Y-88521659D01*
X102451079Y-88550500D01*
X102451082Y-88550500D01*
X102598920Y-88550500D01*
X102696462Y-88531096D01*
X102743913Y-88521658D01*
X102880495Y-88465084D01*
X103003416Y-88382951D01*
X103107951Y-88278416D01*
X103190084Y-88155495D01*
X103246658Y-88018913D01*
X103256096Y-87971462D01*
X103275500Y-87873920D01*
X103275500Y-87726079D01*
X103246659Y-87581092D01*
X103246658Y-87581091D01*
X103246658Y-87581087D01*
X103236811Y-87557313D01*
X103190087Y-87444511D01*
X103190080Y-87444498D01*
X103107951Y-87321584D01*
X103107948Y-87321580D01*
X103003419Y-87217051D01*
X103003415Y-87217048D01*
X102880501Y-87134919D01*
X102880488Y-87134912D01*
X102743917Y-87078343D01*
X102743907Y-87078340D01*
X102598920Y-87049500D01*
X102598918Y-87049500D01*
X102451082Y-87049500D01*
X102451080Y-87049500D01*
X102306092Y-87078340D01*
X102306082Y-87078343D01*
X102169511Y-87134912D01*
X102169498Y-87134919D01*
X102046584Y-87217048D01*
X102046580Y-87217051D01*
X101942051Y-87321580D01*
X101942048Y-87321584D01*
X101859919Y-87444498D01*
X101859912Y-87444511D01*
X101803343Y-87581082D01*
X101803340Y-87581092D01*
X101774500Y-87726079D01*
X101774500Y-87726082D01*
X101774500Y-87873918D01*
X101774500Y-87873920D01*
X101774499Y-87873920D01*
X92525500Y-87873920D01*
X92525500Y-81479749D01*
X92545185Y-81412710D01*
X92583541Y-81374747D01*
X92592387Y-81369190D01*
X92613935Y-81360265D01*
X92729147Y-81283282D01*
X92730627Y-81282353D01*
X92762632Y-81273313D01*
X92794373Y-81263375D01*
X92796122Y-81263854D01*
X92797867Y-81263362D01*
X92829690Y-81273063D01*
X92861753Y-81281860D01*
X92863765Y-81283452D01*
X92864699Y-81283737D01*
X92865871Y-81285118D01*
X92884267Y-81299674D01*
X93113181Y-81528588D01*
X93146666Y-81589911D01*
X93149500Y-81616269D01*
X93149500Y-82986160D01*
X93136385Y-83038520D01*
X93137247Y-83038878D01*
X93078342Y-83181086D01*
X93078340Y-83181092D01*
X93049500Y-83326079D01*
X93049500Y-83326082D01*
X93049500Y-83473918D01*
X93049500Y-83473920D01*
X93049499Y-83473920D01*
X93078340Y-83618907D01*
X93078343Y-83618917D01*
X93134912Y-83755488D01*
X93134919Y-83755501D01*
X93217047Y-83878414D01*
X93217048Y-83878415D01*
X93217049Y-83878416D01*
X93244137Y-83905504D01*
X93277622Y-83966825D01*
X93272638Y-84036517D01*
X93244138Y-84080865D01*
X93203424Y-84121579D01*
X93203420Y-84121584D01*
X93121291Y-84244498D01*
X93121284Y-84244511D01*
X93064715Y-84381082D01*
X93064712Y-84381092D01*
X93035872Y-84526079D01*
X93035872Y-84526082D01*
X93035872Y-84673918D01*
X93035872Y-84673920D01*
X93035871Y-84673920D01*
X93064712Y-84818907D01*
X93064715Y-84818917D01*
X93121284Y-84955488D01*
X93121291Y-84955501D01*
X93203420Y-85078415D01*
X93203423Y-85078419D01*
X93307952Y-85182948D01*
X93307956Y-85182951D01*
X93430870Y-85265080D01*
X93430883Y-85265087D01*
X93540019Y-85310292D01*
X93567459Y-85321658D01*
X93567463Y-85321658D01*
X93567464Y-85321659D01*
X93712451Y-85350500D01*
X93712454Y-85350500D01*
X93860292Y-85350500D01*
X93957834Y-85331096D01*
X94005285Y-85321658D01*
X94141867Y-85265084D01*
X94264788Y-85182951D01*
X94369323Y-85078416D01*
X94451456Y-84955495D01*
X94508030Y-84818913D01*
X94521136Y-84753026D01*
X94536872Y-84673920D01*
X94536872Y-84526079D01*
X94508031Y-84381092D01*
X94508030Y-84381091D01*
X94508030Y-84381087D01*
X94486294Y-84328611D01*
X94451459Y-84244511D01*
X94451452Y-84244498D01*
X94369323Y-84121584D01*
X94369320Y-84121580D01*
X94342234Y-84094494D01*
X94308749Y-84033171D01*
X94313733Y-83963479D01*
X94342234Y-83919132D01*
X94382951Y-83878416D01*
X94465084Y-83755495D01*
X94510939Y-83644790D01*
X94554779Y-83590387D01*
X94621074Y-83568322D01*
X94688773Y-83585601D01*
X94736384Y-83636738D01*
X94749500Y-83692243D01*
X94749500Y-84231616D01*
X94749847Y-84235430D01*
X94755913Y-84302192D01*
X94755913Y-84302194D01*
X94755914Y-84302196D01*
X94806522Y-84464606D01*
X94885490Y-84595235D01*
X94894530Y-84610188D01*
X94903983Y-84619641D01*
X94937468Y-84680964D01*
X94932484Y-84750656D01*
X94903986Y-84795001D01*
X94877029Y-84821958D01*
X94877029Y-84821959D01*
X94788001Y-84966294D01*
X94787996Y-84966305D01*
X94734651Y-85127290D01*
X94724500Y-85226647D01*
X94724500Y-85773337D01*
X94724501Y-85773355D01*
X94734650Y-85872707D01*
X94734651Y-85872710D01*
X94787996Y-86033694D01*
X94788001Y-86033705D01*
X94877029Y-86178040D01*
X94877032Y-86178044D01*
X94996955Y-86297967D01*
X94996959Y-86297970D01*
X95141294Y-86386998D01*
X95141297Y-86386999D01*
X95141303Y-86387003D01*
X95302292Y-86440349D01*
X95401655Y-86450500D01*
X95998344Y-86450499D01*
X95998352Y-86450498D01*
X95998355Y-86450498D01*
X96052760Y-86444940D01*
X96097708Y-86440349D01*
X96258697Y-86387003D01*
X96403044Y-86297968D01*
X96522968Y-86178044D01*
X96612003Y-86033697D01*
X96665349Y-85872708D01*
X96675500Y-85773345D01*
X96675499Y-85226656D01*
X96672694Y-85199201D01*
X96665349Y-85127292D01*
X96665348Y-85127289D01*
X96649153Y-85078415D01*
X96612003Y-84966303D01*
X96611999Y-84966297D01*
X96611998Y-84966294D01*
X96522970Y-84821959D01*
X96522967Y-84821955D01*
X96438646Y-84737634D01*
X96405161Y-84676311D01*
X96410145Y-84606619D01*
X96420206Y-84585811D01*
X96493478Y-84464606D01*
X96544086Y-84302196D01*
X96550500Y-84231616D01*
X96550500Y-83568384D01*
X96544086Y-83497804D01*
X96493478Y-83335394D01*
X96405472Y-83189815D01*
X96405470Y-83189813D01*
X96405469Y-83189811D01*
X96285188Y-83069530D01*
X96139606Y-82981522D01*
X96094007Y-82967313D01*
X95977196Y-82930914D01*
X95977194Y-82930913D01*
X95977192Y-82930913D01*
X95927778Y-82926423D01*
X95906616Y-82924500D01*
X95393384Y-82924500D01*
X95374145Y-82926248D01*
X95322807Y-82930913D01*
X95160393Y-82981522D01*
X95014811Y-83069530D01*
X94894530Y-83189811D01*
X94806522Y-83335393D01*
X94801415Y-83351781D01*
X94792885Y-83379157D01*
X94754148Y-83437304D01*
X94690123Y-83465278D01*
X94621138Y-83454197D01*
X94569094Y-83407578D01*
X94550500Y-83342266D01*
X94550500Y-83326079D01*
X94521659Y-83181092D01*
X94521658Y-83181091D01*
X94521658Y-83181087D01*
X94465084Y-83044505D01*
X94465083Y-83044504D01*
X94462753Y-83038878D01*
X94463614Y-83038520D01*
X94450500Y-82986160D01*
X94450500Y-82601647D01*
X100049500Y-82601647D01*
X100049500Y-83198337D01*
X100049501Y-83198355D01*
X100059650Y-83297707D01*
X100059651Y-83297710D01*
X100112996Y-83458694D01*
X100113001Y-83458705D01*
X100202029Y-83603040D01*
X100202032Y-83603044D01*
X100211307Y-83612319D01*
X100244792Y-83673642D01*
X100239808Y-83743334D01*
X100211307Y-83787681D01*
X100202032Y-83796955D01*
X100202029Y-83796959D01*
X100113001Y-83941294D01*
X100112996Y-83941305D01*
X100059651Y-84102290D01*
X100049500Y-84201647D01*
X100049500Y-84798337D01*
X100049501Y-84798355D01*
X100059650Y-84897707D01*
X100059651Y-84897710D01*
X100112996Y-85058694D01*
X100113001Y-85058705D01*
X100202029Y-85203040D01*
X100202032Y-85203044D01*
X100321955Y-85322967D01*
X100321959Y-85322970D01*
X100466294Y-85411998D01*
X100466297Y-85411999D01*
X100466303Y-85412003D01*
X100627292Y-85465349D01*
X100709364Y-85473733D01*
X100774055Y-85500129D01*
X100814206Y-85557309D01*
X100817070Y-85627120D01*
X100781736Y-85687397D01*
X100744214Y-85711652D01*
X100656394Y-85748028D01*
X100656384Y-85748033D01*
X100533470Y-85830162D01*
X100533466Y-85830165D01*
X100428937Y-85934694D01*
X100428934Y-85934698D01*
X100346805Y-86057612D01*
X100346798Y-86057625D01*
X100290229Y-86194196D01*
X100290226Y-86194206D01*
X100261386Y-86339193D01*
X100261386Y-86339196D01*
X100261386Y-86487032D01*
X100261386Y-86487034D01*
X100261385Y-86487034D01*
X100290226Y-86632021D01*
X100290229Y-86632031D01*
X100346798Y-86768602D01*
X100346805Y-86768615D01*
X100428934Y-86891529D01*
X100428937Y-86891533D01*
X100533466Y-86996062D01*
X100533470Y-86996065D01*
X100656384Y-87078194D01*
X100656397Y-87078201D01*
X100792968Y-87134770D01*
X100792973Y-87134772D01*
X100792977Y-87134772D01*
X100792978Y-87134773D01*
X100937965Y-87163614D01*
X100937968Y-87163614D01*
X101085806Y-87163614D01*
X101183348Y-87144210D01*
X101230799Y-87134772D01*
X101367031Y-87078343D01*
X101367374Y-87078201D01*
X101367374Y-87078200D01*
X101367381Y-87078198D01*
X101490302Y-86996065D01*
X101594837Y-86891530D01*
X101633526Y-86833627D01*
X141506156Y-86833627D01*
X141506156Y-87022600D01*
X141535715Y-87209232D01*
X141594110Y-87388950D01*
X141679896Y-87557313D01*
X141790966Y-87710187D01*
X141924583Y-87843804D01*
X142077457Y-87954874D01*
X142157003Y-87995404D01*
X142245819Y-88040659D01*
X142245821Y-88040659D01*
X142245824Y-88040661D01*
X142342153Y-88071960D01*
X142425537Y-88099054D01*
X142612170Y-88128614D01*
X142612175Y-88128614D01*
X142801142Y-88128614D01*
X142987774Y-88099054D01*
X143167488Y-88040661D01*
X143335855Y-87954874D01*
X143488729Y-87843804D01*
X143622346Y-87710187D01*
X143733416Y-87557313D01*
X143819203Y-87388946D01*
X143877596Y-87209232D01*
X143889366Y-87134919D01*
X143907156Y-87022600D01*
X143907156Y-86833627D01*
X143877596Y-86646995D01*
X143819201Y-86467277D01*
X143753940Y-86339196D01*
X143733416Y-86298915D01*
X143622346Y-86146041D01*
X143488729Y-86012424D01*
X143335855Y-85901354D01*
X143279638Y-85872710D01*
X143167492Y-85815568D01*
X142987774Y-85757173D01*
X142801142Y-85727614D01*
X142801137Y-85727614D01*
X142612175Y-85727614D01*
X142612170Y-85727614D01*
X142425537Y-85757173D01*
X142245819Y-85815568D01*
X142077456Y-85901354D01*
X142031563Y-85934698D01*
X141924583Y-86012424D01*
X141924581Y-86012426D01*
X141924580Y-86012426D01*
X141790968Y-86146038D01*
X141790968Y-86146039D01*
X141790966Y-86146041D01*
X141755979Y-86194196D01*
X141679896Y-86298914D01*
X141594110Y-86467277D01*
X141535715Y-86646995D01*
X141506156Y-86833627D01*
X101633526Y-86833627D01*
X101676970Y-86768609D01*
X101733544Y-86632027D01*
X101762386Y-86487032D01*
X101762386Y-86339196D01*
X101762386Y-86339193D01*
X101733545Y-86194206D01*
X101733544Y-86194205D01*
X101733544Y-86194201D01*
X101713595Y-86146039D01*
X101676973Y-86057625D01*
X101676966Y-86057612D01*
X101594837Y-85934698D01*
X101594834Y-85934694D01*
X101490305Y-85830165D01*
X101490301Y-85830162D01*
X101367387Y-85748033D01*
X101367377Y-85748028D01*
X101274853Y-85709703D01*
X101220450Y-85665862D01*
X101198385Y-85599567D01*
X101215664Y-85531868D01*
X101266802Y-85484258D01*
X101309702Y-85471784D01*
X101372708Y-85465349D01*
X101533697Y-85412003D01*
X101678044Y-85322968D01*
X101797968Y-85203044D01*
X101887003Y-85058697D01*
X101940349Y-84897708D01*
X101950500Y-84798345D01*
X101950499Y-84201656D01*
X101940349Y-84102292D01*
X101887003Y-83941303D01*
X101886999Y-83941297D01*
X101886998Y-83941294D01*
X101797970Y-83796959D01*
X101797967Y-83796955D01*
X101788693Y-83787681D01*
X101755208Y-83726358D01*
X101760192Y-83656666D01*
X101788693Y-83612319D01*
X101797968Y-83603044D01*
X101887003Y-83458697D01*
X101940349Y-83297708D01*
X101950500Y-83198345D01*
X101950499Y-82601656D01*
X101944100Y-82539019D01*
X103473499Y-82539019D01*
X103502340Y-82684006D01*
X103502343Y-82684016D01*
X103558912Y-82820587D01*
X103558919Y-82820600D01*
X103609439Y-82896208D01*
X103630317Y-82962886D01*
X103611832Y-83030266D01*
X103609439Y-83033990D01*
X103558919Y-83109597D01*
X103558912Y-83109610D01*
X103502343Y-83246181D01*
X103502340Y-83246191D01*
X103473500Y-83391178D01*
X103473500Y-83391181D01*
X103473500Y-83539017D01*
X103473500Y-83539019D01*
X103473499Y-83539019D01*
X103502340Y-83684006D01*
X103502343Y-83684016D01*
X103558912Y-83820587D01*
X103558919Y-83820600D01*
X103641048Y-83943514D01*
X103641051Y-83943518D01*
X103745580Y-84048047D01*
X103745584Y-84048050D01*
X103868498Y-84130179D01*
X103868511Y-84130186D01*
X103984455Y-84178211D01*
X104005087Y-84186757D01*
X104005091Y-84186757D01*
X104005092Y-84186758D01*
X104150079Y-84215599D01*
X104150082Y-84215599D01*
X104297920Y-84215599D01*
X104395462Y-84196195D01*
X104442913Y-84186757D01*
X104579495Y-84130183D01*
X104702416Y-84048050D01*
X104806951Y-83943515D01*
X104889084Y-83820594D01*
X104945658Y-83684012D01*
X104968658Y-83568386D01*
X104974500Y-83539019D01*
X104974500Y-83391178D01*
X104945659Y-83246191D01*
X104945658Y-83246190D01*
X104945658Y-83246186D01*
X104925841Y-83198344D01*
X104889087Y-83109610D01*
X104889083Y-83109603D01*
X104862307Y-83069530D01*
X104838559Y-83033987D01*
X104817682Y-82967313D01*
X104836166Y-82899933D01*
X104838531Y-82896250D01*
X104889084Y-82820594D01*
X104945658Y-82684012D01*
X104962042Y-82601647D01*
X104974500Y-82539019D01*
X104974500Y-82391178D01*
X104945659Y-82246191D01*
X104945658Y-82246190D01*
X104945658Y-82246186D01*
X104925268Y-82196959D01*
X104889087Y-82109610D01*
X104889080Y-82109597D01*
X104806951Y-81986683D01*
X104806948Y-81986679D01*
X104702419Y-81882150D01*
X104702415Y-81882147D01*
X104579501Y-81800018D01*
X104579488Y-81800011D01*
X104442917Y-81743442D01*
X104442907Y-81743439D01*
X104297920Y-81714599D01*
X104297918Y-81714599D01*
X104150082Y-81714599D01*
X104150080Y-81714599D01*
X104005092Y-81743439D01*
X104005082Y-81743442D01*
X103868511Y-81800011D01*
X103868498Y-81800018D01*
X103745584Y-81882147D01*
X103745580Y-81882150D01*
X103641051Y-81986679D01*
X103641048Y-81986683D01*
X103558919Y-82109597D01*
X103558912Y-82109610D01*
X103502343Y-82246181D01*
X103502340Y-82246191D01*
X103473500Y-82391178D01*
X103473500Y-82391181D01*
X103473500Y-82539017D01*
X103473500Y-82539019D01*
X103473499Y-82539019D01*
X101944100Y-82539019D01*
X101944100Y-82539017D01*
X101940349Y-82502292D01*
X101940348Y-82502288D01*
X101914437Y-82424093D01*
X101894883Y-82365084D01*
X101887003Y-82341303D01*
X101886999Y-82341297D01*
X101886998Y-82341294D01*
X101797970Y-82196959D01*
X101797967Y-82196955D01*
X101678044Y-82077032D01*
X101678040Y-82077029D01*
X101533705Y-81988001D01*
X101533699Y-81987998D01*
X101533697Y-81987997D01*
X101529720Y-81986679D01*
X101372709Y-81934651D01*
X101273346Y-81924500D01*
X100726662Y-81924500D01*
X100726644Y-81924501D01*
X100627292Y-81934650D01*
X100627289Y-81934651D01*
X100466305Y-81987996D01*
X100466294Y-81988001D01*
X100321959Y-82077029D01*
X100321955Y-82077032D01*
X100202032Y-82196955D01*
X100202029Y-82196959D01*
X100113001Y-82341294D01*
X100112996Y-82341305D01*
X100059651Y-82502290D01*
X100049500Y-82601647D01*
X94450500Y-82601647D01*
X94450500Y-81231389D01*
X94425502Y-81105722D01*
X94425501Y-81105721D01*
X94425501Y-81105717D01*
X94376465Y-80987334D01*
X94355191Y-80955495D01*
X94355186Y-80955488D01*
X94305278Y-80880793D01*
X94305272Y-80880786D01*
X91696520Y-78272034D01*
X101870381Y-78272034D01*
X101899222Y-78417021D01*
X101899225Y-78417031D01*
X101955794Y-78553602D01*
X101955801Y-78553615D01*
X102037930Y-78676529D01*
X102037933Y-78676533D01*
X102142463Y-78781063D01*
X102150843Y-78786662D01*
X102195648Y-78840274D01*
X102204355Y-78909599D01*
X102196514Y-78937215D01*
X102178342Y-78981087D01*
X102178340Y-78981092D01*
X102149500Y-79126079D01*
X102149500Y-79126082D01*
X102149500Y-79273918D01*
X102149500Y-79273920D01*
X102149499Y-79273920D01*
X102178340Y-79418907D01*
X102178343Y-79418917D01*
X102234912Y-79555488D01*
X102234919Y-79555501D01*
X102317048Y-79678415D01*
X102317051Y-79678419D01*
X102421580Y-79782948D01*
X102421584Y-79782951D01*
X102544498Y-79865080D01*
X102544511Y-79865087D01*
X102681082Y-79921656D01*
X102681087Y-79921658D01*
X102681091Y-79921658D01*
X102681092Y-79921659D01*
X102826079Y-79950500D01*
X102826082Y-79950500D01*
X102973920Y-79950500D01*
X103071462Y-79931096D01*
X103118913Y-79921658D01*
X103255495Y-79865084D01*
X103378416Y-79782951D01*
X103482951Y-79678416D01*
X103565084Y-79555495D01*
X103621658Y-79418913D01*
X103631096Y-79371462D01*
X103650500Y-79273920D01*
X103650500Y-79126079D01*
X103621659Y-78981092D01*
X103621658Y-78981091D01*
X103621658Y-78981087D01*
X103617142Y-78970185D01*
X103565087Y-78844511D01*
X103565080Y-78844498D01*
X103482951Y-78721584D01*
X103482948Y-78721580D01*
X103378419Y-78617051D01*
X103378414Y-78617047D01*
X103370040Y-78611452D01*
X103352638Y-78590630D01*
X103332666Y-78572257D01*
X103330562Y-78564217D01*
X103325234Y-78557841D01*
X103321851Y-78530914D01*
X103314984Y-78504662D01*
X103317234Y-78494164D01*
X103316525Y-78488516D01*
X103321043Y-78469892D01*
X103322527Y-78465342D01*
X103340831Y-78421153D01*
X133529500Y-78421153D01*
X133529500Y-78578846D01*
X133560261Y-78733489D01*
X133560264Y-78733501D01*
X133620602Y-78879172D01*
X133620609Y-78879185D01*
X133708210Y-79010288D01*
X133708213Y-79010292D01*
X133819707Y-79121786D01*
X133819711Y-79121789D01*
X133950814Y-79209390D01*
X133950827Y-79209397D01*
X134093369Y-79268439D01*
X134096503Y-79269737D01*
X134251153Y-79300499D01*
X134251156Y-79300500D01*
X134251158Y-79300500D01*
X134408844Y-79300500D01*
X134408845Y-79300499D01*
X134563497Y-79269737D01*
X134709179Y-79209394D01*
X134840289Y-79121789D01*
X134951789Y-79010289D01*
X135039394Y-78879179D01*
X135099737Y-78733497D01*
X135130500Y-78578842D01*
X135130500Y-78421158D01*
X135130500Y-78421155D01*
X135130499Y-78421153D01*
X135129677Y-78417021D01*
X135099737Y-78266503D01*
X135077992Y-78214005D01*
X135039397Y-78120827D01*
X135039390Y-78120814D01*
X134951789Y-77989711D01*
X134951786Y-77989707D01*
X134840292Y-77878213D01*
X134840288Y-77878210D01*
X134709185Y-77790609D01*
X134709172Y-77790602D01*
X134563501Y-77730264D01*
X134563489Y-77730261D01*
X134408845Y-77699500D01*
X134408842Y-77699500D01*
X134251158Y-77699500D01*
X134251155Y-77699500D01*
X134096510Y-77730261D01*
X134096498Y-77730264D01*
X133950827Y-77790602D01*
X133950814Y-77790609D01*
X133819711Y-77878210D01*
X133819707Y-77878213D01*
X133708213Y-77989707D01*
X133708210Y-77989711D01*
X133620609Y-78120814D01*
X133620602Y-78120827D01*
X133560264Y-78266498D01*
X133560261Y-78266510D01*
X133529500Y-78421153D01*
X103340831Y-78421153D01*
X103342540Y-78417027D01*
X103357603Y-78341301D01*
X103371382Y-78272034D01*
X103371382Y-78124193D01*
X103342541Y-77979206D01*
X103342540Y-77979205D01*
X103342540Y-77979201D01*
X103332485Y-77954926D01*
X103285969Y-77842625D01*
X103285962Y-77842612D01*
X103203833Y-77719698D01*
X103203830Y-77719694D01*
X103099301Y-77615165D01*
X103099297Y-77615162D01*
X102976383Y-77533033D01*
X102976370Y-77533026D01*
X102839799Y-77476457D01*
X102839789Y-77476454D01*
X102694802Y-77447614D01*
X102694800Y-77447614D01*
X102546964Y-77447614D01*
X102546962Y-77447614D01*
X102401974Y-77476454D01*
X102401964Y-77476457D01*
X102265393Y-77533026D01*
X102265380Y-77533033D01*
X102142466Y-77615162D01*
X102142462Y-77615165D01*
X102037933Y-77719694D01*
X102037930Y-77719698D01*
X101955801Y-77842612D01*
X101955794Y-77842625D01*
X101899225Y-77979196D01*
X101899222Y-77979206D01*
X101870382Y-78124193D01*
X101870382Y-78124196D01*
X101870382Y-78272032D01*
X101870382Y-78272034D01*
X101870381Y-78272034D01*
X91696520Y-78272034D01*
X90048406Y-76623920D01*
X102899499Y-76623920D01*
X102928340Y-76768907D01*
X102928343Y-76768917D01*
X102984912Y-76905488D01*
X102984919Y-76905501D01*
X103067048Y-77028415D01*
X103067051Y-77028419D01*
X103171580Y-77132948D01*
X103171584Y-77132951D01*
X103294498Y-77215080D01*
X103294511Y-77215087D01*
X103431082Y-77271656D01*
X103431087Y-77271658D01*
X103431091Y-77271658D01*
X103431092Y-77271659D01*
X103576079Y-77300500D01*
X103576082Y-77300500D01*
X103723920Y-77300500D01*
X103821462Y-77281096D01*
X103868913Y-77271658D01*
X104005495Y-77215084D01*
X104128416Y-77132951D01*
X104232951Y-77028416D01*
X104315084Y-76905495D01*
X104371658Y-76768913D01*
X104400500Y-76623918D01*
X104400500Y-76476082D01*
X104400500Y-76476079D01*
X104371659Y-76331092D01*
X104371658Y-76331091D01*
X104371658Y-76331087D01*
X104371656Y-76331082D01*
X104315087Y-76194511D01*
X104315080Y-76194498D01*
X104232951Y-76071584D01*
X104232948Y-76071580D01*
X104128419Y-75967051D01*
X104128415Y-75967048D01*
X104005501Y-75884919D01*
X104005488Y-75884912D01*
X103868917Y-75828343D01*
X103868907Y-75828340D01*
X103723920Y-75799500D01*
X103723918Y-75799500D01*
X103576082Y-75799500D01*
X103576080Y-75799500D01*
X103431092Y-75828340D01*
X103431082Y-75828343D01*
X103294511Y-75884912D01*
X103294498Y-75884919D01*
X103171584Y-75967048D01*
X103171580Y-75967051D01*
X103067051Y-76071580D01*
X103067048Y-76071584D01*
X102984919Y-76194498D01*
X102984912Y-76194511D01*
X102928343Y-76331082D01*
X102928340Y-76331092D01*
X102899500Y-76476079D01*
X102899500Y-76476082D01*
X102899500Y-76623918D01*
X102899500Y-76623920D01*
X102899499Y-76623920D01*
X90048406Y-76623920D01*
X85714952Y-72290466D01*
X85714948Y-72290463D01*
X85608406Y-72219275D01*
X85490023Y-72170239D01*
X85490017Y-72170237D01*
X85364350Y-72145240D01*
X85364348Y-72145240D01*
X78725068Y-72145240D01*
X78658029Y-72125555D01*
X78637387Y-72108921D01*
X77731213Y-71202747D01*
X77649619Y-71121153D01*
X106574500Y-71121153D01*
X106574500Y-71278846D01*
X106605261Y-71433489D01*
X106605264Y-71433501D01*
X106665602Y-71579172D01*
X106665609Y-71579185D01*
X106753210Y-71710288D01*
X106753213Y-71710292D01*
X106864707Y-71821786D01*
X106864711Y-71821789D01*
X106995814Y-71909390D01*
X106995827Y-71909397D01*
X107141498Y-71969735D01*
X107141503Y-71969737D01*
X107296153Y-72000499D01*
X107296156Y-72000500D01*
X107296158Y-72000500D01*
X107453844Y-72000500D01*
X107453845Y-72000499D01*
X107608497Y-71969737D01*
X107754179Y-71909394D01*
X107885289Y-71821789D01*
X107996789Y-71710289D01*
X108084394Y-71579179D01*
X108144737Y-71433497D01*
X108175500Y-71278842D01*
X108175500Y-71121158D01*
X108175500Y-71121155D01*
X108175499Y-71121153D01*
X112124500Y-71121153D01*
X112124500Y-71278846D01*
X112155261Y-71433489D01*
X112155264Y-71433501D01*
X112215602Y-71579172D01*
X112215609Y-71579185D01*
X112303210Y-71710288D01*
X112303213Y-71710292D01*
X112414707Y-71821786D01*
X112414711Y-71821789D01*
X112545814Y-71909390D01*
X112545827Y-71909397D01*
X112691498Y-71969735D01*
X112691503Y-71969737D01*
X112846153Y-72000499D01*
X112846156Y-72000500D01*
X112846158Y-72000500D01*
X113003844Y-72000500D01*
X113003845Y-72000499D01*
X113158497Y-71969737D01*
X113304179Y-71909394D01*
X113435289Y-71821789D01*
X113546789Y-71710289D01*
X113634394Y-71579179D01*
X113677993Y-71473920D01*
X113951155Y-71473920D01*
X113979996Y-71618907D01*
X113979999Y-71618917D01*
X114036568Y-71755488D01*
X114036575Y-71755501D01*
X114118704Y-71878415D01*
X114118707Y-71878419D01*
X114223236Y-71982948D01*
X114223240Y-71982951D01*
X114346154Y-72065080D01*
X114346167Y-72065087D01*
X114451993Y-72108921D01*
X114482743Y-72121658D01*
X114482747Y-72121658D01*
X114482748Y-72121659D01*
X114627735Y-72150500D01*
X114627738Y-72150500D01*
X114775576Y-72150500D01*
X114873118Y-72131096D01*
X114920569Y-72121658D01*
X115057151Y-72065084D01*
X115057152Y-72065083D01*
X115062778Y-72062753D01*
X115063135Y-72063614D01*
X115115496Y-72050500D01*
X116864071Y-72050500D01*
X116967609Y-72029904D01*
X116989744Y-72025501D01*
X117108127Y-71976465D01*
X117118195Y-71969738D01*
X117118198Y-71969736D01*
X117166432Y-71937507D01*
X117214669Y-71905277D01*
X119939441Y-69180505D01*
X120000764Y-69147020D01*
X120027122Y-69144186D01*
X134846561Y-69144186D01*
X134898921Y-69157300D01*
X134899279Y-69156439D01*
X134904905Y-69158769D01*
X134904906Y-69158770D01*
X135041488Y-69215344D01*
X135041492Y-69215344D01*
X135041493Y-69215345D01*
X135186480Y-69244186D01*
X135186483Y-69244186D01*
X135334321Y-69244186D01*
X135431863Y-69224782D01*
X135479314Y-69215344D01*
X135615896Y-69158770D01*
X135738817Y-69076637D01*
X135843352Y-68972102D01*
X135925485Y-68849181D01*
X135982059Y-68712599D01*
X136000051Y-68622151D01*
X136010901Y-68567606D01*
X136010901Y-68419765D01*
X135982060Y-68274778D01*
X135982059Y-68274777D01*
X135982059Y-68274773D01*
X135973531Y-68254184D01*
X135925488Y-68138197D01*
X135925481Y-68138184D01*
X135843352Y-68015270D01*
X135843349Y-68015266D01*
X135738820Y-67910737D01*
X135738816Y-67910734D01*
X135615902Y-67828605D01*
X135615889Y-67828598D01*
X135479318Y-67772029D01*
X135479308Y-67772026D01*
X135334321Y-67743186D01*
X135334319Y-67743186D01*
X135186483Y-67743186D01*
X135186481Y-67743186D01*
X135041493Y-67772026D01*
X135041487Y-67772028D01*
X134899279Y-67830933D01*
X134898921Y-67830071D01*
X134846561Y-67843186D01*
X133474421Y-67843186D01*
X133407382Y-67823501D01*
X133361627Y-67770697D01*
X133351018Y-67731340D01*
X133350500Y-67726088D01*
X133350500Y-67726082D01*
X133321658Y-67581087D01*
X133321656Y-67581082D01*
X133265087Y-67444511D01*
X133265080Y-67444498D01*
X133182951Y-67321584D01*
X133182948Y-67321580D01*
X133078419Y-67217051D01*
X133078415Y-67217048D01*
X132955501Y-67134919D01*
X132955488Y-67134912D01*
X132818917Y-67078343D01*
X132818907Y-67078340D01*
X132673920Y-67049500D01*
X132673918Y-67049500D01*
X132526082Y-67049500D01*
X132526080Y-67049500D01*
X132381092Y-67078340D01*
X132381082Y-67078343D01*
X132244510Y-67134913D01*
X132244506Y-67134915D01*
X132244505Y-67134916D01*
X132216537Y-67153603D01*
X132149863Y-67174480D01*
X132147649Y-67174500D01*
X119438389Y-67174500D01*
X119377971Y-67186518D01*
X119334743Y-67195116D01*
X119317546Y-67198537D01*
X119203716Y-67245687D01*
X119203707Y-67245692D01*
X119101268Y-67314140D01*
X119057705Y-67357703D01*
X119014142Y-67401267D01*
X119014139Y-67401270D01*
X116300573Y-70114837D01*
X116239250Y-70148322D01*
X116212892Y-70151156D01*
X115693594Y-70151156D01*
X115637807Y-70137180D01*
X115637780Y-70137247D01*
X115637334Y-70137062D01*
X115635137Y-70136512D01*
X115632147Y-70134914D01*
X115495573Y-70078343D01*
X115495563Y-70078340D01*
X115350576Y-70049500D01*
X115350574Y-70049500D01*
X115202738Y-70049500D01*
X115202736Y-70049500D01*
X115057748Y-70078340D01*
X115057738Y-70078343D01*
X114921167Y-70134912D01*
X114921154Y-70134919D01*
X114798240Y-70217048D01*
X114798236Y-70217051D01*
X114693707Y-70321580D01*
X114693704Y-70321584D01*
X114611575Y-70444498D01*
X114611568Y-70444511D01*
X114554998Y-70581084D01*
X114554997Y-70581089D01*
X114553333Y-70589455D01*
X114520946Y-70651366D01*
X114479169Y-70679822D01*
X114346164Y-70734914D01*
X114346154Y-70734919D01*
X114223240Y-70817048D01*
X114223236Y-70817051D01*
X114118707Y-70921580D01*
X114118704Y-70921584D01*
X114036575Y-71044498D01*
X114036568Y-71044511D01*
X113979999Y-71181082D01*
X113979996Y-71181092D01*
X113972159Y-71220491D01*
X113972157Y-71220500D01*
X113951156Y-71326082D01*
X113951156Y-71473918D01*
X113951156Y-71473920D01*
X113951155Y-71473920D01*
X113677993Y-71473920D01*
X113694737Y-71433497D01*
X113725500Y-71278842D01*
X113725500Y-71121158D01*
X113725500Y-71121155D01*
X113725499Y-71121153D01*
X113710254Y-71044511D01*
X113694737Y-70966503D01*
X113676131Y-70921584D01*
X113634397Y-70820827D01*
X113634390Y-70820814D01*
X113546789Y-70689711D01*
X113546786Y-70689707D01*
X113435292Y-70578213D01*
X113435288Y-70578210D01*
X113304185Y-70490609D01*
X113304172Y-70490602D01*
X113158501Y-70430264D01*
X113158489Y-70430261D01*
X113003845Y-70399500D01*
X113003842Y-70399500D01*
X112846158Y-70399500D01*
X112846155Y-70399500D01*
X112691510Y-70430261D01*
X112691498Y-70430264D01*
X112545827Y-70490602D01*
X112545814Y-70490609D01*
X112414711Y-70578210D01*
X112414707Y-70578213D01*
X112303213Y-70689707D01*
X112303210Y-70689711D01*
X112215609Y-70820814D01*
X112215602Y-70820827D01*
X112155264Y-70966498D01*
X112155261Y-70966510D01*
X112124500Y-71121153D01*
X108175499Y-71121153D01*
X108160254Y-71044511D01*
X108144737Y-70966503D01*
X108126131Y-70921584D01*
X108084397Y-70820827D01*
X108084390Y-70820814D01*
X107996789Y-70689711D01*
X107996786Y-70689707D01*
X107885292Y-70578213D01*
X107885288Y-70578210D01*
X107754185Y-70490609D01*
X107754172Y-70490602D01*
X107608501Y-70430264D01*
X107608489Y-70430261D01*
X107453845Y-70399500D01*
X107453842Y-70399500D01*
X107296158Y-70399500D01*
X107296155Y-70399500D01*
X107141510Y-70430261D01*
X107141498Y-70430264D01*
X106995827Y-70490602D01*
X106995814Y-70490609D01*
X106864711Y-70578210D01*
X106864707Y-70578213D01*
X106753213Y-70689707D01*
X106753210Y-70689711D01*
X106665609Y-70820814D01*
X106665602Y-70820827D01*
X106605264Y-70966498D01*
X106605261Y-70966510D01*
X106574500Y-71121153D01*
X77649619Y-71121153D01*
X73222194Y-66693727D01*
X73222193Y-66693726D01*
X73222189Y-66693723D01*
X73115647Y-66622535D01*
X72997264Y-66573499D01*
X72997258Y-66573497D01*
X72871591Y-66548500D01*
X72871589Y-66548500D01*
X70528328Y-66548500D01*
X70498887Y-66539855D01*
X70468901Y-66533332D01*
X70463885Y-66529577D01*
X70461289Y-66528815D01*
X70440647Y-66512181D01*
X70373222Y-66444756D01*
X70339737Y-66383433D01*
X70344721Y-66313741D01*
X70386593Y-66257808D01*
X70452057Y-66233391D01*
X70460903Y-66233075D01*
X76000000Y-66233075D01*
X76000000Y-65824000D01*
X76019685Y-65756961D01*
X76072489Y-65711206D01*
X76124000Y-65700000D01*
X83342451Y-65700000D01*
X83409490Y-65719685D01*
X83430132Y-65736319D01*
X85593810Y-67899998D01*
X85593812Y-67899999D01*
X85593813Y-67900000D01*
X86293813Y-68000000D01*
X86299400Y-65290576D01*
X139246155Y-65290576D01*
X139274996Y-65435563D01*
X139274999Y-65435573D01*
X139331568Y-65572144D01*
X139331575Y-65572157D01*
X139413704Y-65695071D01*
X139413707Y-65695075D01*
X139518236Y-65799604D01*
X139518240Y-65799607D01*
X139641154Y-65881736D01*
X139641167Y-65881743D01*
X139777738Y-65938312D01*
X139777743Y-65938314D01*
X139777747Y-65938314D01*
X139777748Y-65938315D01*
X139922735Y-65967156D01*
X139922738Y-65967156D01*
X140070576Y-65967156D01*
X140168118Y-65947752D01*
X140215569Y-65938314D01*
X140352151Y-65881740D01*
X140475072Y-65799607D01*
X140579607Y-65695072D01*
X140661740Y-65572151D01*
X140718314Y-65435569D01*
X140747156Y-65290574D01*
X140747156Y-65142738D01*
X140747156Y-65142735D01*
X140718315Y-64997748D01*
X140718314Y-64997747D01*
X140718314Y-64997743D01*
X140704249Y-64963786D01*
X140661743Y-64861167D01*
X140661736Y-64861154D01*
X140579607Y-64738240D01*
X140579604Y-64738236D01*
X140475075Y-64633707D01*
X140475071Y-64633704D01*
X140352157Y-64551575D01*
X140352144Y-64551568D01*
X140215573Y-64494999D01*
X140215563Y-64494996D01*
X140070576Y-64466156D01*
X140070574Y-64466156D01*
X139922738Y-64466156D01*
X139922736Y-64466156D01*
X139777748Y-64494996D01*
X139777738Y-64494999D01*
X139641167Y-64551568D01*
X139641154Y-64551575D01*
X139518240Y-64633704D01*
X139518236Y-64633707D01*
X139413707Y-64738236D01*
X139413704Y-64738240D01*
X139331575Y-64861154D01*
X139331568Y-64861167D01*
X139274999Y-64997738D01*
X139274996Y-64997748D01*
X139246156Y-65142735D01*
X139246156Y-65142738D01*
X139246156Y-65290574D01*
X139246156Y-65290576D01*
X139246155Y-65290576D01*
X86299400Y-65290576D01*
X86299894Y-65051209D01*
X86319717Y-64984212D01*
X86336208Y-64963791D01*
X88400000Y-62900000D01*
X88399999Y-62899998D01*
X88400000Y-62899998D01*
X87714851Y-60311659D01*
X87543390Y-59663920D01*
X142899499Y-59663920D01*
X142928340Y-59808907D01*
X142928343Y-59808917D01*
X142984912Y-59945488D01*
X142984919Y-59945501D01*
X143067048Y-60068415D01*
X143067051Y-60068419D01*
X143171580Y-60172948D01*
X143171584Y-60172951D01*
X143294498Y-60255080D01*
X143294511Y-60255087D01*
X143431082Y-60311656D01*
X143431087Y-60311658D01*
X143431091Y-60311658D01*
X143431092Y-60311659D01*
X143576079Y-60340500D01*
X143576082Y-60340500D01*
X143723920Y-60340500D01*
X143821462Y-60321096D01*
X143868913Y-60311658D01*
X144005495Y-60255084D01*
X144128416Y-60172951D01*
X144232951Y-60068416D01*
X144315084Y-59945495D01*
X144371658Y-59808913D01*
X144400500Y-59663918D01*
X144400500Y-59516082D01*
X144400500Y-59516079D01*
X144371659Y-59371092D01*
X144371658Y-59371091D01*
X144371658Y-59371087D01*
X144343434Y-59302948D01*
X144315087Y-59234511D01*
X144315080Y-59234498D01*
X144232951Y-59111584D01*
X144232948Y-59111580D01*
X144128419Y-59007051D01*
X144128415Y-59007048D01*
X144005501Y-58924919D01*
X144005488Y-58924912D01*
X143868917Y-58868343D01*
X143868907Y-58868340D01*
X143723920Y-58839500D01*
X143723918Y-58839500D01*
X143576082Y-58839500D01*
X143576080Y-58839500D01*
X143431092Y-58868340D01*
X143431082Y-58868343D01*
X143294511Y-58924912D01*
X143294498Y-58924919D01*
X143171584Y-59007048D01*
X143171580Y-59007051D01*
X143067051Y-59111580D01*
X143067048Y-59111584D01*
X142984919Y-59234498D01*
X142984912Y-59234511D01*
X142928343Y-59371082D01*
X142928340Y-59371092D01*
X142899500Y-59516079D01*
X142899500Y-59516082D01*
X142899500Y-59663918D01*
X142899500Y-59663920D01*
X142899499Y-59663920D01*
X87543390Y-59663920D01*
X87504098Y-59515483D01*
X87499970Y-59483987D01*
X87498704Y-58793920D01*
X139359499Y-58793920D01*
X139388340Y-58938907D01*
X139388343Y-58938917D01*
X139444912Y-59075488D01*
X139444919Y-59075501D01*
X139527048Y-59198415D01*
X139527051Y-59198419D01*
X139631580Y-59302948D01*
X139631584Y-59302951D01*
X139754498Y-59385080D01*
X139754511Y-59385087D01*
X139891082Y-59441656D01*
X139891087Y-59441658D01*
X139891091Y-59441658D01*
X139891092Y-59441659D01*
X140036079Y-59470500D01*
X140036082Y-59470500D01*
X140183920Y-59470500D01*
X140281462Y-59451096D01*
X140328913Y-59441658D01*
X140377089Y-59421702D01*
X140440521Y-59395429D01*
X140465488Y-59385087D01*
X140465488Y-59385086D01*
X140465495Y-59385084D01*
X140588416Y-59302951D01*
X140692951Y-59198416D01*
X140775084Y-59075495D01*
X140831658Y-58938913D01*
X140860500Y-58793918D01*
X140860500Y-58646082D01*
X140860500Y-58646079D01*
X140831659Y-58501092D01*
X140831658Y-58501091D01*
X140831658Y-58501087D01*
X140794136Y-58410500D01*
X140775087Y-58364511D01*
X140775080Y-58364498D01*
X140692951Y-58241584D01*
X140692948Y-58241580D01*
X140588419Y-58137051D01*
X140588415Y-58137048D01*
X140465501Y-58054919D01*
X140465488Y-58054912D01*
X140328917Y-57998343D01*
X140328907Y-57998340D01*
X140183920Y-57969500D01*
X140183918Y-57969500D01*
X140036082Y-57969500D01*
X140036080Y-57969500D01*
X139891092Y-57998340D01*
X139891082Y-57998343D01*
X139754511Y-58054912D01*
X139754498Y-58054919D01*
X139631584Y-58137048D01*
X139631580Y-58137051D01*
X139527051Y-58241580D01*
X139527048Y-58241584D01*
X139444919Y-58364498D01*
X139444912Y-58364511D01*
X139388343Y-58501082D01*
X139388340Y-58501092D01*
X139359500Y-58646079D01*
X139359500Y-58646082D01*
X139359500Y-58793918D01*
X139359500Y-58793920D01*
X139359499Y-58793920D01*
X87498704Y-58793920D01*
X87494601Y-56557648D01*
X106699500Y-56557648D01*
X106699500Y-56762351D01*
X106731522Y-56964534D01*
X106794781Y-57159223D01*
X106858691Y-57284653D01*
X106868803Y-57304498D01*
X106887715Y-57341613D01*
X107008028Y-57507213D01*
X107152786Y-57651971D01*
X107307749Y-57764556D01*
X107318390Y-57772287D01*
X107434607Y-57831503D01*
X107500776Y-57865218D01*
X107500778Y-57865218D01*
X107500781Y-57865220D01*
X107605137Y-57899127D01*
X107695465Y-57928477D01*
X107796557Y-57944488D01*
X107897648Y-57960500D01*
X107897649Y-57960500D01*
X108102351Y-57960500D01*
X108102352Y-57960500D01*
X108304534Y-57928477D01*
X108499219Y-57865220D01*
X108681610Y-57772287D01*
X108817002Y-57673920D01*
X108847213Y-57651971D01*
X108847215Y-57651968D01*
X108847219Y-57651966D01*
X108912319Y-57586866D01*
X108973642Y-57553381D01*
X109043334Y-57558365D01*
X109087681Y-57586866D01*
X109152786Y-57651971D01*
X109307749Y-57764556D01*
X109318390Y-57772287D01*
X109434607Y-57831503D01*
X109500776Y-57865218D01*
X109500778Y-57865218D01*
X109500781Y-57865220D01*
X109605137Y-57899127D01*
X109695465Y-57928477D01*
X109796557Y-57944488D01*
X109897648Y-57960500D01*
X109897649Y-57960500D01*
X110102351Y-57960500D01*
X110102352Y-57960500D01*
X110304534Y-57928477D01*
X110499219Y-57865220D01*
X110681610Y-57772287D01*
X110817002Y-57673920D01*
X110847213Y-57651971D01*
X110847215Y-57651968D01*
X110847219Y-57651966D01*
X110991966Y-57507219D01*
X110995025Y-57503009D01*
X111050352Y-57460339D01*
X111119965Y-57454355D01*
X111181762Y-57486957D01*
X111211530Y-57532554D01*
X111256202Y-57652328D01*
X111256206Y-57652335D01*
X111342452Y-57767544D01*
X111342455Y-57767547D01*
X111457664Y-57853793D01*
X111457671Y-57853797D01*
X111592517Y-57904091D01*
X111592516Y-57904091D01*
X111599444Y-57904835D01*
X111652127Y-57910500D01*
X113347872Y-57910499D01*
X113407483Y-57904091D01*
X113542331Y-57853796D01*
X113657546Y-57767546D01*
X113727634Y-57673920D01*
X135139499Y-57673920D01*
X135168340Y-57818907D01*
X135168343Y-57818917D01*
X135224912Y-57955488D01*
X135224919Y-57955501D01*
X135307048Y-58078415D01*
X135307051Y-58078419D01*
X135411580Y-58182948D01*
X135411584Y-58182951D01*
X135534498Y-58265080D01*
X135534511Y-58265087D01*
X135671082Y-58321656D01*
X135671087Y-58321658D01*
X135671091Y-58321658D01*
X135671092Y-58321659D01*
X135816079Y-58350500D01*
X135816082Y-58350500D01*
X135963920Y-58350500D01*
X136061462Y-58331096D01*
X136108913Y-58321658D01*
X136245495Y-58265084D01*
X136368416Y-58182951D01*
X136472951Y-58078416D01*
X136555084Y-57955495D01*
X136611658Y-57818913D01*
X136628565Y-57733920D01*
X136929499Y-57733920D01*
X136958340Y-57878907D01*
X136958343Y-57878917D01*
X137014912Y-58015488D01*
X137014919Y-58015501D01*
X137097048Y-58138415D01*
X137097051Y-58138419D01*
X137201580Y-58242948D01*
X137201584Y-58242951D01*
X137324498Y-58325080D01*
X137324511Y-58325087D01*
X137419690Y-58364511D01*
X137461087Y-58381658D01*
X137461091Y-58381658D01*
X137461092Y-58381659D01*
X137606079Y-58410500D01*
X137606082Y-58410500D01*
X137753920Y-58410500D01*
X137851462Y-58391096D01*
X137898913Y-58381658D01*
X138035495Y-58325084D01*
X138158416Y-58242951D01*
X138262951Y-58138416D01*
X138345084Y-58015495D01*
X138401658Y-57878913D01*
X138422868Y-57772287D01*
X138430500Y-57733920D01*
X138430500Y-57586079D01*
X138401659Y-57441092D01*
X138401658Y-57441091D01*
X138401658Y-57441087D01*
X138401656Y-57441082D01*
X138345087Y-57304511D01*
X138345080Y-57304498D01*
X138262951Y-57181584D01*
X138262948Y-57181580D01*
X138158419Y-57077051D01*
X138158415Y-57077048D01*
X138035501Y-56994919D01*
X138035488Y-56994912D01*
X137898917Y-56938343D01*
X137898907Y-56938340D01*
X137753920Y-56909500D01*
X137753918Y-56909500D01*
X137606082Y-56909500D01*
X137606080Y-56909500D01*
X137461092Y-56938340D01*
X137461082Y-56938343D01*
X137324511Y-56994912D01*
X137324498Y-56994919D01*
X137201584Y-57077048D01*
X137201580Y-57077051D01*
X137097051Y-57181580D01*
X137097048Y-57181584D01*
X137014919Y-57304498D01*
X137014912Y-57304511D01*
X136958343Y-57441082D01*
X136958340Y-57441092D01*
X136929500Y-57586079D01*
X136929500Y-57586082D01*
X136929500Y-57733918D01*
X136929500Y-57733920D01*
X136929499Y-57733920D01*
X136628565Y-57733920D01*
X136640500Y-57673918D01*
X136640500Y-57526082D01*
X136640500Y-57526079D01*
X136611659Y-57381092D01*
X136611658Y-57381091D01*
X136611658Y-57381087D01*
X136611656Y-57381082D01*
X136555087Y-57244511D01*
X136555080Y-57244498D01*
X136472951Y-57121584D01*
X136472948Y-57121580D01*
X136368419Y-57017051D01*
X136368415Y-57017048D01*
X136245501Y-56934919D01*
X136245488Y-56934912D01*
X136108917Y-56878343D01*
X136108907Y-56878340D01*
X135963920Y-56849500D01*
X135963918Y-56849500D01*
X135816082Y-56849500D01*
X135816080Y-56849500D01*
X135671092Y-56878340D01*
X135671082Y-56878343D01*
X135534511Y-56934912D01*
X135534498Y-56934919D01*
X135411584Y-57017048D01*
X135411580Y-57017051D01*
X135307051Y-57121580D01*
X135307048Y-57121584D01*
X135224919Y-57244498D01*
X135224912Y-57244511D01*
X135168343Y-57381082D01*
X135168340Y-57381092D01*
X135139500Y-57526079D01*
X135139500Y-57526082D01*
X135139500Y-57673918D01*
X135139500Y-57673920D01*
X135139499Y-57673920D01*
X113727634Y-57673920D01*
X113743796Y-57652331D01*
X113794091Y-57517483D01*
X113800500Y-57457873D01*
X113800499Y-56023920D01*
X129649499Y-56023920D01*
X129678340Y-56168907D01*
X129678343Y-56168917D01*
X129734912Y-56305488D01*
X129734919Y-56305501D01*
X129817048Y-56428415D01*
X129817051Y-56428419D01*
X129921580Y-56532948D01*
X129921584Y-56532951D01*
X130044498Y-56615080D01*
X130044511Y-56615087D01*
X130172224Y-56667987D01*
X130181087Y-56671658D01*
X130181091Y-56671658D01*
X130181092Y-56671659D01*
X130326079Y-56700500D01*
X130326082Y-56700500D01*
X130473920Y-56700500D01*
X130571462Y-56681096D01*
X130618913Y-56671658D01*
X130755495Y-56615084D01*
X130878416Y-56532951D01*
X130897447Y-56513920D01*
X133149499Y-56513920D01*
X133178340Y-56658907D01*
X133178343Y-56658917D01*
X133234912Y-56795488D01*
X133234919Y-56795501D01*
X133317048Y-56918415D01*
X133317051Y-56918419D01*
X133421580Y-57022948D01*
X133421584Y-57022951D01*
X133544498Y-57105080D01*
X133544511Y-57105087D01*
X133675199Y-57159219D01*
X133681087Y-57161658D01*
X133681091Y-57161658D01*
X133681092Y-57161659D01*
X133826079Y-57190500D01*
X133826082Y-57190500D01*
X133973920Y-57190500D01*
X134074749Y-57170443D01*
X134118913Y-57161658D01*
X134255495Y-57105084D01*
X134378416Y-57022951D01*
X134482951Y-56918416D01*
X134565084Y-56795495D01*
X134621658Y-56658913D01*
X134635496Y-56589345D01*
X134650500Y-56513920D01*
X134650500Y-56366079D01*
X134621659Y-56221092D01*
X134621658Y-56221091D01*
X134621658Y-56221087D01*
X134600047Y-56168913D01*
X134565087Y-56084511D01*
X134565080Y-56084498D01*
X134482951Y-55961584D01*
X134482948Y-55961580D01*
X134378419Y-55857051D01*
X134378415Y-55857048D01*
X134255501Y-55774919D01*
X134255488Y-55774912D01*
X134118917Y-55718343D01*
X134118907Y-55718340D01*
X133973920Y-55689500D01*
X133973918Y-55689500D01*
X133826082Y-55689500D01*
X133826080Y-55689500D01*
X133681092Y-55718340D01*
X133681082Y-55718343D01*
X133544511Y-55774912D01*
X133544498Y-55774919D01*
X133421584Y-55857048D01*
X133421580Y-55857051D01*
X133317051Y-55961580D01*
X133317048Y-55961584D01*
X133234919Y-56084498D01*
X133234912Y-56084511D01*
X133178343Y-56221082D01*
X133178340Y-56221092D01*
X133149500Y-56366079D01*
X133149500Y-56366082D01*
X133149500Y-56513918D01*
X133149500Y-56513920D01*
X133149499Y-56513920D01*
X130897447Y-56513920D01*
X130982951Y-56428416D01*
X131065084Y-56305495D01*
X131121658Y-56168913D01*
X131141222Y-56070561D01*
X131150500Y-56023920D01*
X131150500Y-55876079D01*
X131121659Y-55731092D01*
X131121658Y-55731091D01*
X131121658Y-55731087D01*
X131095538Y-55668028D01*
X131065087Y-55594511D01*
X131065080Y-55594498D01*
X130982951Y-55471584D01*
X130982948Y-55471580D01*
X130878419Y-55367051D01*
X130878415Y-55367048D01*
X130755501Y-55284919D01*
X130755488Y-55284912D01*
X130618917Y-55228343D01*
X130618907Y-55228340D01*
X130473920Y-55199500D01*
X130473918Y-55199500D01*
X130326082Y-55199500D01*
X130326080Y-55199500D01*
X130181092Y-55228340D01*
X130181082Y-55228343D01*
X130044511Y-55284912D01*
X130044498Y-55284919D01*
X129921584Y-55367048D01*
X129921580Y-55367051D01*
X129817051Y-55471580D01*
X129817048Y-55471584D01*
X129734919Y-55594498D01*
X129734912Y-55594511D01*
X129678343Y-55731082D01*
X129678340Y-55731092D01*
X129649500Y-55876079D01*
X129649500Y-55876082D01*
X129649500Y-56023918D01*
X129649500Y-56023920D01*
X129649499Y-56023920D01*
X113800499Y-56023920D01*
X113800499Y-55862128D01*
X113794091Y-55802517D01*
X113768806Y-55734725D01*
X113743797Y-55667671D01*
X113743793Y-55667664D01*
X113657547Y-55552455D01*
X113657544Y-55552452D01*
X113542335Y-55466206D01*
X113542328Y-55466202D01*
X113407482Y-55415908D01*
X113407483Y-55415908D01*
X113347883Y-55409501D01*
X113347881Y-55409500D01*
X113347873Y-55409500D01*
X113347864Y-55409500D01*
X111652129Y-55409500D01*
X111652123Y-55409501D01*
X111592516Y-55415908D01*
X111457671Y-55466202D01*
X111457664Y-55466206D01*
X111342455Y-55552452D01*
X111342452Y-55552455D01*
X111256206Y-55667664D01*
X111256202Y-55667671D01*
X111211530Y-55787445D01*
X111169659Y-55843379D01*
X111104195Y-55867796D01*
X111035922Y-55852944D01*
X110995029Y-55816996D01*
X110991969Y-55812784D01*
X110847213Y-55668028D01*
X110681613Y-55547715D01*
X110681612Y-55547714D01*
X110681610Y-55547713D01*
X110624653Y-55518691D01*
X110499223Y-55454781D01*
X110304534Y-55391522D01*
X110129995Y-55363878D01*
X110102352Y-55359500D01*
X109897648Y-55359500D01*
X109873329Y-55363351D01*
X109695465Y-55391522D01*
X109500776Y-55454781D01*
X109318386Y-55547715D01*
X109152786Y-55668028D01*
X109152782Y-55668032D01*
X109087681Y-55733134D01*
X109026358Y-55766619D01*
X108956666Y-55761635D01*
X108912319Y-55733134D01*
X108847213Y-55668028D01*
X108681613Y-55547715D01*
X108681612Y-55547714D01*
X108681610Y-55547713D01*
X108624653Y-55518691D01*
X108499223Y-55454781D01*
X108304534Y-55391522D01*
X108129995Y-55363878D01*
X108102352Y-55359500D01*
X107897648Y-55359500D01*
X107873329Y-55363351D01*
X107695465Y-55391522D01*
X107500776Y-55454781D01*
X107318386Y-55547715D01*
X107152786Y-55668028D01*
X107008028Y-55812786D01*
X106887715Y-55978386D01*
X106794781Y-56160776D01*
X106731522Y-56355465D01*
X106699500Y-56557648D01*
X87494601Y-56557648D01*
X87493140Y-55761635D01*
X87489911Y-54002222D01*
X90981156Y-54002222D01*
X90981156Y-54134006D01*
X90986762Y-54154928D01*
X91015264Y-54261301D01*
X91048210Y-54318364D01*
X91081156Y-54375428D01*
X91174342Y-54468614D01*
X91288470Y-54534506D01*
X91415764Y-54568614D01*
X91415766Y-54568614D01*
X91547546Y-54568614D01*
X91547548Y-54568614D01*
X91674842Y-54534506D01*
X91788970Y-54468614D01*
X91882156Y-54375428D01*
X91948048Y-54261300D01*
X91982156Y-54134006D01*
X91982156Y-54002222D01*
X96761156Y-54002222D01*
X96761156Y-54134006D01*
X96766762Y-54154928D01*
X96795264Y-54261301D01*
X96828210Y-54318364D01*
X96861156Y-54375428D01*
X96954342Y-54468614D01*
X97068470Y-54534506D01*
X97195764Y-54568614D01*
X97195766Y-54568614D01*
X97327546Y-54568614D01*
X97327548Y-54568614D01*
X97454842Y-54534506D01*
X97568970Y-54468614D01*
X97662156Y-54375428D01*
X97715969Y-54282222D01*
X120576156Y-54282222D01*
X120576156Y-54414005D01*
X120610264Y-54541301D01*
X120643210Y-54598364D01*
X120676156Y-54655428D01*
X120769342Y-54748614D01*
X120883470Y-54814506D01*
X121010764Y-54848614D01*
X121010766Y-54848614D01*
X121142546Y-54848614D01*
X121142548Y-54848614D01*
X121269842Y-54814506D01*
X121383970Y-54748614D01*
X121477156Y-54655428D01*
X121543048Y-54541300D01*
X121577156Y-54414006D01*
X121577156Y-54282222D01*
X126356156Y-54282222D01*
X126356156Y-54414005D01*
X126390264Y-54541301D01*
X126423210Y-54598364D01*
X126456156Y-54655428D01*
X126549342Y-54748614D01*
X126663470Y-54814506D01*
X126790764Y-54848614D01*
X126790766Y-54848614D01*
X126922546Y-54848614D01*
X126922548Y-54848614D01*
X127049842Y-54814506D01*
X127163970Y-54748614D01*
X127257156Y-54655428D01*
X127311384Y-54561503D01*
X140581156Y-54561503D01*
X140581156Y-55734724D01*
X140603544Y-55876082D01*
X140608254Y-55905815D01*
X140661783Y-56070559D01*
X140740424Y-56224902D01*
X140842242Y-56365042D01*
X140964728Y-56487528D01*
X141104868Y-56589346D01*
X141259211Y-56667987D01*
X141423955Y-56721516D01*
X141595045Y-56748614D01*
X141595046Y-56748614D01*
X141768266Y-56748614D01*
X141768267Y-56748614D01*
X141939357Y-56721516D01*
X142104101Y-56667987D01*
X142258444Y-56589346D01*
X142398584Y-56487528D01*
X142521070Y-56365042D01*
X142622888Y-56224902D01*
X142701529Y-56070559D01*
X142755058Y-55905815D01*
X142782156Y-55734725D01*
X142782156Y-54561503D01*
X148281156Y-54561503D01*
X148281156Y-55734724D01*
X148303544Y-55876082D01*
X148308254Y-55905815D01*
X148361783Y-56070559D01*
X148440424Y-56224902D01*
X148542242Y-56365042D01*
X148664728Y-56487528D01*
X148804868Y-56589346D01*
X148959211Y-56667987D01*
X149123955Y-56721516D01*
X149295045Y-56748614D01*
X149295046Y-56748614D01*
X149468266Y-56748614D01*
X149468267Y-56748614D01*
X149639357Y-56721516D01*
X149804101Y-56667987D01*
X149958444Y-56589346D01*
X150098584Y-56487528D01*
X150221070Y-56365042D01*
X150322888Y-56224902D01*
X150401529Y-56070559D01*
X150455058Y-55905815D01*
X150482156Y-55734725D01*
X150482156Y-54561503D01*
X150455058Y-54390413D01*
X150401529Y-54225669D01*
X150322888Y-54071326D01*
X150221070Y-53931186D01*
X150098584Y-53808700D01*
X149958444Y-53706882D01*
X149804101Y-53628241D01*
X149639357Y-53574712D01*
X149639355Y-53574711D01*
X149639354Y-53574711D01*
X149507927Y-53553895D01*
X149468267Y-53547614D01*
X149295045Y-53547614D01*
X149255384Y-53553895D01*
X149123958Y-53574711D01*
X148959208Y-53628242D01*
X148804867Y-53706882D01*
X148730661Y-53760797D01*
X148664728Y-53808700D01*
X148664726Y-53808702D01*
X148664725Y-53808702D01*
X148542244Y-53931183D01*
X148542244Y-53931184D01*
X148542242Y-53931186D01*
X148530305Y-53947616D01*
X148440424Y-54071325D01*
X148361784Y-54225666D01*
X148308253Y-54390416D01*
X148281156Y-54561503D01*
X142782156Y-54561503D01*
X142755058Y-54390413D01*
X142701529Y-54225669D01*
X142622888Y-54071326D01*
X142521070Y-53931186D01*
X142398584Y-53808700D01*
X142258444Y-53706882D01*
X142104101Y-53628241D01*
X141939357Y-53574712D01*
X141939355Y-53574711D01*
X141939354Y-53574711D01*
X141807927Y-53553895D01*
X141768267Y-53547614D01*
X141595045Y-53547614D01*
X141555384Y-53553895D01*
X141423958Y-53574711D01*
X141259208Y-53628242D01*
X141104867Y-53706882D01*
X141030661Y-53760797D01*
X140964728Y-53808700D01*
X140964726Y-53808702D01*
X140964725Y-53808702D01*
X140842244Y-53931183D01*
X140842244Y-53931184D01*
X140842242Y-53931186D01*
X140830305Y-53947616D01*
X140740424Y-54071325D01*
X140661784Y-54225666D01*
X140608253Y-54390416D01*
X140581156Y-54561503D01*
X127311384Y-54561503D01*
X127323048Y-54541300D01*
X127357156Y-54414006D01*
X127357156Y-54282222D01*
X127323048Y-54154928D01*
X127257156Y-54040800D01*
X127163970Y-53947614D01*
X127106906Y-53914668D01*
X127049843Y-53881722D01*
X126986195Y-53864668D01*
X126922548Y-53847614D01*
X126790764Y-53847614D01*
X126663468Y-53881722D01*
X126549342Y-53947614D01*
X126549339Y-53947616D01*
X126456158Y-54040797D01*
X126456156Y-54040800D01*
X126390264Y-54154926D01*
X126356156Y-54282222D01*
X121577156Y-54282222D01*
X121543048Y-54154928D01*
X121477156Y-54040800D01*
X121383970Y-53947614D01*
X121326906Y-53914668D01*
X121269843Y-53881722D01*
X121206195Y-53864668D01*
X121142548Y-53847614D01*
X121010764Y-53847614D01*
X120883468Y-53881722D01*
X120769342Y-53947614D01*
X120769339Y-53947616D01*
X120676158Y-54040797D01*
X120676156Y-54040800D01*
X120610264Y-54154926D01*
X120576156Y-54282222D01*
X97715969Y-54282222D01*
X97728048Y-54261300D01*
X97762156Y-54134006D01*
X97762156Y-54002222D01*
X97728048Y-53874928D01*
X97662156Y-53760800D01*
X97568970Y-53667614D01*
X97500774Y-53628241D01*
X97454843Y-53601722D01*
X97354038Y-53574712D01*
X97327548Y-53567614D01*
X97195764Y-53567614D01*
X97068468Y-53601722D01*
X96954342Y-53667614D01*
X96954339Y-53667616D01*
X96861158Y-53760797D01*
X96861156Y-53760800D01*
X96795264Y-53874926D01*
X96761156Y-54002222D01*
X91982156Y-54002222D01*
X91948048Y-53874928D01*
X91882156Y-53760800D01*
X91788970Y-53667614D01*
X91720774Y-53628241D01*
X91674843Y-53601722D01*
X91574038Y-53574712D01*
X91547548Y-53567614D01*
X91415764Y-53567614D01*
X91288468Y-53601722D01*
X91174342Y-53667614D01*
X91174339Y-53667616D01*
X91081158Y-53760797D01*
X91081156Y-53760800D01*
X91015264Y-53874926D01*
X90981156Y-54002222D01*
X87489911Y-54002222D01*
X87489897Y-53994323D01*
X87489077Y-53547614D01*
X87487289Y-52573303D01*
X87453224Y-49303097D01*
X133256156Y-49303097D01*
X133256156Y-50653115D01*
X133256157Y-50653132D01*
X133266656Y-50755910D01*
X133266657Y-50755913D01*
X133321841Y-50922445D01*
X133321843Y-50922450D01*
X133345526Y-50960846D01*
X133413944Y-51071770D01*
X133538000Y-51195826D01*
X133687322Y-51287928D01*
X133853859Y-51343113D01*
X133956647Y-51353614D01*
X134756664Y-51353613D01*
X134756672Y-51353612D01*
X134756675Y-51353612D01*
X134812958Y-51347862D01*
X134859453Y-51343113D01*
X135025990Y-51287928D01*
X135175312Y-51195826D01*
X135299368Y-51071770D01*
X135338966Y-51007570D01*
X135390914Y-50960846D01*
X135459876Y-50949623D01*
X135523959Y-50977466D01*
X135532186Y-50984986D01*
X135639728Y-51092528D01*
X135779868Y-51194346D01*
X135934211Y-51272987D01*
X136098955Y-51326516D01*
X136270045Y-51353614D01*
X136270046Y-51353614D01*
X136443266Y-51353614D01*
X136443267Y-51353614D01*
X136614357Y-51326516D01*
X136779101Y-51272987D01*
X136933444Y-51194346D01*
X137073584Y-51092528D01*
X137196070Y-50970042D01*
X137256338Y-50887089D01*
X137311668Y-50844425D01*
X137381282Y-50838446D01*
X137443077Y-50871052D01*
X137456971Y-50887087D01*
X137517242Y-50970042D01*
X137639728Y-51092528D01*
X137779868Y-51194346D01*
X137934211Y-51272987D01*
X138098955Y-51326516D01*
X138270045Y-51353614D01*
X138270046Y-51353614D01*
X138443266Y-51353614D01*
X138443267Y-51353614D01*
X138614357Y-51326516D01*
X138779101Y-51272987D01*
X138933444Y-51194346D01*
X139073584Y-51092528D01*
X139196070Y-50970042D01*
X139297888Y-50829902D01*
X139376529Y-50675559D01*
X139430058Y-50510815D01*
X139457156Y-50339725D01*
X139457156Y-49616503D01*
X139430058Y-49445413D01*
X139376529Y-49280669D01*
X139370552Y-49268938D01*
X139364083Y-49256241D01*
X139337004Y-49203097D01*
X142656156Y-49203097D01*
X142656156Y-50553115D01*
X142656157Y-50553132D01*
X142666656Y-50655910D01*
X142666657Y-50655913D01*
X142721841Y-50822445D01*
X142721843Y-50822450D01*
X142745526Y-50860846D01*
X142813944Y-50971770D01*
X142938000Y-51095826D01*
X143087322Y-51187928D01*
X143253859Y-51243113D01*
X143356647Y-51253614D01*
X144156664Y-51253613D01*
X144156672Y-51253612D01*
X144156675Y-51253612D01*
X144212958Y-51247862D01*
X144259453Y-51243113D01*
X144425990Y-51187928D01*
X144575312Y-51095826D01*
X144699368Y-50971770D01*
X144738966Y-50907570D01*
X144790914Y-50860846D01*
X144859876Y-50849623D01*
X144923959Y-50877466D01*
X144932186Y-50884986D01*
X145039728Y-50992528D01*
X145179868Y-51094346D01*
X145334211Y-51172987D01*
X145498955Y-51226516D01*
X145670045Y-51253614D01*
X145670046Y-51253614D01*
X145843266Y-51253614D01*
X145843267Y-51253614D01*
X146014357Y-51226516D01*
X146179101Y-51172987D01*
X146333444Y-51094346D01*
X146473584Y-50992528D01*
X146596070Y-50870042D01*
X146656338Y-50787089D01*
X146711668Y-50744425D01*
X146781282Y-50738446D01*
X146843077Y-50771052D01*
X146856971Y-50787087D01*
X146917242Y-50870042D01*
X147039728Y-50992528D01*
X147179868Y-51094346D01*
X147334211Y-51172987D01*
X147498955Y-51226516D01*
X147670045Y-51253614D01*
X147670046Y-51253614D01*
X147843266Y-51253614D01*
X147843267Y-51253614D01*
X148014357Y-51226516D01*
X148179101Y-51172987D01*
X148333444Y-51094346D01*
X148473584Y-50992528D01*
X148596070Y-50870042D01*
X148697888Y-50729902D01*
X148776529Y-50575559D01*
X148830058Y-50410815D01*
X148857156Y-50239725D01*
X148857156Y-49516503D01*
X148830058Y-49345413D01*
X148776529Y-49180669D01*
X148697888Y-49026326D01*
X148596070Y-48886186D01*
X148473584Y-48763700D01*
X148333444Y-48661882D01*
X148179101Y-48583241D01*
X148014357Y-48529712D01*
X148014355Y-48529711D01*
X148014354Y-48529711D01*
X147882927Y-48508895D01*
X147843267Y-48502614D01*
X147670045Y-48502614D01*
X147630384Y-48508895D01*
X147498958Y-48529711D01*
X147334208Y-48583242D01*
X147179867Y-48661882D01*
X147099912Y-48719973D01*
X147039728Y-48763700D01*
X147039726Y-48763702D01*
X147039725Y-48763702D01*
X146917244Y-48886183D01*
X146917237Y-48886192D01*
X146856973Y-48969137D01*
X146801643Y-49011803D01*
X146732030Y-49017781D01*
X146670235Y-48985175D01*
X146656339Y-48969137D01*
X146596074Y-48886192D01*
X146596070Y-48886186D01*
X146473584Y-48763700D01*
X146333444Y-48661882D01*
X146179101Y-48583241D01*
X146014357Y-48529712D01*
X146014355Y-48529711D01*
X146014354Y-48529711D01*
X145882927Y-48508895D01*
X145843267Y-48502614D01*
X145670045Y-48502614D01*
X145630384Y-48508895D01*
X145498958Y-48529711D01*
X145334208Y-48583242D01*
X145179867Y-48661882D01*
X145039729Y-48763699D01*
X144932186Y-48871242D01*
X144870863Y-48904726D01*
X144801171Y-48899742D01*
X144745238Y-48857870D01*
X144738966Y-48848657D01*
X144699368Y-48784458D01*
X144575312Y-48660402D01*
X144450215Y-48583242D01*
X144425992Y-48568301D01*
X144425987Y-48568299D01*
X144424518Y-48567812D01*
X144259453Y-48513115D01*
X144259451Y-48513114D01*
X144156666Y-48502614D01*
X143356654Y-48502614D01*
X143356636Y-48502615D01*
X143253859Y-48513114D01*
X143253856Y-48513115D01*
X143087324Y-48568299D01*
X143087319Y-48568301D01*
X142937998Y-48660403D01*
X142813945Y-48784456D01*
X142721843Y-48933777D01*
X142721842Y-48933780D01*
X142666657Y-49100317D01*
X142666657Y-49100318D01*
X142666656Y-49100318D01*
X142656156Y-49203097D01*
X139337004Y-49203097D01*
X139325575Y-49180666D01*
X139297888Y-49126326D01*
X139196070Y-48986186D01*
X139073584Y-48863700D01*
X138933444Y-48761882D01*
X138779101Y-48683241D01*
X138614357Y-48629712D01*
X138614355Y-48629711D01*
X138614354Y-48629711D01*
X138482927Y-48608895D01*
X138443267Y-48602614D01*
X138270045Y-48602614D01*
X138230384Y-48608895D01*
X138098958Y-48629711D01*
X137934208Y-48683242D01*
X137779867Y-48761882D01*
X137699912Y-48819973D01*
X137639728Y-48863700D01*
X137639726Y-48863702D01*
X137639725Y-48863702D01*
X137517244Y-48986183D01*
X137517237Y-48986192D01*
X137456973Y-49069137D01*
X137401643Y-49111803D01*
X137332030Y-49117781D01*
X137270235Y-49085175D01*
X137256339Y-49069137D01*
X137196074Y-48986192D01*
X137196070Y-48986186D01*
X137073584Y-48863700D01*
X136933444Y-48761882D01*
X136779101Y-48683241D01*
X136614357Y-48629712D01*
X136614355Y-48629711D01*
X136614354Y-48629711D01*
X136482927Y-48608895D01*
X136443267Y-48602614D01*
X136270045Y-48602614D01*
X136230384Y-48608895D01*
X136098958Y-48629711D01*
X135934208Y-48683242D01*
X135779867Y-48761882D01*
X135639729Y-48863699D01*
X135532186Y-48971242D01*
X135470863Y-49004726D01*
X135401171Y-48999742D01*
X135345238Y-48957870D01*
X135338966Y-48948657D01*
X135308795Y-48899742D01*
X135299368Y-48884458D01*
X135175312Y-48760402D01*
X135050215Y-48683242D01*
X135025992Y-48668301D01*
X135025987Y-48668299D01*
X135002155Y-48660402D01*
X134859453Y-48613115D01*
X134859451Y-48613114D01*
X134756666Y-48602614D01*
X133956654Y-48602614D01*
X133956636Y-48602615D01*
X133853859Y-48613114D01*
X133853856Y-48613115D01*
X133687324Y-48668299D01*
X133687319Y-48668301D01*
X133537998Y-48760403D01*
X133413945Y-48884456D01*
X133321843Y-49033777D01*
X133321842Y-49033780D01*
X133266657Y-49200317D01*
X133266657Y-49200318D01*
X133266656Y-49200318D01*
X133256156Y-49303097D01*
X87453224Y-49303097D01*
X87452868Y-49268938D01*
X87444886Y-48502614D01*
X87437295Y-47773905D01*
X87456280Y-47706665D01*
X87508604Y-47660362D01*
X87561288Y-47648614D01*
X149410767Y-47648614D01*
X149410771Y-47648615D01*
G37*
%TD.AperFunction*%
%TD*%
M02*
