%TF.GenerationSoftware,KiCad,Pcbnew,9.0.4*%
%TF.CreationDate,2026-08-05T18:59:31+07:00*%
%TF.ProjectId,esp32-based-motherboard,65737033-322d-4626-9173-65642d6d6f74,rev?*%
%TF.SameCoordinates,Original*%
%TF.FileFunction,Legend,Top*%
%TF.FilePolarity,Positive*%
%FSLAX46Y46*%
G04 Gerber Fmt 4.6, Leading zero omitted, Abs format (unit mm)*
G04 Created by KiCad (PCBNEW 9.0.4) date 2026-08-05 18:59:31*
%MOMM*%
%LPD*%
G01*
G04 APERTURE LIST*
G04 Aperture macros list*
%AMRoundRect*
0 Rectangle with rounded corners*
0 $1 Rounding radius*
0 $2 $3 $4 $5 $6 $7 $8 $9 X,Y pos of 4 corners*
0 Add a 4 corners polygon primitive as box body*
4,1,4,$2,$3,$4,$5,$6,$7,$8,$9,$2,$3,0*
0 Add four circle primitives for the rounded corners*
1,1,$1+$1,$2,$3*
1,1,$1+$1,$4,$5*
1,1,$1+$1,$6,$7*
1,1,$1+$1,$8,$9*
0 Add four rect primitives between the rounded corners*
20,1,$1+$1,$2,$3,$4,$5,0*
20,1,$1+$1,$4,$5,$6,$7,0*
20,1,$1+$1,$6,$7,$8,$9,0*
20,1,$1+$1,$8,$9,$2,$3,0*%
G04 Aperture macros list end*
%ADD10C,0.150000*%
%ADD11C,0.250000*%
%ADD12C,0.120000*%
%ADD13C,0.127000*%
%ADD14C,0.200000*%
%ADD15C,0.100000*%
%ADD16RoundRect,0.225000X0.225000X0.250000X-0.225000X0.250000X-0.225000X-0.250000X0.225000X-0.250000X0*%
%ADD17RoundRect,0.250000X-0.550000X0.550000X-0.550000X-0.550000X0.550000X-0.550000X0.550000X0.550000X0*%
%ADD18C,1.600000*%
%ADD19RoundRect,0.200000X0.275000X-0.200000X0.275000X0.200000X-0.275000X0.200000X-0.275000X-0.200000X0*%
%ADD20RoundRect,0.225000X-0.225000X-0.250000X0.225000X-0.250000X0.225000X0.250000X-0.225000X0.250000X0*%
%ADD21RoundRect,0.112500X-0.187500X-0.112500X0.187500X-0.112500X0.187500X0.112500X-0.187500X0.112500X0*%
%ADD22RoundRect,0.250000X1.000000X0.900000X-1.000000X0.900000X-1.000000X-0.900000X1.000000X-0.900000X0*%
%ADD23RoundRect,0.200000X-0.275000X0.200000X-0.275000X-0.200000X0.275000X-0.200000X0.275000X0.200000X0*%
%ADD24RoundRect,0.200000X-0.200000X-0.275000X0.200000X-0.275000X0.200000X0.275000X-0.200000X0.275000X0*%
%ADD25RoundRect,0.062500X-0.375000X-0.062500X0.375000X-0.062500X0.375000X0.062500X-0.375000X0.062500X0*%
%ADD26RoundRect,0.062500X-0.062500X-0.375000X0.062500X-0.375000X0.062500X0.375000X-0.062500X0.375000X0*%
%ADD27R,2.500000X2.500000*%
%ADD28C,6.400000*%
%ADD29C,1.400000*%
%ADD30RoundRect,0.770000X0.980000X-0.980000X0.980000X0.980000X-0.980000X0.980000X-0.980000X-0.980000X0*%
%ADD31C,3.500000*%
%ADD32RoundRect,0.112500X-0.112500X0.187500X-0.112500X-0.187500X0.112500X-0.187500X0.112500X0.187500X0*%
%ADD33RoundRect,0.218750X0.256250X-0.218750X0.256250X0.218750X-0.256250X0.218750X-0.256250X-0.218750X0*%
%ADD34RoundRect,0.249999X0.850001X-1.100001X0.850001X1.100001X-0.850001X1.100001X-0.850001X-1.100001X0*%
%ADD35RoundRect,0.112500X0.187500X0.112500X-0.187500X0.112500X-0.187500X-0.112500X0.187500X-0.112500X0*%
%ADD36RoundRect,0.102000X0.350000X-0.750000X0.350000X0.750000X-0.350000X0.750000X-0.350000X-0.750000X0*%
%ADD37RoundRect,0.102000X0.750000X-0.350000X0.750000X0.350000X-0.750000X0.350000X-0.750000X-0.350000X0*%
%ADD38RoundRect,0.225000X-0.250000X0.225000X-0.250000X-0.225000X0.250000X-0.225000X0.250000X0.225000X0*%
%ADD39RoundRect,0.200000X0.200000X0.275000X-0.200000X0.275000X-0.200000X-0.275000X0.200000X-0.275000X0*%
%ADD40RoundRect,0.250000X-0.550000X-0.550000X0.550000X-0.550000X0.550000X0.550000X-0.550000X0.550000X0*%
%ADD41R,1.600000X1.500000*%
%ADD42C,3.000000*%
%ADD43C,3.250000*%
%ADD44RoundRect,0.250500X0.499500X0.499500X-0.499500X0.499500X-0.499500X-0.499500X0.499500X-0.499500X0*%
%ADD45C,1.500000*%
%ADD46C,2.500000*%
%ADD47RoundRect,0.250000X-1.000000X-0.650000X1.000000X-0.650000X1.000000X0.650000X-1.000000X0.650000X0*%
%ADD48RoundRect,0.200000X0.800000X-0.200000X0.800000X0.200000X-0.800000X0.200000X-0.800000X-0.200000X0*%
%ADD49RoundRect,0.225000X0.250000X-0.225000X0.250000X0.225000X-0.250000X0.225000X-0.250000X-0.225000X0*%
%ADD50RoundRect,0.218750X-0.218750X-0.256250X0.218750X-0.256250X0.218750X0.256250X-0.218750X0.256250X0*%
%ADD51RoundRect,0.225000X-0.017678X0.335876X-0.335876X0.017678X0.017678X-0.335876X0.335876X-0.017678X0*%
%ADD52C,0.600000*%
%ADD53R,0.600000X1.160000*%
%ADD54R,0.300000X1.160000*%
%ADD55O,0.900000X2.000000*%
%ADD56O,0.900000X1.700000*%
%ADD57RoundRect,0.250000X-0.350000X-0.625000X0.350000X-0.625000X0.350000X0.625000X-0.350000X0.625000X0*%
%ADD58O,1.200000X1.750000*%
%ADD59C,2.700000*%
%ADD60RoundRect,0.770000X-0.980000X0.980000X-0.980000X-0.980000X0.980000X-0.980000X0.980000X0.980000X0*%
%ADD61RoundRect,0.200000X-0.800000X0.200000X-0.800000X-0.200000X0.800000X-0.200000X0.800000X0.200000X0*%
%ADD62RoundRect,0.112500X0.112500X-0.187500X0.112500X0.187500X-0.112500X0.187500X-0.112500X-0.187500X0*%
%ADD63RoundRect,0.375000X0.375000X-0.625000X0.375000X0.625000X-0.375000X0.625000X-0.375000X-0.625000X0*%
%ADD64RoundRect,0.500000X1.400000X-0.500000X1.400000X0.500000X-1.400000X0.500000X-1.400000X-0.500000X0*%
%ADD65O,1.200000X2.200000*%
%ADD66RoundRect,0.062500X-0.350000X-0.062500X0.350000X-0.062500X0.350000X0.062500X-0.350000X0.062500X0*%
%ADD67RoundRect,0.062500X-0.062500X-0.350000X0.062500X-0.350000X0.062500X0.350000X-0.062500X0.350000X0*%
%ADD68R,2.600000X2.600000*%
%ADD69RoundRect,0.250000X0.550000X-0.550000X0.550000X0.550000X-0.550000X0.550000X-0.550000X-0.550000X0*%
%ADD70RoundRect,0.218750X-0.256250X0.218750X-0.256250X-0.218750X0.256250X-0.218750X0.256250X0.218750X0*%
%ADD71RoundRect,0.250000X2.050000X0.300000X-2.050000X0.300000X-2.050000X-0.300000X2.050000X-0.300000X0*%
%ADD72RoundRect,0.250002X4.449998X5.149998X-4.449998X5.149998X-4.449998X-5.149998X4.449998X-5.149998X0*%
%ADD73RoundRect,0.150000X0.150000X-0.875000X0.150000X0.875000X-0.150000X0.875000X-0.150000X-0.875000X0*%
%ADD74R,1.160000X0.600000*%
%ADD75R,1.160000X0.300000*%
%ADD76O,2.000000X0.900000*%
%ADD77O,1.700000X0.900000*%
%ADD78RoundRect,0.200000X0.200000X0.800000X-0.200000X0.800000X-0.200000X-0.800000X0.200000X-0.800000X0*%
%ADD79RoundRect,0.225000X0.017678X-0.335876X0.335876X-0.017678X-0.017678X0.335876X-0.335876X0.017678X0*%
%ADD80RoundRect,0.250000X-0.450000X-0.350000X0.450000X-0.350000X0.450000X0.350000X-0.450000X0.350000X0*%
%ADD81RoundRect,0.200000X-0.200000X-0.800000X0.200000X-0.800000X0.200000X0.800000X-0.200000X0.800000X0*%
G04 APERTURE END LIST*
D10*
X82066356Y-118719542D02*
X82066356Y-117576685D01*
X82637784Y-118148113D02*
X81494927Y-118148113D01*
X82066356Y-107719542D02*
X82066356Y-106576685D01*
X137641356Y-113969542D02*
X137641356Y-112826685D01*
X138212784Y-113398113D02*
X137069927Y-113398113D01*
X137641356Y-102969542D02*
X137641356Y-101826685D01*
X81921356Y-102529542D02*
X81921356Y-101386685D01*
X81921356Y-91529542D02*
X81921356Y-90386685D01*
X82492784Y-90958113D02*
X81349927Y-90958113D01*
D11*
X142946275Y-55705069D02*
X142946275Y-55514593D01*
X142946275Y-55514593D02*
X142993894Y-55419355D01*
X142993894Y-55419355D02*
X143089132Y-55324117D01*
X143089132Y-55324117D02*
X143279608Y-55276498D01*
X143279608Y-55276498D02*
X143612941Y-55276498D01*
X143612941Y-55276498D02*
X143803417Y-55324117D01*
X143803417Y-55324117D02*
X143898656Y-55419355D01*
X143898656Y-55419355D02*
X143946275Y-55514593D01*
X143946275Y-55514593D02*
X143946275Y-55705069D01*
X143946275Y-55705069D02*
X143898656Y-55800307D01*
X143898656Y-55800307D02*
X143803417Y-55895545D01*
X143803417Y-55895545D02*
X143612941Y-55943164D01*
X143612941Y-55943164D02*
X143279608Y-55943164D01*
X143279608Y-55943164D02*
X143089132Y-55895545D01*
X143089132Y-55895545D02*
X142993894Y-55800307D01*
X142993894Y-55800307D02*
X142946275Y-55705069D01*
X143946275Y-54847926D02*
X142946275Y-54847926D01*
X142946275Y-54847926D02*
X143946275Y-54276498D01*
X143946275Y-54276498D02*
X142946275Y-54276498D01*
D10*
X137821356Y-98499542D02*
X137821356Y-97356685D01*
X138392784Y-97928113D02*
X137249927Y-97928113D01*
X137821356Y-87499542D02*
X137821356Y-86356685D01*
D12*
%TO.C,C22*%
X99652236Y-91703114D02*
X99371076Y-91703114D01*
X99652236Y-92723114D02*
X99371076Y-92723114D01*
%TO.C,C27*%
X87276656Y-97018114D02*
X85095656Y-97018114D01*
X87276656Y-97058114D02*
X85098656Y-97058114D01*
X87276656Y-97098114D02*
X85102656Y-97098114D01*
X87276656Y-97138114D02*
X85106656Y-97138114D01*
X87276656Y-97178114D02*
X85111656Y-97178114D01*
X87276656Y-97218114D02*
X85116656Y-97218114D01*
X87276656Y-97258114D02*
X85121656Y-97258114D01*
X87276656Y-97298114D02*
X85128656Y-97298114D01*
X87276656Y-97338114D02*
X85134656Y-97338114D01*
X87276656Y-97378114D02*
X85142656Y-97378114D01*
X87276656Y-97418114D02*
X85149656Y-97418114D01*
X87276656Y-97458114D02*
X85157656Y-97458114D01*
X87276656Y-97498114D02*
X85166656Y-97498114D01*
X87276656Y-97538114D02*
X85176656Y-97538114D01*
X87276656Y-97578114D02*
X85185656Y-97578114D01*
X87276656Y-97618114D02*
X85196656Y-97618114D01*
X87276656Y-97658114D02*
X85207656Y-97658114D01*
X87276656Y-97698114D02*
X85218656Y-97698114D01*
X87276656Y-97738114D02*
X85230656Y-97738114D01*
X87276656Y-97778114D02*
X85243656Y-97778114D01*
X87276656Y-97818114D02*
X85256656Y-97818114D01*
X87276656Y-97858114D02*
X85269656Y-97858114D01*
X87276656Y-97898114D02*
X85284656Y-97898114D01*
X87276656Y-97938114D02*
X85299656Y-97938114D01*
X87276656Y-97978114D02*
X85314656Y-97978114D01*
X87276656Y-98018114D02*
X85330656Y-98018114D01*
X87276656Y-98058114D02*
X85347656Y-98058114D01*
X87276656Y-98098114D02*
X85364656Y-98098114D01*
X87276656Y-98138114D02*
X85382656Y-98138114D01*
X87276656Y-98178114D02*
X85401656Y-98178114D01*
X87276656Y-98218114D02*
X85420656Y-98218114D01*
X87276656Y-98258114D02*
X85440656Y-98258114D01*
X87276656Y-98298114D02*
X85461656Y-98298114D01*
X87276656Y-98338114D02*
X85482656Y-98338114D01*
X87276656Y-98378114D02*
X85504656Y-98378114D01*
X87276656Y-98418114D02*
X85527656Y-98418114D01*
X87276656Y-98458114D02*
X85551656Y-98458114D01*
X87276656Y-98498114D02*
X85575656Y-98498114D01*
X87276656Y-98538114D02*
X85600656Y-98538114D01*
X87276656Y-98578114D02*
X85626656Y-98578114D01*
X87276656Y-98618114D02*
X85653656Y-98618114D01*
X87276656Y-98658114D02*
X85680656Y-98658114D01*
X87276656Y-98698114D02*
X85709656Y-98698114D01*
X87276656Y-98738114D02*
X85739656Y-98738114D01*
X87276656Y-98778114D02*
X85769656Y-98778114D01*
X87276656Y-98818114D02*
X85800656Y-98818114D01*
X87276656Y-98858114D02*
X85833656Y-98858114D01*
X87276656Y-98898114D02*
X85866656Y-98898114D01*
X87276656Y-98938114D02*
X85901656Y-98938114D01*
X87276656Y-98978114D02*
X85937656Y-98978114D01*
X87276656Y-99018114D02*
X85974656Y-99018114D01*
X87276656Y-99058114D02*
X86012656Y-99058114D01*
X88718656Y-100018114D02*
X87914656Y-100018114D01*
X88949656Y-99978114D02*
X87683656Y-99978114D01*
X89117656Y-99938114D02*
X87515656Y-99938114D01*
X89255656Y-99898114D02*
X87377656Y-99898114D01*
X89374656Y-99858114D02*
X87258656Y-99858114D01*
X89481656Y-99818114D02*
X87151656Y-99818114D01*
X89577656Y-99778114D02*
X87055656Y-99778114D01*
X89666656Y-99738114D02*
X86966656Y-99738114D01*
X89748656Y-99698114D02*
X86884656Y-99698114D01*
X89825656Y-99658114D02*
X86807656Y-99658114D01*
X89897656Y-99618114D02*
X86735656Y-99618114D01*
X89965656Y-99578114D02*
X86667656Y-99578114D01*
X90030656Y-99538114D02*
X86602656Y-99538114D01*
X90091656Y-99498114D02*
X86541656Y-99498114D01*
X90150656Y-99458114D02*
X86482656Y-99458114D01*
X90155656Y-93277873D02*
X90155656Y-93907873D01*
X90206656Y-99418114D02*
X86426656Y-99418114D01*
X90259656Y-99378114D02*
X86373656Y-99378114D01*
X90311656Y-99338114D02*
X86321656Y-99338114D01*
X90360656Y-99298114D02*
X86272656Y-99298114D01*
X90407656Y-99258114D02*
X86225656Y-99258114D01*
X90453656Y-99218114D02*
X86179656Y-99218114D01*
X90470656Y-93592873D02*
X89840656Y-93592873D01*
X90497656Y-99178114D02*
X86135656Y-99178114D01*
X90539656Y-99138114D02*
X86093656Y-99138114D01*
X90580656Y-99098114D02*
X86052656Y-99098114D01*
X90620656Y-99058114D02*
X89356656Y-99058114D01*
X90658656Y-99018114D02*
X89356656Y-99018114D01*
X90695656Y-98978114D02*
X89356656Y-98978114D01*
X90731656Y-98938114D02*
X89356656Y-98938114D01*
X90766656Y-98898114D02*
X89356656Y-98898114D01*
X90799656Y-98858114D02*
X89356656Y-98858114D01*
X90832656Y-98818114D02*
X89356656Y-98818114D01*
X90863656Y-98778114D02*
X89356656Y-98778114D01*
X90893656Y-98738114D02*
X89356656Y-98738114D01*
X90923656Y-98698114D02*
X89356656Y-98698114D01*
X90952656Y-98658114D02*
X89356656Y-98658114D01*
X90979656Y-98618114D02*
X89356656Y-98618114D01*
X91006656Y-98578114D02*
X89356656Y-98578114D01*
X91032656Y-98538114D02*
X89356656Y-98538114D01*
X91057656Y-98498114D02*
X89356656Y-98498114D01*
X91081656Y-98458114D02*
X89356656Y-98458114D01*
X91105656Y-98418114D02*
X89356656Y-98418114D01*
X91128656Y-98378114D02*
X89356656Y-98378114D01*
X91150656Y-98338114D02*
X89356656Y-98338114D01*
X91171656Y-98298114D02*
X89356656Y-98298114D01*
X91192656Y-98258114D02*
X89356656Y-98258114D01*
X91212656Y-98218114D02*
X89356656Y-98218114D01*
X91231656Y-98178114D02*
X89356656Y-98178114D01*
X91250656Y-98138114D02*
X89356656Y-98138114D01*
X91268656Y-98098114D02*
X89356656Y-98098114D01*
X91285656Y-98058114D02*
X89356656Y-98058114D01*
X91302656Y-98018114D02*
X89356656Y-98018114D01*
X91318656Y-97978114D02*
X89356656Y-97978114D01*
X91333656Y-97938114D02*
X89356656Y-97938114D01*
X91348656Y-97898114D02*
X89356656Y-97898114D01*
X91363656Y-97858114D02*
X89356656Y-97858114D01*
X91376656Y-97818114D02*
X89356656Y-97818114D01*
X91389656Y-97778114D02*
X89356656Y-97778114D01*
X91402656Y-97738114D02*
X89356656Y-97738114D01*
X91414656Y-97698114D02*
X89356656Y-97698114D01*
X91425656Y-97658114D02*
X89356656Y-97658114D01*
X91436656Y-97618114D02*
X89356656Y-97618114D01*
X91447656Y-97578114D02*
X89356656Y-97578114D01*
X91456656Y-97538114D02*
X89356656Y-97538114D01*
X91466656Y-97498114D02*
X89356656Y-97498114D01*
X91475656Y-97458114D02*
X89356656Y-97458114D01*
X91483656Y-97418114D02*
X89356656Y-97418114D01*
X91490656Y-97378114D02*
X89356656Y-97378114D01*
X91498656Y-97338114D02*
X89356656Y-97338114D01*
X91504656Y-97298114D02*
X89356656Y-97298114D01*
X91511656Y-97258114D02*
X89356656Y-97258114D01*
X91516656Y-97218114D02*
X89356656Y-97218114D01*
X91521656Y-97178114D02*
X89356656Y-97178114D01*
X91526656Y-97138114D02*
X89356656Y-97138114D01*
X91530656Y-97098114D02*
X89356656Y-97098114D01*
X91534656Y-97058114D02*
X89356656Y-97058114D01*
X91537656Y-97018114D02*
X89356656Y-97018114D01*
X91540656Y-96978114D02*
X85092656Y-96978114D01*
X91542656Y-96938114D02*
X85090656Y-96938114D01*
X91544656Y-96898114D02*
X85088656Y-96898114D01*
X91545656Y-96858114D02*
X85087656Y-96858114D01*
X91546656Y-96778114D02*
X85086656Y-96778114D01*
X91546656Y-96818114D02*
X85086656Y-96818114D01*
X91586656Y-96778114D02*
G75*
G02*
X85046656Y-96778114I-3270000J0D01*
G01*
X85046656Y-96778114D02*
G75*
G02*
X91586656Y-96778114I3270000J0D01*
G01*
%TO.C,R21*%
X117764156Y-102475372D02*
X117764156Y-102000856D01*
X118809156Y-102475372D02*
X118809156Y-102000856D01*
%TO.C,C34*%
X99184420Y-58480000D02*
X99465580Y-58480000D01*
X99184420Y-59500000D02*
X99465580Y-59500000D01*
%TO.C,D4*%
X121390000Y-57750000D02*
X121390000Y-59450000D01*
X121390000Y-57750000D02*
X124050000Y-57750000D01*
X121390000Y-59450000D02*
X124050000Y-59450000D01*
%TO.C,D15*%
X101010000Y-115050000D02*
X95200000Y-115050000D01*
X101010000Y-119350000D02*
X95200000Y-119350000D01*
X101010000Y-119350000D02*
X101010000Y-115050000D01*
%TO.C,R3*%
X95077500Y-58262742D02*
X95077500Y-58737258D01*
X96122500Y-58262742D02*
X96122500Y-58737258D01*
%TO.C,R5*%
X119437742Y-65777500D02*
X119912258Y-65777500D01*
X119437742Y-66822500D02*
X119912258Y-66822500D01*
%TO.C,U4*%
X96216656Y-85628114D02*
X96691656Y-85628114D01*
X96216656Y-86103114D02*
X96216656Y-85628114D01*
X96216656Y-89848114D02*
X96216656Y-89373114D01*
X96691656Y-89848114D02*
X96216656Y-89848114D01*
X99961656Y-85628114D02*
X100436656Y-85628114D01*
X100436656Y-85628114D02*
X100436656Y-86103114D01*
X100436656Y-89373114D02*
X100436656Y-89848114D01*
X100436656Y-89848114D02*
X99961656Y-89848114D01*
X95686656Y-86488114D02*
X95356656Y-86728114D01*
X95356656Y-86248114D01*
X95686656Y-86488114D01*
G36*
X95686656Y-86488114D02*
G01*
X95356656Y-86728114D01*
X95356656Y-86248114D01*
X95686656Y-86488114D01*
G37*
%TO.C,J8*%
X68741656Y-107588114D02*
X70841656Y-107588114D01*
X68741656Y-117708114D02*
X68741656Y-107588114D01*
X68741656Y-117708114D02*
X70841656Y-117708114D01*
X70841656Y-107588114D02*
X70841656Y-106998114D01*
X70841656Y-118298114D02*
X70841656Y-117708114D01*
X73061656Y-107588114D02*
X73061656Y-106998114D01*
X73061656Y-107588114D02*
X77961656Y-107588114D01*
X73061656Y-117708114D02*
X77961656Y-117708114D01*
X73061656Y-118298114D02*
X73061656Y-117708114D01*
X77961656Y-117708114D02*
X77961656Y-107588114D01*
X70841656Y-106998114D02*
G75*
G02*
X73061656Y-106998114I1110000J0D01*
G01*
X73061656Y-118298114D02*
G75*
G02*
X70841656Y-118298114I-1110000J0D01*
G01*
%TO.C,D10*%
X79050000Y-78290000D02*
X79050000Y-80950000D01*
X80750000Y-78290000D02*
X79050000Y-78290000D01*
X80750000Y-78290000D02*
X80750000Y-80950000D01*
%TO.C,D20*%
X120431656Y-108868114D02*
X120431656Y-111153114D01*
X120431656Y-111153114D02*
X121901656Y-111153114D01*
X121901656Y-111153114D02*
X121901656Y-108868114D01*
%TO.C,L2*%
X133886656Y-118398114D02*
X136086656Y-118398114D01*
X133886656Y-125518114D02*
X133886656Y-118398114D01*
X136086656Y-125518114D02*
X133886656Y-125518114D01*
X138806656Y-118398114D02*
X141006656Y-118398114D01*
X141006656Y-118398114D02*
X141006656Y-125518114D01*
X141006656Y-125518114D02*
X138806656Y-125518114D01*
%TO.C,D7*%
X96990000Y-61450000D02*
X94330000Y-61450000D01*
X96990000Y-63150000D02*
X94330000Y-63150000D01*
X96990000Y-63150000D02*
X96990000Y-61450000D01*
%TO.C,L1*%
X104156656Y-104878114D02*
X106356656Y-104878114D01*
X104156656Y-111998114D02*
X104156656Y-104878114D01*
X106356656Y-111998114D02*
X104156656Y-111998114D01*
X109076656Y-104878114D02*
X111276656Y-104878114D01*
X111276656Y-104878114D02*
X111276656Y-111998114D01*
X111276656Y-111998114D02*
X109076656Y-111998114D01*
D13*
%TO.C,U1*%
X105276656Y-73148114D02*
X105276656Y-74448114D01*
X105276656Y-96848114D02*
X105276656Y-98148114D01*
X105276656Y-98148114D02*
X106576656Y-98148114D01*
X106576656Y-73148114D02*
X105276656Y-73148114D01*
X128976656Y-98148114D02*
X130276656Y-98148114D01*
X130276656Y-73148114D02*
X128976656Y-73148114D01*
X130276656Y-74448114D02*
X130276656Y-73148114D01*
X130276656Y-98148114D02*
X130276656Y-96848114D01*
D14*
X107376656Y-99398114D02*
G75*
G02*
X107176656Y-99398114I-100000J0D01*
G01*
X107176656Y-99398114D02*
G75*
G02*
X107376656Y-99398114I100000J0D01*
G01*
D12*
%TO.C,C17*%
X146006656Y-62417534D02*
X146006656Y-62698694D01*
X147026656Y-62417534D02*
X147026656Y-62698694D01*
%TO.C,R25*%
X92348914Y-81085614D02*
X91874398Y-81085614D01*
X92348914Y-82130614D02*
X91874398Y-82130614D01*
%TO.C,R30*%
X120669156Y-106230856D02*
X120669156Y-106705372D01*
X121714156Y-106230856D02*
X121714156Y-106705372D01*
%TO.C,R22*%
X139231656Y-55010856D02*
X139231656Y-55485372D01*
X140276656Y-55010856D02*
X140276656Y-55485372D01*
%TO.C,C29*%
X142614036Y-116559114D02*
X143244036Y-116559114D01*
X142929036Y-116244114D02*
X142929036Y-116874114D01*
X146114277Y-115168114D02*
X146114277Y-121628114D01*
X146154277Y-115168114D02*
X146154277Y-121628114D01*
X146194277Y-115169114D02*
X146194277Y-121627114D01*
X146234277Y-115170114D02*
X146234277Y-121626114D01*
X146274277Y-115172114D02*
X146274277Y-121624114D01*
X146314277Y-115174114D02*
X146314277Y-121622114D01*
X146354277Y-115177114D02*
X146354277Y-117358114D01*
X146354277Y-119438114D02*
X146354277Y-121619114D01*
X146394277Y-115180114D02*
X146394277Y-117358114D01*
X146394277Y-119438114D02*
X146394277Y-121616114D01*
X146434277Y-115184114D02*
X146434277Y-117358114D01*
X146434277Y-119438114D02*
X146434277Y-121612114D01*
X146474277Y-115188114D02*
X146474277Y-117358114D01*
X146474277Y-119438114D02*
X146474277Y-121608114D01*
X146514277Y-115193114D02*
X146514277Y-117358114D01*
X146514277Y-119438114D02*
X146514277Y-121603114D01*
X146554277Y-115198114D02*
X146554277Y-117358114D01*
X146554277Y-119438114D02*
X146554277Y-121598114D01*
X146594277Y-115203114D02*
X146594277Y-117358114D01*
X146594277Y-119438114D02*
X146594277Y-121593114D01*
X146634277Y-115210114D02*
X146634277Y-117358114D01*
X146634277Y-119438114D02*
X146634277Y-121586114D01*
X146674277Y-115216114D02*
X146674277Y-117358114D01*
X146674277Y-119438114D02*
X146674277Y-121580114D01*
X146714277Y-115224114D02*
X146714277Y-117358114D01*
X146714277Y-119438114D02*
X146714277Y-121572114D01*
X146754277Y-115231114D02*
X146754277Y-117358114D01*
X146754277Y-119438114D02*
X146754277Y-121565114D01*
X146794277Y-115239114D02*
X146794277Y-117358114D01*
X146794277Y-119438114D02*
X146794277Y-121557114D01*
X146834277Y-115248114D02*
X146834277Y-117358114D01*
X146834277Y-119438114D02*
X146834277Y-121548114D01*
X146874277Y-115258114D02*
X146874277Y-117358114D01*
X146874277Y-119438114D02*
X146874277Y-121538114D01*
X146914277Y-115267114D02*
X146914277Y-117358114D01*
X146914277Y-119438114D02*
X146914277Y-121529114D01*
X146954277Y-115278114D02*
X146954277Y-117358114D01*
X146954277Y-119438114D02*
X146954277Y-121518114D01*
X146994277Y-115289114D02*
X146994277Y-117358114D01*
X146994277Y-119438114D02*
X146994277Y-121507114D01*
X147034277Y-115300114D02*
X147034277Y-117358114D01*
X147034277Y-119438114D02*
X147034277Y-121496114D01*
X147074277Y-115312114D02*
X147074277Y-117358114D01*
X147074277Y-119438114D02*
X147074277Y-121484114D01*
X147114277Y-115325114D02*
X147114277Y-117358114D01*
X147114277Y-119438114D02*
X147114277Y-121471114D01*
X147154277Y-115338114D02*
X147154277Y-117358114D01*
X147154277Y-119438114D02*
X147154277Y-121458114D01*
X147194277Y-115351114D02*
X147194277Y-117358114D01*
X147194277Y-119438114D02*
X147194277Y-121445114D01*
X147234277Y-115366114D02*
X147234277Y-117358114D01*
X147234277Y-119438114D02*
X147234277Y-121430114D01*
X147274277Y-115381114D02*
X147274277Y-117358114D01*
X147274277Y-119438114D02*
X147274277Y-121415114D01*
X147314277Y-115396114D02*
X147314277Y-117358114D01*
X147314277Y-119438114D02*
X147314277Y-121400114D01*
X147354277Y-115412114D02*
X147354277Y-117358114D01*
X147354277Y-119438114D02*
X147354277Y-121384114D01*
X147394277Y-115429114D02*
X147394277Y-117358114D01*
X147394277Y-119438114D02*
X147394277Y-121367114D01*
X147434277Y-115446114D02*
X147434277Y-117358114D01*
X147434277Y-119438114D02*
X147434277Y-121350114D01*
X147474277Y-115464114D02*
X147474277Y-117358114D01*
X147474277Y-119438114D02*
X147474277Y-121332114D01*
X147514277Y-115483114D02*
X147514277Y-117358114D01*
X147514277Y-119438114D02*
X147514277Y-121313114D01*
X147554277Y-115502114D02*
X147554277Y-117358114D01*
X147554277Y-119438114D02*
X147554277Y-121294114D01*
X147594277Y-115522114D02*
X147594277Y-117358114D01*
X147594277Y-119438114D02*
X147594277Y-121274114D01*
X147634277Y-115543114D02*
X147634277Y-117358114D01*
X147634277Y-119438114D02*
X147634277Y-121253114D01*
X147674277Y-115564114D02*
X147674277Y-117358114D01*
X147674277Y-119438114D02*
X147674277Y-121232114D01*
X147714277Y-115586114D02*
X147714277Y-117358114D01*
X147714277Y-119438114D02*
X147714277Y-121210114D01*
X147754277Y-115609114D02*
X147754277Y-117358114D01*
X147754277Y-119438114D02*
X147754277Y-121187114D01*
X147794277Y-115633114D02*
X147794277Y-117358114D01*
X147794277Y-119438114D02*
X147794277Y-121163114D01*
X147834277Y-115657114D02*
X147834277Y-117358114D01*
X147834277Y-119438114D02*
X147834277Y-121139114D01*
X147874277Y-115682114D02*
X147874277Y-117358114D01*
X147874277Y-119438114D02*
X147874277Y-121114114D01*
X147914277Y-115708114D02*
X147914277Y-117358114D01*
X147914277Y-119438114D02*
X147914277Y-121088114D01*
X147954277Y-115735114D02*
X147954277Y-117358114D01*
X147954277Y-119438114D02*
X147954277Y-121061114D01*
X147994277Y-115762114D02*
X147994277Y-117358114D01*
X147994277Y-119438114D02*
X147994277Y-121034114D01*
X148034277Y-115791114D02*
X148034277Y-117358114D01*
X148034277Y-119438114D02*
X148034277Y-121005114D01*
X148074277Y-115821114D02*
X148074277Y-117358114D01*
X148074277Y-119438114D02*
X148074277Y-120975114D01*
X148114277Y-115851114D02*
X148114277Y-117358114D01*
X148114277Y-119438114D02*
X148114277Y-120945114D01*
X148154277Y-115882114D02*
X148154277Y-117358114D01*
X148154277Y-119438114D02*
X148154277Y-120914114D01*
X148194277Y-115915114D02*
X148194277Y-117358114D01*
X148194277Y-119438114D02*
X148194277Y-120881114D01*
X148234277Y-115948114D02*
X148234277Y-117358114D01*
X148234277Y-119438114D02*
X148234277Y-120848114D01*
X148274277Y-115983114D02*
X148274277Y-117358114D01*
X148274277Y-119438114D02*
X148274277Y-120813114D01*
X148314277Y-116019114D02*
X148314277Y-117358114D01*
X148314277Y-119438114D02*
X148314277Y-120777114D01*
X148354277Y-116056114D02*
X148354277Y-117358114D01*
X148354277Y-119438114D02*
X148354277Y-120740114D01*
X148394277Y-116094114D02*
X148394277Y-117358114D01*
X148394277Y-119438114D02*
X148394277Y-120702114D01*
X148434277Y-116134114D02*
X148434277Y-120662114D01*
X148474277Y-116175114D02*
X148474277Y-120621114D01*
X148514277Y-116217114D02*
X148514277Y-120579114D01*
X148554277Y-116261114D02*
X148554277Y-120535114D01*
X148594277Y-116307114D02*
X148594277Y-120489114D01*
X148634277Y-116354114D02*
X148634277Y-120442114D01*
X148674277Y-116403114D02*
X148674277Y-120393114D01*
X148714277Y-116455114D02*
X148714277Y-120341114D01*
X148754277Y-116508114D02*
X148754277Y-120288114D01*
X148794277Y-116564114D02*
X148794277Y-120232114D01*
X148834277Y-116623114D02*
X148834277Y-120173114D01*
X148874277Y-116684114D02*
X148874277Y-120112114D01*
X148914277Y-116749114D02*
X148914277Y-120047114D01*
X148954277Y-116817114D02*
X148954277Y-119979114D01*
X148994277Y-116889114D02*
X148994277Y-119907114D01*
X149034277Y-116966114D02*
X149034277Y-119830114D01*
X149074277Y-117048114D02*
X149074277Y-119748114D01*
X149114277Y-117137114D02*
X149114277Y-119659114D01*
X149154277Y-117233114D02*
X149154277Y-119563114D01*
X149194277Y-117340114D02*
X149194277Y-119456114D01*
X149234277Y-117459114D02*
X149234277Y-119337114D01*
X149274277Y-117597114D02*
X149274277Y-119199114D01*
X149314277Y-117765114D02*
X149314277Y-119031114D01*
X149354277Y-117996114D02*
X149354277Y-118800114D01*
X149384277Y-118398114D02*
G75*
G02*
X142844277Y-118398114I-3270000J0D01*
G01*
X142844277Y-118398114D02*
G75*
G02*
X149384277Y-118398114I3270000J0D01*
G01*
%TO.C,C6*%
X82851076Y-87208114D02*
X83132236Y-87208114D01*
X82851076Y-88228114D02*
X83132236Y-88228114D01*
%TO.C,J1*%
X101690000Y-43560000D02*
X101690000Y-44080000D01*
X101690000Y-44080000D02*
X102340000Y-44080000D01*
X102340000Y-52190000D02*
X102340000Y-44080000D01*
X102340000Y-59040000D02*
X102340000Y-55710000D01*
X113400000Y-59260000D02*
X111600000Y-59260000D01*
X115660000Y-44080000D02*
X115660000Y-52190000D01*
X115660000Y-44080000D02*
X116310000Y-44080000D01*
X115660000Y-59040000D02*
X102340000Y-59040000D01*
X115660000Y-59040000D02*
X115660000Y-55710000D01*
X116310000Y-43560000D02*
X101690000Y-43560000D01*
X116310000Y-44080000D02*
X116310000Y-43560000D01*
%TO.C,J7*%
X68901656Y-54928114D02*
X68901656Y-47908114D01*
X68901656Y-64008114D02*
X68901656Y-58208114D01*
X85161656Y-54928114D02*
X85161656Y-47908114D01*
X85161656Y-64008114D02*
X68901656Y-64008114D01*
X85161656Y-64008114D02*
X85161656Y-58208114D01*
X85391656Y-60758114D02*
X85391656Y-58958114D01*
%TO.C,D16*%
X104399156Y-112978114D02*
X104399156Y-116278114D01*
X104399156Y-112978114D02*
X109909156Y-112978114D01*
X104399156Y-116278114D02*
X109909156Y-116278114D01*
%TO.C,C33*%
X128284420Y-58290000D02*
X128565580Y-58290000D01*
X128284420Y-59310000D02*
X128565580Y-59310000D01*
%TO.C,C10*%
X138157236Y-73888114D02*
X137876076Y-73888114D01*
X138157236Y-74908114D02*
X137876076Y-74908114D01*
%TO.C,SW2*%
X99330000Y-70630000D02*
X99630000Y-70630000D01*
X99330000Y-74770000D02*
X99330000Y-70630000D01*
X99630000Y-74770000D02*
X99330000Y-74770000D01*
X102170000Y-70630000D02*
X102470000Y-70630000D01*
X102470000Y-70630000D02*
X102470000Y-74770000D01*
X102470000Y-74770000D02*
X102170000Y-74770000D01*
%TO.C,R8*%
X121237257Y-62677500D02*
X120762743Y-62677500D01*
X121237257Y-63722500D02*
X120762743Y-63722500D01*
%TO.C,R14*%
X85482742Y-76877500D02*
X85957258Y-76877500D01*
X85482742Y-77922500D02*
X85957258Y-77922500D01*
%TO.C,C39*%
X76290000Y-67115581D02*
X76290000Y-66834419D01*
X77310000Y-67115581D02*
X77310000Y-66834419D01*
%TO.C,D14*%
X81125000Y-75055000D02*
X81125000Y-76525000D01*
X81125000Y-76525000D02*
X83410000Y-76525000D01*
X83410000Y-75055000D02*
X81125000Y-75055000D01*
%TO.C,C19*%
X92026076Y-84618114D02*
X92307236Y-84618114D01*
X92026076Y-85638114D02*
X92307236Y-85638114D01*
%TO.C,FB2*%
X144386656Y-62710893D02*
X144386656Y-62385335D01*
X145406656Y-62710893D02*
X145406656Y-62385335D01*
%TO.C,C30*%
X122586656Y-107997534D02*
X122586656Y-108278694D01*
X123606656Y-107997534D02*
X123606656Y-108278694D01*
%TO.C,C35*%
X99184420Y-59990000D02*
X99465580Y-59990000D01*
X99184420Y-61010000D02*
X99465580Y-61010000D01*
%TO.C,C37*%
X88538781Y-60739970D02*
X88339970Y-60938781D01*
X89260030Y-61461219D02*
X89061219Y-61660030D01*
%TO.C,J3*%
X89901656Y-47778114D02*
X89901656Y-49238114D01*
X89901656Y-47778114D02*
X98841656Y-47778114D01*
X89901656Y-53288114D02*
X89901656Y-51488114D01*
X98841656Y-47778114D02*
X98841656Y-49238114D01*
X98841656Y-53288114D02*
X98841656Y-51488114D01*
%TO.C,R15*%
X85487742Y-75277500D02*
X85962258Y-75277500D01*
X85487742Y-76322500D02*
X85962258Y-76322500D01*
%TO.C,R19*%
X107962742Y-70677500D02*
X108437258Y-70677500D01*
X107962742Y-71722500D02*
X108437258Y-71722500D01*
%TO.C,C13*%
X141516076Y-73758114D02*
X141797236Y-73758114D01*
X141516076Y-74778114D02*
X141797236Y-74778114D01*
%TO.C,R28*%
X90148914Y-101345614D02*
X89674398Y-101345614D01*
X90148914Y-102390614D02*
X89674398Y-102390614D01*
%TO.C,D2*%
X105940000Y-62750000D02*
X105940000Y-64450000D01*
X105940000Y-62750000D02*
X108600000Y-62750000D01*
X105940000Y-64450000D02*
X108600000Y-64450000D01*
%TO.C,C24*%
X92332236Y-91338114D02*
X92051076Y-91338114D01*
X92332236Y-92358114D02*
X92051076Y-92358114D01*
%TO.C,R10*%
X77444156Y-83860856D02*
X77444156Y-84335372D01*
X78489156Y-83860856D02*
X78489156Y-84335372D01*
%TO.C,C11*%
X138147236Y-72148114D02*
X137866076Y-72148114D01*
X138147236Y-73168114D02*
X137866076Y-73168114D01*
%TO.C,D19*%
X134066656Y-115393114D02*
X134066656Y-116863114D01*
X134066656Y-116863114D02*
X136351656Y-116863114D01*
X136351656Y-115393114D02*
X134066656Y-115393114D01*
%TO.C,C4*%
X99376076Y-96563114D02*
X99657236Y-96563114D01*
X99376076Y-97583114D02*
X99657236Y-97583114D01*
%TO.C,J6*%
X141396656Y-47768114D02*
X141396656Y-49018114D01*
X141696656Y-49378114D02*
X142306656Y-49378114D01*
X141696656Y-50678114D02*
X142306656Y-50678114D01*
X142306656Y-48678114D02*
X142306656Y-52178114D01*
X142306656Y-52178114D02*
X149206656Y-52178114D01*
X142646656Y-47768114D02*
X141396656Y-47768114D01*
X143156656Y-47868114D02*
X143156656Y-48068114D01*
X143456656Y-47868114D02*
X143156656Y-47868114D01*
X143456656Y-47968114D02*
X143156656Y-47968114D01*
X143456656Y-48068114D02*
X143456656Y-47868114D01*
X144256656Y-48068114D02*
X144256656Y-48678114D01*
X144256656Y-48678114D02*
X142306656Y-48678114D01*
X144656656Y-51678114D02*
X144856656Y-51678114D01*
X144656656Y-52178114D02*
X144656656Y-51678114D01*
X144756656Y-52178114D02*
X144756656Y-51678114D01*
X144856656Y-51678114D02*
X144856656Y-52178114D01*
X146656656Y-51678114D02*
X146856656Y-51678114D01*
X146656656Y-52178114D02*
X146656656Y-51678114D01*
X146756656Y-52178114D02*
X146756656Y-51678114D01*
X146856656Y-51678114D02*
X146856656Y-52178114D01*
X147256656Y-48678114D02*
X147256656Y-48068114D01*
X149206656Y-48678114D02*
X147256656Y-48678114D01*
X149206656Y-52178114D02*
X149206656Y-48678114D01*
X149816656Y-49378114D02*
X149206656Y-49378114D01*
X149816656Y-50678114D02*
X149206656Y-50678114D01*
X141696656Y-48068114D02*
X149816656Y-48068114D01*
X149816656Y-52788114D01*
X141696656Y-52788114D01*
X141696656Y-48068114D01*
%TO.C,F1*%
X79406656Y-120098114D02*
X102126656Y-120098114D01*
X79406656Y-123258114D02*
X79406656Y-120098114D01*
X79406656Y-129918114D02*
X79406656Y-126758114D01*
X79406656Y-129918114D02*
X102126656Y-129918114D01*
X102126656Y-123258114D02*
X102126656Y-120098114D01*
X102126656Y-129918114D02*
X102126656Y-126758114D01*
%TO.C,D1*%
X112110000Y-60050000D02*
X109450000Y-60050000D01*
X112110000Y-61750000D02*
X109450000Y-61750000D01*
X112110000Y-61750000D02*
X112110000Y-60050000D01*
%TO.C,J10*%
X141566656Y-101838114D02*
X141566656Y-113358114D01*
X143786656Y-101838114D02*
X143786656Y-102538114D01*
X143786656Y-112658114D02*
X143786656Y-113358114D01*
X145836656Y-102538114D02*
X143786656Y-102538114D01*
X145836656Y-102538114D02*
X145836656Y-103068114D01*
X145836656Y-112128114D02*
X145836656Y-112658114D01*
X145836656Y-112658114D02*
X143786656Y-112658114D01*
X151836656Y-103068114D02*
X145836656Y-103068114D01*
X151836656Y-103068114D02*
X151836656Y-112098114D01*
X151836656Y-112128114D02*
X145836656Y-112128114D01*
X141580021Y-101776385D02*
G75*
G02*
X143786656Y-101948114I1096635J-171730D01*
G01*
X143786656Y-113248114D02*
G75*
G02*
X141566656Y-113248114I-1110000J0D01*
G01*
%TO.C,C16*%
X128590000Y-66040580D02*
X128590000Y-65759420D01*
X129610000Y-66040580D02*
X129610000Y-65759420D01*
%TO.C,C5*%
X82826076Y-85608114D02*
X83107236Y-85608114D01*
X82826076Y-86628114D02*
X83107236Y-86628114D01*
%TO.C,C25*%
X96036076Y-91338114D02*
X96317236Y-91338114D01*
X96036076Y-92358114D02*
X96317236Y-92358114D01*
%TO.C,J9*%
X67646656Y-91928114D02*
X73646656Y-91928114D01*
X67646656Y-100988114D02*
X67646656Y-91958114D01*
X67646656Y-100988114D02*
X73646656Y-100988114D01*
X73646656Y-91398114D02*
X75696656Y-91398114D01*
X73646656Y-91928114D02*
X73646656Y-91398114D01*
X73646656Y-101518114D02*
X73646656Y-100988114D01*
X73646656Y-101518114D02*
X75696656Y-101518114D01*
X75696656Y-91398114D02*
X75696656Y-90698114D01*
X75696656Y-102218114D02*
X75696656Y-101518114D01*
X77916656Y-102218114D02*
X77916656Y-90698114D01*
X75696656Y-90808114D02*
G75*
G02*
X77916656Y-90808114I1110000J0D01*
G01*
X77903291Y-102279843D02*
G75*
G02*
X75696656Y-102108114I-1096635J171730D01*
G01*
%TO.C,D5*%
X90750000Y-58670000D02*
X90750000Y-60370000D01*
X90750000Y-58670000D02*
X93410000Y-58670000D01*
X90750000Y-60370000D02*
X93410000Y-60370000D01*
%TO.C,C32*%
X128284420Y-56790000D02*
X128565580Y-56790000D01*
X128284420Y-57810000D02*
X128565580Y-57810000D01*
%TO.C,R12*%
X86384156Y-87175372D02*
X86384156Y-86700856D01*
X87429156Y-87175372D02*
X87429156Y-86700856D01*
%TO.C,D9*%
X101110000Y-56450000D02*
X98450000Y-56450000D01*
X101110000Y-58150000D02*
X98450000Y-58150000D01*
X101110000Y-58150000D02*
X101110000Y-56450000D01*
%TO.C,C14*%
X142107236Y-57798114D02*
X141826076Y-57798114D01*
X142107236Y-58818114D02*
X141826076Y-58818114D01*
%TO.C,R4*%
X91363914Y-57145614D02*
X90889398Y-57145614D01*
X91363914Y-58190614D02*
X90889398Y-58190614D01*
%TO.C,D18*%
X133856656Y-126388114D02*
X133856656Y-129688114D01*
X133856656Y-126388114D02*
X139366656Y-126388114D01*
X133856656Y-129688114D02*
X139366656Y-129688114D01*
%TO.C,D17*%
X85111656Y-101163114D02*
X85111656Y-102633114D01*
X85111656Y-102633114D02*
X87396656Y-102633114D01*
X87396656Y-101163114D02*
X85111656Y-101163114D01*
%TO.C,R11*%
X84799156Y-87150372D02*
X84799156Y-86675856D01*
X85844156Y-87150372D02*
X85844156Y-86675856D01*
%TO.C,R2*%
X119537258Y-58577500D02*
X119062742Y-58577500D01*
X119537258Y-59622500D02*
X119062742Y-59622500D01*
%TO.C,C9*%
X82416076Y-84108114D02*
X82697236Y-84108114D01*
X82416076Y-85128114D02*
X82697236Y-85128114D01*
%TO.C,C8*%
X82406076Y-82598114D02*
X82687236Y-82598114D01*
X82406076Y-83618114D02*
X82687236Y-83618114D01*
%TO.C,SW1*%
X93906656Y-94368114D02*
X94206656Y-94368114D01*
X93906656Y-98508114D02*
X93906656Y-94368114D01*
X94206656Y-98508114D02*
X93906656Y-98508114D01*
X96746656Y-94368114D02*
X97046656Y-94368114D01*
X97046656Y-94368114D02*
X97046656Y-98508114D01*
X97046656Y-98508114D02*
X96746656Y-98508114D01*
%TO.C,D11*%
X78950000Y-84810000D02*
X78950000Y-82150000D01*
X78950000Y-84810000D02*
X80650000Y-84810000D01*
X80650000Y-84810000D02*
X80650000Y-82150000D01*
%TO.C,J5*%
X131996656Y-47868114D02*
X131996656Y-49118114D01*
X132296656Y-49478114D02*
X132906656Y-49478114D01*
X132296656Y-50778114D02*
X132906656Y-50778114D01*
X132906656Y-48778114D02*
X132906656Y-52278114D01*
X132906656Y-52278114D02*
X139806656Y-52278114D01*
X133246656Y-47868114D02*
X131996656Y-47868114D01*
X133756656Y-47968114D02*
X133756656Y-48168114D01*
X134056656Y-47968114D02*
X133756656Y-47968114D01*
X134056656Y-48068114D02*
X133756656Y-48068114D01*
X134056656Y-48168114D02*
X134056656Y-47968114D01*
X134856656Y-48168114D02*
X134856656Y-48778114D01*
X134856656Y-48778114D02*
X132906656Y-48778114D01*
X135256656Y-51778114D02*
X135456656Y-51778114D01*
X135256656Y-52278114D02*
X135256656Y-51778114D01*
X135356656Y-52278114D02*
X135356656Y-51778114D01*
X135456656Y-51778114D02*
X135456656Y-52278114D01*
X137256656Y-51778114D02*
X137456656Y-51778114D01*
X137256656Y-52278114D02*
X137256656Y-51778114D01*
X137356656Y-52278114D02*
X137356656Y-51778114D01*
X137456656Y-51778114D02*
X137456656Y-52278114D01*
X137856656Y-48778114D02*
X137856656Y-48168114D01*
X139806656Y-48778114D02*
X137856656Y-48778114D01*
X139806656Y-52278114D02*
X139806656Y-48778114D01*
X140416656Y-49478114D02*
X139806656Y-49478114D01*
X140416656Y-50778114D02*
X139806656Y-50778114D01*
X132296656Y-48168114D02*
X140416656Y-48168114D01*
X140416656Y-52888114D01*
X132296656Y-52888114D01*
X132296656Y-48168114D01*
%TO.C,R7*%
X123037257Y-64277500D02*
X122562743Y-64277500D01*
X123037257Y-65322500D02*
X122562743Y-65322500D01*
%TO.C,R23*%
X92338914Y-82645614D02*
X91864398Y-82645614D01*
X92338914Y-83690614D02*
X91864398Y-83690614D01*
%TO.C,U7*%
X124136656Y-106748114D02*
X125396656Y-106748114D01*
X124136656Y-110508114D02*
X124136656Y-106748114D01*
X130956656Y-106748114D02*
X129696656Y-106748114D01*
X130956656Y-110508114D02*
X130956656Y-106748114D01*
X124236656Y-111788114D02*
X123906656Y-112028114D01*
X123906656Y-111548114D01*
X124236656Y-111788114D01*
G36*
X124236656Y-111788114D02*
G01*
X123906656Y-112028114D01*
X123906656Y-111548114D01*
X124236656Y-111788114D01*
G37*
%TO.C,SW5*%
D15*
X140916656Y-53958114D02*
X142524156Y-53958114D01*
X142524156Y-56353114D01*
X140916656Y-56353114D01*
X140916656Y-53958114D01*
X142531656Y-53848114D02*
X148531656Y-53848114D01*
X148531656Y-56448114D01*
X142531656Y-56448114D01*
X142531656Y-53848114D01*
X148584156Y-53960614D02*
X150191656Y-53960614D01*
X150191656Y-56355614D01*
X148584156Y-56355614D01*
X148584156Y-53960614D01*
D12*
%TO.C,R6*%
X119437742Y-64277500D02*
X119912258Y-64277500D01*
X119437742Y-65322500D02*
X119912258Y-65322500D01*
%TO.C,U2*%
X85026656Y-79758114D02*
X85501656Y-79758114D01*
X85026656Y-80233114D02*
X85026656Y-79758114D01*
X85026656Y-83978114D02*
X85026656Y-83503114D01*
X85501656Y-83978114D02*
X85026656Y-83978114D01*
X88771656Y-79758114D02*
X89246656Y-79758114D01*
X89246656Y-79758114D02*
X89246656Y-80233114D01*
X89246656Y-83503114D02*
X89246656Y-83978114D01*
X89246656Y-83978114D02*
X88771656Y-83978114D01*
X84526656Y-80618114D02*
X84196656Y-80858114D01*
X84196656Y-80378114D01*
X84526656Y-80618114D01*
G36*
X84526656Y-80618114D02*
G01*
X84196656Y-80858114D01*
X84196656Y-80378114D01*
X84526656Y-80618114D01*
G37*
%TO.C,C28*%
X108670000Y-125732380D02*
X115130000Y-125732380D01*
X108670000Y-125772380D02*
X115130000Y-125772380D01*
X108671000Y-125692380D02*
X115129000Y-125692380D01*
X108672000Y-125652380D02*
X115128000Y-125652380D01*
X108674000Y-125612380D02*
X115126000Y-125612380D01*
X108676000Y-125572380D02*
X115124000Y-125572380D01*
X108679000Y-125532380D02*
X110860000Y-125532380D01*
X108682000Y-125492380D02*
X110860000Y-125492380D01*
X108686000Y-125452380D02*
X110860000Y-125452380D01*
X108690000Y-125412380D02*
X110860000Y-125412380D01*
X108695000Y-125372380D02*
X110860000Y-125372380D01*
X108700000Y-125332380D02*
X110860000Y-125332380D01*
X108705000Y-125292380D02*
X110860000Y-125292380D01*
X108712000Y-125252380D02*
X110860000Y-125252380D01*
X108718000Y-125212380D02*
X110860000Y-125212380D01*
X108726000Y-125172380D02*
X110860000Y-125172380D01*
X108733000Y-125132380D02*
X110860000Y-125132380D01*
X108741000Y-125092380D02*
X110860000Y-125092380D01*
X108750000Y-125052380D02*
X110860000Y-125052380D01*
X108760000Y-125012380D02*
X110860000Y-125012380D01*
X108769000Y-124972380D02*
X110860000Y-124972380D01*
X108780000Y-124932380D02*
X110860000Y-124932380D01*
X108791000Y-124892380D02*
X110860000Y-124892380D01*
X108802000Y-124852380D02*
X110860000Y-124852380D01*
X108814000Y-124812380D02*
X110860000Y-124812380D01*
X108827000Y-124772380D02*
X110860000Y-124772380D01*
X108840000Y-124732380D02*
X110860000Y-124732380D01*
X108853000Y-124692380D02*
X110860000Y-124692380D01*
X108868000Y-124652380D02*
X110860000Y-124652380D01*
X108883000Y-124612380D02*
X110860000Y-124612380D01*
X108898000Y-124572380D02*
X110860000Y-124572380D01*
X108914000Y-124532380D02*
X110860000Y-124532380D01*
X108931000Y-124492380D02*
X110860000Y-124492380D01*
X108948000Y-124452380D02*
X110860000Y-124452380D01*
X108966000Y-124412380D02*
X110860000Y-124412380D01*
X108985000Y-124372380D02*
X110860000Y-124372380D01*
X109004000Y-124332380D02*
X110860000Y-124332380D01*
X109024000Y-124292380D02*
X110860000Y-124292380D01*
X109045000Y-124252380D02*
X110860000Y-124252380D01*
X109066000Y-124212380D02*
X110860000Y-124212380D01*
X109088000Y-124172380D02*
X110860000Y-124172380D01*
X109111000Y-124132380D02*
X110860000Y-124132380D01*
X109135000Y-124092380D02*
X110860000Y-124092380D01*
X109159000Y-124052380D02*
X110860000Y-124052380D01*
X109184000Y-124012380D02*
X110860000Y-124012380D01*
X109210000Y-123972380D02*
X110860000Y-123972380D01*
X109237000Y-123932380D02*
X110860000Y-123932380D01*
X109264000Y-123892380D02*
X110860000Y-123892380D01*
X109293000Y-123852380D02*
X110860000Y-123852380D01*
X109323000Y-123812380D02*
X110860000Y-123812380D01*
X109353000Y-123772380D02*
X110860000Y-123772380D01*
X109384000Y-123732380D02*
X110860000Y-123732380D01*
X109417000Y-123692380D02*
X110860000Y-123692380D01*
X109450000Y-123652380D02*
X110860000Y-123652380D01*
X109485000Y-123612380D02*
X110860000Y-123612380D01*
X109521000Y-123572380D02*
X110860000Y-123572380D01*
X109558000Y-123532380D02*
X110860000Y-123532380D01*
X109596000Y-123492380D02*
X110860000Y-123492380D01*
X109636000Y-123452380D02*
X114164000Y-123452380D01*
X109677000Y-123412380D02*
X114123000Y-123412380D01*
X109719000Y-123372380D02*
X114081000Y-123372380D01*
X109746000Y-128957621D02*
X110376000Y-128957621D01*
X109763000Y-123332380D02*
X114037000Y-123332380D01*
X109809000Y-123292380D02*
X113991000Y-123292380D01*
X109856000Y-123252380D02*
X113944000Y-123252380D01*
X109905000Y-123212380D02*
X113895000Y-123212380D01*
X109957000Y-123172380D02*
X113843000Y-123172380D01*
X110010000Y-123132380D02*
X113790000Y-123132380D01*
X110061000Y-129272621D02*
X110061000Y-128642621D01*
X110066000Y-123092380D02*
X113734000Y-123092380D01*
X110125000Y-123052380D02*
X113675000Y-123052380D01*
X110186000Y-123012380D02*
X113614000Y-123012380D01*
X110251000Y-122972380D02*
X113549000Y-122972380D01*
X110319000Y-122932380D02*
X113481000Y-122932380D01*
X110391000Y-122892380D02*
X113409000Y-122892380D01*
X110468000Y-122852380D02*
X113332000Y-122852380D01*
X110550000Y-122812380D02*
X113250000Y-122812380D01*
X110639000Y-122772380D02*
X113161000Y-122772380D01*
X110735000Y-122732380D02*
X113065000Y-122732380D01*
X110842000Y-122692380D02*
X112958000Y-122692380D01*
X110961000Y-122652380D02*
X112839000Y-122652380D01*
X111099000Y-122612380D02*
X112701000Y-122612380D01*
X111267000Y-122572380D02*
X112533000Y-122572380D01*
X111498000Y-122532380D02*
X112302000Y-122532380D01*
X112940000Y-123492380D02*
X114204000Y-123492380D01*
X112940000Y-123532380D02*
X114242000Y-123532380D01*
X112940000Y-123572380D02*
X114279000Y-123572380D01*
X112940000Y-123612380D02*
X114315000Y-123612380D01*
X112940000Y-123652380D02*
X114350000Y-123652380D01*
X112940000Y-123692380D02*
X114383000Y-123692380D01*
X112940000Y-123732380D02*
X114416000Y-123732380D01*
X112940000Y-123772380D02*
X114447000Y-123772380D01*
X112940000Y-123812380D02*
X114477000Y-123812380D01*
X112940000Y-123852380D02*
X114507000Y-123852380D01*
X112940000Y-123892380D02*
X114536000Y-123892380D01*
X112940000Y-123932380D02*
X114563000Y-123932380D01*
X112940000Y-123972380D02*
X114590000Y-123972380D01*
X112940000Y-124012380D02*
X114616000Y-124012380D01*
X112940000Y-124052380D02*
X114641000Y-124052380D01*
X112940000Y-124092380D02*
X114665000Y-124092380D01*
X112940000Y-124132380D02*
X114689000Y-124132380D01*
X112940000Y-124172380D02*
X114712000Y-124172380D01*
X112940000Y-124212380D02*
X114734000Y-124212380D01*
X112940000Y-124252380D02*
X114755000Y-124252380D01*
X112940000Y-124292380D02*
X114776000Y-124292380D01*
X112940000Y-124332380D02*
X114796000Y-124332380D01*
X112940000Y-124372380D02*
X114815000Y-124372380D01*
X112940000Y-124412380D02*
X114834000Y-124412380D01*
X112940000Y-124452380D02*
X114852000Y-124452380D01*
X112940000Y-124492380D02*
X114869000Y-124492380D01*
X112940000Y-124532380D02*
X114886000Y-124532380D01*
X112940000Y-124572380D02*
X114902000Y-124572380D01*
X112940000Y-124612380D02*
X114917000Y-124612380D01*
X112940000Y-124652380D02*
X114932000Y-124652380D01*
X112940000Y-124692380D02*
X114947000Y-124692380D01*
X112940000Y-124732380D02*
X114960000Y-124732380D01*
X112940000Y-124772380D02*
X114973000Y-124772380D01*
X112940000Y-124812380D02*
X114986000Y-124812380D01*
X112940000Y-124852380D02*
X114998000Y-124852380D01*
X112940000Y-124892380D02*
X115009000Y-124892380D01*
X112940000Y-124932380D02*
X115020000Y-124932380D01*
X112940000Y-124972380D02*
X115031000Y-124972380D01*
X112940000Y-125012380D02*
X115040000Y-125012380D01*
X112940000Y-125052380D02*
X115050000Y-125052380D01*
X112940000Y-125092380D02*
X115059000Y-125092380D01*
X112940000Y-125132380D02*
X115067000Y-125132380D01*
X112940000Y-125172380D02*
X115074000Y-125172380D01*
X112940000Y-125212380D02*
X115082000Y-125212380D01*
X112940000Y-125252380D02*
X115088000Y-125252380D01*
X112940000Y-125292380D02*
X115095000Y-125292380D01*
X112940000Y-125332380D02*
X115100000Y-125332380D01*
X112940000Y-125372380D02*
X115105000Y-125372380D01*
X112940000Y-125412380D02*
X115110000Y-125412380D01*
X112940000Y-125452380D02*
X115114000Y-125452380D01*
X112940000Y-125492380D02*
X115118000Y-125492380D01*
X112940000Y-125532380D02*
X115121000Y-125532380D01*
X115170000Y-125772380D02*
G75*
G02*
X108630000Y-125772380I-3270000J0D01*
G01*
X108630000Y-125772380D02*
G75*
G02*
X115170000Y-125772380I3270000J0D01*
G01*
%TO.C,FB1*%
X144366656Y-58905335D02*
X144366656Y-59230893D01*
X145386656Y-58905335D02*
X145386656Y-59230893D01*
%TO.C,D13*%
X81120000Y-76655000D02*
X81120000Y-78125000D01*
X81120000Y-78125000D02*
X83405000Y-78125000D01*
X83405000Y-76655000D02*
X81120000Y-76655000D01*
%TO.C,R18*%
X116184156Y-102485372D02*
X116184156Y-102010856D01*
X117229156Y-102485372D02*
X117229156Y-102010856D01*
%TO.C,U5*%
X95646656Y-103510000D02*
X97011656Y-103510000D01*
X95646656Y-113910000D02*
X97011656Y-113910000D01*
X97011656Y-103510000D02*
X97011656Y-104460000D01*
X97011656Y-113910000D02*
X97011656Y-112960000D01*
X100176656Y-113390000D02*
X99496656Y-113390000D01*
X99836656Y-112920000D01*
X100176656Y-113390000D01*
G36*
X100176656Y-113390000D02*
G01*
X99496656Y-113390000D01*
X99836656Y-112920000D01*
X100176656Y-113390000D01*
G37*
%TO.C,C31*%
X131569156Y-108678694D02*
X131569156Y-108397534D01*
X132589156Y-108678694D02*
X132589156Y-108397534D01*
%TO.C,C26*%
X104144036Y-118219114D02*
X104774036Y-118219114D01*
X104459036Y-117904114D02*
X104459036Y-118534114D01*
X107644277Y-116828114D02*
X107644277Y-123288114D01*
X107684277Y-116828114D02*
X107684277Y-123288114D01*
X107724277Y-116829114D02*
X107724277Y-123287114D01*
X107764277Y-116830114D02*
X107764277Y-123286114D01*
X107804277Y-116832114D02*
X107804277Y-123284114D01*
X107844277Y-116834114D02*
X107844277Y-123282114D01*
X107884277Y-116837114D02*
X107884277Y-119018114D01*
X107884277Y-121098114D02*
X107884277Y-123279114D01*
X107924277Y-116840114D02*
X107924277Y-119018114D01*
X107924277Y-121098114D02*
X107924277Y-123276114D01*
X107964277Y-116844114D02*
X107964277Y-119018114D01*
X107964277Y-121098114D02*
X107964277Y-123272114D01*
X108004277Y-116848114D02*
X108004277Y-119018114D01*
X108004277Y-121098114D02*
X108004277Y-123268114D01*
X108044277Y-116853114D02*
X108044277Y-119018114D01*
X108044277Y-121098114D02*
X108044277Y-123263114D01*
X108084277Y-116858114D02*
X108084277Y-119018114D01*
X108084277Y-121098114D02*
X108084277Y-123258114D01*
X108124277Y-116863114D02*
X108124277Y-119018114D01*
X108124277Y-121098114D02*
X108124277Y-123253114D01*
X108164277Y-116870114D02*
X108164277Y-119018114D01*
X108164277Y-121098114D02*
X108164277Y-123246114D01*
X108204277Y-116876114D02*
X108204277Y-119018114D01*
X108204277Y-121098114D02*
X108204277Y-123240114D01*
X108244277Y-116884114D02*
X108244277Y-119018114D01*
X108244277Y-121098114D02*
X108244277Y-123232114D01*
X108284277Y-116891114D02*
X108284277Y-119018114D01*
X108284277Y-121098114D02*
X108284277Y-123225114D01*
X108324277Y-116899114D02*
X108324277Y-119018114D01*
X108324277Y-121098114D02*
X108324277Y-123217114D01*
X108364277Y-116908114D02*
X108364277Y-119018114D01*
X108364277Y-121098114D02*
X108364277Y-123208114D01*
X108404277Y-116918114D02*
X108404277Y-119018114D01*
X108404277Y-121098114D02*
X108404277Y-123198114D01*
X108444277Y-116927114D02*
X108444277Y-119018114D01*
X108444277Y-121098114D02*
X108444277Y-123189114D01*
X108484277Y-116938114D02*
X108484277Y-119018114D01*
X108484277Y-121098114D02*
X108484277Y-123178114D01*
X108524277Y-116949114D02*
X108524277Y-119018114D01*
X108524277Y-121098114D02*
X108524277Y-123167114D01*
X108564277Y-116960114D02*
X108564277Y-119018114D01*
X108564277Y-121098114D02*
X108564277Y-123156114D01*
X108604277Y-116972114D02*
X108604277Y-119018114D01*
X108604277Y-121098114D02*
X108604277Y-123144114D01*
X108644277Y-116985114D02*
X108644277Y-119018114D01*
X108644277Y-121098114D02*
X108644277Y-123131114D01*
X108684277Y-116998114D02*
X108684277Y-119018114D01*
X108684277Y-121098114D02*
X108684277Y-123118114D01*
X108724277Y-117011114D02*
X108724277Y-119018114D01*
X108724277Y-121098114D02*
X108724277Y-123105114D01*
X108764277Y-117026114D02*
X108764277Y-119018114D01*
X108764277Y-121098114D02*
X108764277Y-123090114D01*
X108804277Y-117041114D02*
X108804277Y-119018114D01*
X108804277Y-121098114D02*
X108804277Y-123075114D01*
X108844277Y-117056114D02*
X108844277Y-119018114D01*
X108844277Y-121098114D02*
X108844277Y-123060114D01*
X108884277Y-117072114D02*
X108884277Y-119018114D01*
X108884277Y-121098114D02*
X108884277Y-123044114D01*
X108924277Y-117089114D02*
X108924277Y-119018114D01*
X108924277Y-121098114D02*
X108924277Y-123027114D01*
X108964277Y-117106114D02*
X108964277Y-119018114D01*
X108964277Y-121098114D02*
X108964277Y-123010114D01*
X109004277Y-117124114D02*
X109004277Y-119018114D01*
X109004277Y-121098114D02*
X109004277Y-122992114D01*
X109044277Y-117143114D02*
X109044277Y-119018114D01*
X109044277Y-121098114D02*
X109044277Y-122973114D01*
X109084277Y-117162114D02*
X109084277Y-119018114D01*
X109084277Y-121098114D02*
X109084277Y-122954114D01*
X109124277Y-117182114D02*
X109124277Y-119018114D01*
X109124277Y-121098114D02*
X109124277Y-122934114D01*
X109164277Y-117203114D02*
X109164277Y-119018114D01*
X109164277Y-121098114D02*
X109164277Y-122913114D01*
X109204277Y-117224114D02*
X109204277Y-119018114D01*
X109204277Y-121098114D02*
X109204277Y-122892114D01*
X109244277Y-117246114D02*
X109244277Y-119018114D01*
X109244277Y-121098114D02*
X109244277Y-122870114D01*
X109284277Y-117269114D02*
X109284277Y-119018114D01*
X109284277Y-121098114D02*
X109284277Y-122847114D01*
X109324277Y-117293114D02*
X109324277Y-119018114D01*
X109324277Y-121098114D02*
X109324277Y-122823114D01*
X109364277Y-117317114D02*
X109364277Y-119018114D01*
X109364277Y-121098114D02*
X109364277Y-122799114D01*
X109404277Y-117342114D02*
X109404277Y-119018114D01*
X109404277Y-121098114D02*
X109404277Y-122774114D01*
X109444277Y-117368114D02*
X109444277Y-119018114D01*
X109444277Y-121098114D02*
X109444277Y-122748114D01*
X109484277Y-117395114D02*
X109484277Y-119018114D01*
X109484277Y-121098114D02*
X109484277Y-122721114D01*
X109524277Y-117422114D02*
X109524277Y-119018114D01*
X109524277Y-121098114D02*
X109524277Y-122694114D01*
X109564277Y-117451114D02*
X109564277Y-119018114D01*
X109564277Y-121098114D02*
X109564277Y-122665114D01*
X109604277Y-117481114D02*
X109604277Y-119018114D01*
X109604277Y-121098114D02*
X109604277Y-122635114D01*
X109644277Y-117511114D02*
X109644277Y-119018114D01*
X109644277Y-121098114D02*
X109644277Y-122605114D01*
X109684277Y-117542114D02*
X109684277Y-119018114D01*
X109684277Y-121098114D02*
X109684277Y-122574114D01*
X109724277Y-117575114D02*
X109724277Y-119018114D01*
X109724277Y-121098114D02*
X109724277Y-122541114D01*
X109764277Y-117608114D02*
X109764277Y-119018114D01*
X109764277Y-121098114D02*
X109764277Y-122508114D01*
X109804277Y-117643114D02*
X109804277Y-119018114D01*
X109804277Y-121098114D02*
X109804277Y-122473114D01*
X109844277Y-117679114D02*
X109844277Y-119018114D01*
X109844277Y-121098114D02*
X109844277Y-122437114D01*
X109884277Y-117716114D02*
X109884277Y-119018114D01*
X109884277Y-121098114D02*
X109884277Y-122400114D01*
X109924277Y-117754114D02*
X109924277Y-119018114D01*
X109924277Y-121098114D02*
X109924277Y-122362114D01*
X109964277Y-117794114D02*
X109964277Y-122322114D01*
X110004277Y-117835114D02*
X110004277Y-122281114D01*
X110044277Y-117877114D02*
X110044277Y-122239114D01*
X110084277Y-117921114D02*
X110084277Y-122195114D01*
X110124277Y-117967114D02*
X110124277Y-122149114D01*
X110164277Y-118014114D02*
X110164277Y-122102114D01*
X110204277Y-118063114D02*
X110204277Y-122053114D01*
X110244277Y-118115114D02*
X110244277Y-122001114D01*
X110284277Y-118168114D02*
X110284277Y-121948114D01*
X110324277Y-118224114D02*
X110324277Y-121892114D01*
X110364277Y-118283114D02*
X110364277Y-121833114D01*
X110404277Y-118344114D02*
X110404277Y-121772114D01*
X110444277Y-118409114D02*
X110444277Y-121707114D01*
X110484277Y-118477114D02*
X110484277Y-121639114D01*
X110524277Y-118549114D02*
X110524277Y-121567114D01*
X110564277Y-118626114D02*
X110564277Y-121490114D01*
X110604277Y-118708114D02*
X110604277Y-121408114D01*
X110644277Y-118797114D02*
X110644277Y-121319114D01*
X110684277Y-118893114D02*
X110684277Y-121223114D01*
X110724277Y-119000114D02*
X110724277Y-121116114D01*
X110764277Y-119119114D02*
X110764277Y-120997114D01*
X110804277Y-119257114D02*
X110804277Y-120859114D01*
X110844277Y-119425114D02*
X110844277Y-120691114D01*
X110884277Y-119656114D02*
X110884277Y-120460114D01*
X110914277Y-120058114D02*
G75*
G02*
X104374277Y-120058114I-3270000J0D01*
G01*
X104374277Y-120058114D02*
G75*
G02*
X110914277Y-120058114I3270000J0D01*
G01*
%TO.C,R9*%
X77474156Y-77175372D02*
X77474156Y-76700856D01*
X78519156Y-77175372D02*
X78519156Y-76700856D01*
%TO.C,J2*%
X119496656Y-48058114D02*
X119496656Y-49518114D01*
X119496656Y-48058114D02*
X128436656Y-48058114D01*
X119496656Y-53568114D02*
X119496656Y-51768114D01*
X128436656Y-48058114D02*
X128436656Y-49518114D01*
X128436656Y-53568114D02*
X128436656Y-51768114D01*
%TO.C,C15*%
X128646656Y-62682534D02*
X128646656Y-62963694D01*
X129666656Y-62682534D02*
X129666656Y-62963694D01*
%TO.C,C1*%
X116390000Y-58040580D02*
X116390000Y-57759420D01*
X117410000Y-58040580D02*
X117410000Y-57759420D01*
%TO.C,D12*%
X78836656Y-73578114D02*
X76176656Y-73578114D01*
X78836656Y-75278114D02*
X76176656Y-75278114D01*
X78836656Y-75278114D02*
X78836656Y-73578114D01*
%TO.C,D8*%
X129550000Y-53290000D02*
X129550000Y-55950000D01*
X131250000Y-53290000D02*
X129550000Y-53290000D01*
X131250000Y-53290000D02*
X131250000Y-55950000D01*
%TO.C,D3*%
X112890000Y-61450000D02*
X112890000Y-63150000D01*
X112890000Y-61450000D02*
X115550000Y-61450000D01*
X112890000Y-63150000D02*
X115550000Y-63150000D01*
%TO.C,C2*%
X114740580Y-59890000D02*
X114459420Y-59890000D01*
X114740580Y-60910000D02*
X114459420Y-60910000D01*
%TO.C,U3*%
X130311656Y-61478114D02*
X130546656Y-61478114D01*
X130311656Y-69198114D02*
X130311656Y-61478114D01*
X130546656Y-69198114D02*
X130311656Y-69198114D01*
X143096656Y-61478114D02*
X143331656Y-61478114D01*
X143331656Y-61478114D02*
X143331656Y-69198114D01*
X143331656Y-69198114D02*
X143096656Y-69198114D01*
X130541656Y-69988114D02*
X130071656Y-70328114D01*
X130071656Y-69648114D01*
X130541656Y-69988114D01*
G36*
X130541656Y-69988114D02*
G01*
X130071656Y-70328114D01*
X130071656Y-69648114D01*
X130541656Y-69988114D01*
G37*
%TO.C,R1*%
X125577500Y-58487742D02*
X125577500Y-58962258D01*
X126622500Y-58487742D02*
X126622500Y-58962258D01*
%TO.C,J4*%
X67911656Y-76568114D02*
X69371656Y-76568114D01*
X67911656Y-85508114D02*
X67911656Y-76568114D01*
X67911656Y-85508114D02*
X69371656Y-85508114D01*
X73421656Y-76568114D02*
X71621656Y-76568114D01*
X73421656Y-85508114D02*
X71621656Y-85508114D01*
%TO.C,SW4*%
X104616656Y-100728114D02*
X108756656Y-100728114D01*
X104616656Y-101028114D02*
X104616656Y-100728114D01*
X104616656Y-103868114D02*
X104616656Y-103568114D01*
X108756656Y-100728114D02*
X108756656Y-101028114D01*
X108756656Y-103568114D02*
X108756656Y-103868114D01*
X108756656Y-103868114D02*
X104616656Y-103868114D01*
%TO.C,R29*%
X138918914Y-115565614D02*
X138444398Y-115565614D01*
X138918914Y-116610614D02*
X138444398Y-116610614D01*
%TO.C,U6*%
X125675000Y-116155000D02*
X127040000Y-116155000D01*
X125675000Y-126555000D02*
X127040000Y-126555000D01*
X127040000Y-116155000D02*
X127040000Y-117105000D01*
X127040000Y-126555000D02*
X127040000Y-125605000D01*
X130205000Y-126035000D02*
X129525000Y-126035000D01*
X129865000Y-125565000D01*
X130205000Y-126035000D01*
G36*
X130205000Y-126035000D02*
G01*
X129525000Y-126035000D01*
X129865000Y-125565000D01*
X130205000Y-126035000D01*
G37*
%TO.C,C36*%
X87539970Y-64038781D02*
X87738781Y-63839970D01*
X88261219Y-64760030D02*
X88460030Y-64561219D01*
%TO.C,Y1*%
X90106656Y-85988114D02*
X90106656Y-89408114D01*
X90106656Y-89408114D02*
X94226656Y-89408114D01*
%TO.C,D6*%
X127510000Y-60350000D02*
X124850000Y-60350000D01*
X127510000Y-62050000D02*
X124850000Y-62050000D01*
X127510000Y-62050000D02*
X127510000Y-60350000D01*
%TO.C,R16*%
X99299398Y-98195614D02*
X99773914Y-98195614D01*
X99299398Y-99240614D02*
X99773914Y-99240614D01*
%TO.C,R20*%
X132229398Y-57475614D02*
X132703914Y-57475614D01*
X132229398Y-58520614D02*
X132703914Y-58520614D01*
%TO.C,J11*%
X141596656Y-86668114D02*
X141596656Y-98188114D01*
X143816656Y-86668114D02*
X143816656Y-87368114D01*
X143816656Y-97488114D02*
X143816656Y-98188114D01*
X145866656Y-87368114D02*
X143816656Y-87368114D01*
X145866656Y-87368114D02*
X145866656Y-87898114D01*
X145866656Y-96958114D02*
X145866656Y-97488114D01*
X145866656Y-97488114D02*
X143816656Y-97488114D01*
X151866656Y-87898114D02*
X145866656Y-87898114D01*
X151866656Y-87898114D02*
X151866656Y-96928114D01*
X151866656Y-96958114D02*
X145866656Y-96958114D01*
X141610021Y-86606385D02*
G75*
G02*
X143816656Y-86778114I1096635J-171730D01*
G01*
X143816656Y-98078114D02*
G75*
G02*
X141596656Y-98078114I-1110000J0D01*
G01*
%TO.C,SW3*%
X110986656Y-100708114D02*
X115126656Y-100708114D01*
X110986656Y-101008114D02*
X110986656Y-100708114D01*
X110986656Y-103848114D02*
X110986656Y-103548114D01*
X115126656Y-100708114D02*
X115126656Y-101008114D01*
X115126656Y-103548114D02*
X115126656Y-103848114D01*
X115126656Y-103848114D02*
X110986656Y-103848114D01*
%TO.C,R17*%
X112337258Y-70677500D02*
X111862742Y-70677500D01*
X112337258Y-71722500D02*
X111862742Y-71722500D01*
%TO.C,C18*%
X92026076Y-89738114D02*
X92307236Y-89738114D01*
X92026076Y-90758114D02*
X92307236Y-90758114D01*
%TO.C,C12*%
X141496076Y-72138114D02*
X141777236Y-72138114D01*
X141496076Y-73158114D02*
X141777236Y-73158114D01*
%TO.C,R13*%
X87974156Y-86700856D02*
X87974156Y-87175372D01*
X89019156Y-86700856D02*
X89019156Y-87175372D01*
%TO.C,C3*%
X99376076Y-94963114D02*
X99657236Y-94963114D01*
X99376076Y-95983114D02*
X99657236Y-95983114D01*
%TO.C,C38*%
X86740581Y-68190000D02*
X86459419Y-68190000D01*
X86740581Y-69210000D02*
X86459419Y-69210000D01*
%TO.C,C7*%
X99376076Y-93338114D02*
X99657236Y-93338114D01*
X99376076Y-94358114D02*
X99657236Y-94358114D01*
%TD*%
%LPC*%
D16*
%TO.C,C22*%
X100286656Y-92213114D03*
X98736656Y-92213114D03*
%TD*%
D17*
%TO.C,C27*%
X88316656Y-95528114D03*
D18*
X88316656Y-98028114D03*
%TD*%
D19*
%TO.C,R21*%
X118286656Y-103063114D03*
X118286656Y-101413114D03*
%TD*%
D20*
%TO.C,C34*%
X98550000Y-58990000D03*
X100100000Y-58990000D03*
%TD*%
D21*
%TO.C,D4*%
X121950000Y-58600000D03*
X124050000Y-58600000D03*
%TD*%
D22*
%TO.C,D15*%
X99500000Y-117200000D03*
X95200000Y-117200000D03*
%TD*%
D23*
%TO.C,R3*%
X95600000Y-57675000D03*
X95600000Y-59325000D03*
%TD*%
D24*
%TO.C,R5*%
X118850000Y-66300000D03*
X120500000Y-66300000D03*
%TD*%
D25*
%TO.C,U4*%
X96389156Y-86488114D03*
X96389156Y-86988114D03*
X96389156Y-87488114D03*
X96389156Y-87988114D03*
X96389156Y-88488114D03*
X96389156Y-88988114D03*
D26*
X97076656Y-89675614D03*
X97576656Y-89675614D03*
X98076656Y-89675614D03*
X98576656Y-89675614D03*
X99076656Y-89675614D03*
X99576656Y-89675614D03*
D25*
X100264156Y-88988114D03*
X100264156Y-88488114D03*
X100264156Y-87988114D03*
X100264156Y-87488114D03*
X100264156Y-86988114D03*
X100264156Y-86488114D03*
D26*
X99576656Y-85800614D03*
X99076656Y-85800614D03*
X98576656Y-85800614D03*
X98076656Y-85800614D03*
X97576656Y-85800614D03*
X97076656Y-85800614D03*
D27*
X98326656Y-87738114D03*
%TD*%
D28*
%TO.C,H1*%
X71300000Y-126600000D03*
%TD*%
D29*
%TO.C,J8*%
X71951656Y-118148114D03*
X71951656Y-107148114D03*
D30*
X81951656Y-110148114D03*
D31*
X81951656Y-115148114D03*
%TD*%
D32*
%TO.C,D10*%
X79900000Y-78850000D03*
X79900000Y-80950000D03*
%TD*%
D33*
%TO.C,D20*%
X121166656Y-110455614D03*
X121166656Y-108880614D03*
%TD*%
D34*
%TO.C,L2*%
X137446656Y-124508114D03*
X137446656Y-119408114D03*
%TD*%
D35*
%TO.C,D7*%
X96430000Y-62300000D03*
X94330000Y-62300000D03*
%TD*%
D34*
%TO.C,L1*%
X107716656Y-110988114D03*
X107716656Y-105888114D03*
%TD*%
D36*
%TO.C,U1*%
X107276656Y-98148114D03*
X108276656Y-98148114D03*
X109276656Y-98148114D03*
X110276656Y-98148114D03*
X111276656Y-98148114D03*
X112276656Y-98148114D03*
X113276656Y-98148114D03*
X114276656Y-98148114D03*
X115276656Y-98148114D03*
X116276656Y-98148114D03*
X117276656Y-98148114D03*
X118276656Y-98148114D03*
X119276656Y-98148114D03*
X120276656Y-98148114D03*
X121276656Y-98148114D03*
X122276656Y-98148114D03*
X123276656Y-98148114D03*
X124276656Y-98148114D03*
X125276656Y-98148114D03*
X126276656Y-98148114D03*
X127276656Y-98148114D03*
X128276656Y-98148114D03*
D37*
X130276656Y-96148114D03*
X130276656Y-95148114D03*
X130276656Y-94148114D03*
X130276656Y-93148114D03*
X130276656Y-92148114D03*
X130276656Y-91148114D03*
X130276656Y-90148114D03*
X130276656Y-89148114D03*
X130276656Y-88148114D03*
X130276656Y-87148114D03*
X130276656Y-86148114D03*
X130276656Y-85148114D03*
X130276656Y-84148114D03*
X130276656Y-83148114D03*
X130276656Y-82148114D03*
X130276656Y-81148114D03*
X130276656Y-80148114D03*
X130276656Y-79148114D03*
X130276656Y-78148114D03*
X130276656Y-77148114D03*
X130276656Y-76148114D03*
X130276656Y-75148114D03*
D36*
X128276656Y-73148114D03*
X127276656Y-73148114D03*
X126276656Y-73148114D03*
X125276656Y-73148114D03*
X124276656Y-73148114D03*
X123276656Y-73148114D03*
X122276656Y-73148114D03*
X121276656Y-73148114D03*
X120276656Y-73148114D03*
X119276656Y-73148114D03*
X118276656Y-73148114D03*
X117276656Y-73148114D03*
X116276656Y-73148114D03*
X115276656Y-73148114D03*
X114276656Y-73148114D03*
X113276656Y-73148114D03*
X112276656Y-73148114D03*
X111276656Y-73148114D03*
X110276656Y-73148114D03*
X109276656Y-73148114D03*
X108276656Y-73148114D03*
X107276656Y-73148114D03*
D37*
X105276656Y-75148114D03*
X105276656Y-76148114D03*
X105276656Y-77148114D03*
X105276656Y-78148114D03*
X105276656Y-79148114D03*
X105276656Y-80148114D03*
X105276656Y-81148114D03*
X105276656Y-82148114D03*
X105276656Y-83148114D03*
X105276656Y-84148114D03*
X105276656Y-85148114D03*
X105276656Y-86148114D03*
X105276656Y-87148114D03*
X105276656Y-88148114D03*
X105276656Y-89148114D03*
X105276656Y-90148114D03*
X105276656Y-91148114D03*
X105276656Y-92148114D03*
X105276656Y-93148114D03*
X105276656Y-94148114D03*
X105276656Y-95148114D03*
X105276656Y-96148114D03*
%TD*%
D38*
%TO.C,C17*%
X146516656Y-61783114D03*
X146516656Y-63333114D03*
%TD*%
D39*
%TO.C,R25*%
X92936656Y-81608114D03*
X91286656Y-81608114D03*
%TD*%
D23*
%TO.C,R30*%
X121191656Y-105643114D03*
X121191656Y-107293114D03*
%TD*%
%TO.C,R22*%
X139754156Y-54423114D03*
X139754156Y-56073114D03*
%TD*%
D40*
%TO.C,C29*%
X144864277Y-118398114D03*
D18*
X147364277Y-118398114D03*
%TD*%
D20*
%TO.C,C6*%
X82216656Y-87718114D03*
X83766656Y-87718114D03*
%TD*%
D41*
%TO.C,J1*%
X112500000Y-56660000D03*
D18*
X110000000Y-56660000D03*
X108000000Y-56660000D03*
X105500000Y-56660000D03*
D42*
X115570000Y-53950000D03*
X102430000Y-53950000D03*
%TD*%
D43*
%TO.C,J7*%
X82746656Y-53498114D03*
X71316656Y-53498114D03*
D44*
X81471656Y-59858114D03*
D45*
X80211656Y-62398114D03*
X78931656Y-59858114D03*
X77671656Y-62398114D03*
X76391656Y-59858114D03*
X75131656Y-62398114D03*
X73851656Y-59858114D03*
X72591656Y-62398114D03*
X83656656Y-48598114D03*
X81116656Y-48598114D03*
X72946656Y-48598114D03*
X70406656Y-48598114D03*
D46*
X84776656Y-56548114D03*
X69286656Y-56548114D03*
%TD*%
D47*
%TO.C,D16*%
X105909156Y-114628114D03*
X109909156Y-114628114D03*
%TD*%
D20*
%TO.C,C33*%
X127650000Y-58800000D03*
X129200000Y-58800000D03*
%TD*%
D16*
%TO.C,C10*%
X138791656Y-74398114D03*
X137241656Y-74398114D03*
%TD*%
D48*
%TO.C,SW2*%
X100900000Y-74800000D03*
X100900000Y-70600000D03*
%TD*%
D39*
%TO.C,R8*%
X121825000Y-63200000D03*
X120175000Y-63200000D03*
%TD*%
D24*
%TO.C,R14*%
X84895000Y-77400000D03*
X86545000Y-77400000D03*
%TD*%
D49*
%TO.C,C39*%
X76800000Y-67750000D03*
X76800000Y-66200000D03*
%TD*%
D50*
%TO.C,D14*%
X81822500Y-75790000D03*
X83397500Y-75790000D03*
%TD*%
D20*
%TO.C,C19*%
X91391656Y-85128114D03*
X92941656Y-85128114D03*
%TD*%
D33*
%TO.C,FB2*%
X144896656Y-63335614D03*
X144896656Y-61760614D03*
%TD*%
D38*
%TO.C,C30*%
X123096656Y-107363114D03*
X123096656Y-108913114D03*
%TD*%
D20*
%TO.C,C35*%
X98550000Y-60500000D03*
X100100000Y-60500000D03*
%TD*%
D51*
%TO.C,C37*%
X89348008Y-60651992D03*
X88251992Y-61748008D03*
%TD*%
D52*
%TO.C,J3*%
X97261656Y-54068114D03*
X91481656Y-54068114D03*
D53*
X97571656Y-55128114D03*
X96771656Y-55128114D03*
D54*
X95621656Y-55128114D03*
X94621656Y-55128114D03*
X94121656Y-55128114D03*
X93121656Y-55128114D03*
D53*
X91971656Y-55128114D03*
X91171656Y-55128114D03*
X91171656Y-55128114D03*
X91971656Y-55128114D03*
D54*
X92621656Y-55128114D03*
X93621656Y-55128114D03*
X95121656Y-55128114D03*
X96121656Y-55128114D03*
D53*
X96771656Y-55128114D03*
X97571656Y-55128114D03*
D55*
X98691656Y-54548114D03*
D56*
X98691656Y-50378114D03*
D55*
X90051656Y-54548114D03*
D56*
X90051656Y-50378114D03*
%TD*%
D24*
%TO.C,R15*%
X84900000Y-75800000D03*
X86550000Y-75800000D03*
%TD*%
%TO.C,R19*%
X107375000Y-71200000D03*
X109025000Y-71200000D03*
%TD*%
D20*
%TO.C,C13*%
X140881656Y-74268114D03*
X142431656Y-74268114D03*
%TD*%
D39*
%TO.C,R28*%
X90736656Y-101868114D03*
X89086656Y-101868114D03*
%TD*%
D21*
%TO.C,D2*%
X106500000Y-63600000D03*
X108600000Y-63600000D03*
%TD*%
D16*
%TO.C,C24*%
X92966656Y-91848114D03*
X91416656Y-91848114D03*
%TD*%
D23*
%TO.C,R10*%
X77966656Y-83273114D03*
X77966656Y-84923114D03*
%TD*%
D16*
%TO.C,C11*%
X138781656Y-72658114D03*
X137231656Y-72658114D03*
%TD*%
D50*
%TO.C,D19*%
X134764156Y-116128114D03*
X136339156Y-116128114D03*
%TD*%
D20*
%TO.C,C4*%
X98741656Y-97073114D03*
X100291656Y-97073114D03*
%TD*%
D57*
%TO.C,J6*%
X143756656Y-49878114D03*
D58*
X145756656Y-49878114D03*
X147756656Y-49878114D03*
%TD*%
D59*
%TO.C,F1*%
X90766656Y-125008114D03*
D42*
X79516656Y-125008114D03*
X102016656Y-125008114D03*
%TD*%
D35*
%TO.C,D1*%
X111550000Y-60900000D03*
X109450000Y-60900000D03*
%TD*%
D29*
%TO.C,J10*%
X142676656Y-102098114D03*
X142676656Y-113098114D03*
D60*
X137676656Y-105098114D03*
D31*
X137676656Y-110098114D03*
%TD*%
D49*
%TO.C,C16*%
X129100000Y-66675000D03*
X129100000Y-65125000D03*
%TD*%
D20*
%TO.C,C5*%
X82191656Y-86118114D03*
X83741656Y-86118114D03*
%TD*%
%TO.C,C25*%
X95401656Y-91848114D03*
X96951656Y-91848114D03*
%TD*%
D29*
%TO.C,J9*%
X76806656Y-101958114D03*
X76806656Y-90958114D03*
D30*
X81806656Y-98958114D03*
D31*
X81806656Y-93958114D03*
%TD*%
D21*
%TO.C,D5*%
X91310000Y-59520000D03*
X93410000Y-59520000D03*
%TD*%
D20*
%TO.C,C32*%
X127650000Y-57300000D03*
X129200000Y-57300000D03*
%TD*%
D19*
%TO.C,R12*%
X86906656Y-87763114D03*
X86906656Y-86113114D03*
%TD*%
D35*
%TO.C,D9*%
X100550000Y-57300000D03*
X98450000Y-57300000D03*
%TD*%
D16*
%TO.C,C14*%
X142741656Y-58308114D03*
X141191656Y-58308114D03*
%TD*%
D39*
%TO.C,R4*%
X91951656Y-57668114D03*
X90301656Y-57668114D03*
%TD*%
D47*
%TO.C,D18*%
X135366656Y-128038114D03*
X139366656Y-128038114D03*
%TD*%
D50*
%TO.C,D17*%
X85809156Y-101898114D03*
X87384156Y-101898114D03*
%TD*%
D19*
%TO.C,R11*%
X85321656Y-87738114D03*
X85321656Y-86088114D03*
%TD*%
D39*
%TO.C,R2*%
X120125000Y-59100000D03*
X118475000Y-59100000D03*
%TD*%
D20*
%TO.C,C9*%
X81781656Y-84618114D03*
X83331656Y-84618114D03*
%TD*%
%TO.C,C8*%
X81771656Y-83108114D03*
X83321656Y-83108114D03*
%TD*%
D61*
%TO.C,SW1*%
X95476656Y-94338114D03*
X95476656Y-98538114D03*
%TD*%
D62*
%TO.C,D11*%
X79800000Y-84250000D03*
X79800000Y-82150000D03*
%TD*%
D57*
%TO.C,J5*%
X134356656Y-49978114D03*
D58*
X136356656Y-49978114D03*
X138356656Y-49978114D03*
%TD*%
D39*
%TO.C,R7*%
X123625000Y-64800000D03*
X121975000Y-64800000D03*
%TD*%
%TO.C,R23*%
X92926656Y-83168114D03*
X91276656Y-83168114D03*
%TD*%
D63*
%TO.C,U7*%
X125246656Y-111808114D03*
X127546656Y-111808114D03*
D64*
X127546656Y-105508114D03*
D63*
X129846656Y-111808114D03*
%TD*%
D65*
%TO.C,SW5*%
X141681656Y-55148114D03*
X149381656Y-55148114D03*
%TD*%
D28*
%TO.C,H2*%
X148200000Y-126600000D03*
%TD*%
D24*
%TO.C,R6*%
X118850000Y-64800000D03*
X120500000Y-64800000D03*
%TD*%
D66*
%TO.C,U2*%
X85199156Y-80618114D03*
X85199156Y-81118114D03*
X85199156Y-81618114D03*
X85199156Y-82118114D03*
X85199156Y-82618114D03*
X85199156Y-83118114D03*
D67*
X85886656Y-83805614D03*
X86386656Y-83805614D03*
X86886656Y-83805614D03*
X87386656Y-83805614D03*
X87886656Y-83805614D03*
X88386656Y-83805614D03*
D66*
X89074156Y-83118114D03*
X89074156Y-82618114D03*
X89074156Y-82118114D03*
X89074156Y-81618114D03*
X89074156Y-81118114D03*
X89074156Y-80618114D03*
D67*
X88386656Y-79930614D03*
X87886656Y-79930614D03*
X87386656Y-79930614D03*
X86886656Y-79930614D03*
X86386656Y-79930614D03*
X85886656Y-79930614D03*
D68*
X87136656Y-81868114D03*
%TD*%
D69*
%TO.C,C28*%
X111900000Y-127022380D03*
D18*
X111900000Y-124522380D03*
%TD*%
D70*
%TO.C,FB1*%
X144876656Y-58280614D03*
X144876656Y-59855614D03*
%TD*%
D50*
%TO.C,D13*%
X81817500Y-77390000D03*
X83392500Y-77390000D03*
%TD*%
D19*
%TO.C,R18*%
X116706656Y-103073114D03*
X116706656Y-101423114D03*
%TD*%
D71*
%TO.C,U5*%
X99836656Y-112110000D03*
X99836656Y-110410000D03*
X99836656Y-108710000D03*
D72*
X90686656Y-108710000D03*
D71*
X99836656Y-107010000D03*
X99836656Y-105310000D03*
%TD*%
D49*
%TO.C,C31*%
X132079156Y-109313114D03*
X132079156Y-107763114D03*
%TD*%
D40*
%TO.C,C26*%
X106394277Y-120058114D03*
D18*
X108894277Y-120058114D03*
%TD*%
D19*
%TO.C,R9*%
X77996656Y-77763114D03*
X77996656Y-76113114D03*
%TD*%
D52*
%TO.C,J2*%
X126856656Y-54348114D03*
X121076656Y-54348114D03*
D53*
X127166656Y-55408114D03*
X126366656Y-55408114D03*
D54*
X125216656Y-55408114D03*
X124216656Y-55408114D03*
X123716656Y-55408114D03*
X122716656Y-55408114D03*
D53*
X121566656Y-55408114D03*
X120766656Y-55408114D03*
X120766656Y-55408114D03*
X121566656Y-55408114D03*
D54*
X122216656Y-55408114D03*
X123216656Y-55408114D03*
X124716656Y-55408114D03*
X125716656Y-55408114D03*
D53*
X126366656Y-55408114D03*
X127166656Y-55408114D03*
D55*
X128286656Y-54828114D03*
D56*
X128286656Y-50658114D03*
D55*
X119646656Y-54828114D03*
D56*
X119646656Y-50658114D03*
%TD*%
D38*
%TO.C,C15*%
X129156656Y-62048114D03*
X129156656Y-63598114D03*
%TD*%
D49*
%TO.C,C1*%
X116900000Y-58675000D03*
X116900000Y-57125000D03*
%TD*%
D35*
%TO.C,D12*%
X78276656Y-74428114D03*
X76176656Y-74428114D03*
%TD*%
D32*
%TO.C,D8*%
X130400000Y-53850000D03*
X130400000Y-55950000D03*
%TD*%
D21*
%TO.C,D3*%
X113450000Y-62300000D03*
X115550000Y-62300000D03*
%TD*%
D16*
%TO.C,C2*%
X115375000Y-60400000D03*
X113825000Y-60400000D03*
%TD*%
D73*
%TO.C,U3*%
X131106656Y-69988114D03*
X132376656Y-69988114D03*
X133646656Y-69988114D03*
X134916656Y-69988114D03*
X136186656Y-69988114D03*
X137456656Y-69988114D03*
X138726656Y-69988114D03*
X139996656Y-69988114D03*
X141266656Y-69988114D03*
X142536656Y-69988114D03*
X142536656Y-60688114D03*
X141266656Y-60688114D03*
X139996656Y-60688114D03*
X138726656Y-60688114D03*
X137456656Y-60688114D03*
X136186656Y-60688114D03*
X134916656Y-60688114D03*
X133646656Y-60688114D03*
X132376656Y-60688114D03*
X131106656Y-60688114D03*
%TD*%
D23*
%TO.C,R1*%
X126100000Y-57900000D03*
X126100000Y-59550000D03*
%TD*%
D52*
%TO.C,J4*%
X74201656Y-78148114D03*
X74201656Y-83928114D03*
D74*
X75261656Y-77838114D03*
X75261656Y-78638114D03*
D75*
X75261656Y-79788114D03*
X75261656Y-80788114D03*
X75261656Y-81288114D03*
X75261656Y-82288114D03*
D74*
X75261656Y-83438114D03*
X75261656Y-84238114D03*
X75261656Y-84238114D03*
X75261656Y-83438114D03*
D75*
X75261656Y-82788114D03*
X75261656Y-81788114D03*
X75261656Y-80288114D03*
X75261656Y-79288114D03*
D74*
X75261656Y-78638114D03*
X75261656Y-77838114D03*
D76*
X74681656Y-76718114D03*
D77*
X70511656Y-76718114D03*
D76*
X74681656Y-85358114D03*
D77*
X70511656Y-85358114D03*
%TD*%
D28*
%TO.C,H3*%
X71276656Y-71848114D03*
%TD*%
D78*
%TO.C,SW4*%
X108786656Y-102298114D03*
X104586656Y-102298114D03*
%TD*%
D39*
%TO.C,R29*%
X139506656Y-116088114D03*
X137856656Y-116088114D03*
%TD*%
D71*
%TO.C,U6*%
X129865000Y-124755000D03*
X129865000Y-123055000D03*
X129865000Y-121355000D03*
D72*
X120715000Y-121355000D03*
D71*
X129865000Y-119655000D03*
X129865000Y-117955000D03*
%TD*%
D28*
%TO.C,H4*%
X148100000Y-71800000D03*
%TD*%
D79*
%TO.C,C36*%
X87451992Y-64848008D03*
X88548008Y-63751992D03*
%TD*%
D80*
%TO.C,Y1*%
X91066656Y-88548114D03*
X93266656Y-88548114D03*
X93266656Y-86848114D03*
X91066656Y-86848114D03*
%TD*%
D35*
%TO.C,D6*%
X126950000Y-61200000D03*
X124850000Y-61200000D03*
%TD*%
D24*
%TO.C,R16*%
X98711656Y-98718114D03*
X100361656Y-98718114D03*
%TD*%
%TO.C,R20*%
X131641656Y-57998114D03*
X133291656Y-57998114D03*
%TD*%
D29*
%TO.C,J11*%
X142706656Y-86928114D03*
X142706656Y-97928114D03*
D60*
X137706656Y-89928114D03*
D31*
X137706656Y-94928114D03*
%TD*%
D81*
%TO.C,SW3*%
X110956656Y-102278114D03*
X115156656Y-102278114D03*
%TD*%
D39*
%TO.C,R17*%
X112925000Y-71200000D03*
X111275000Y-71200000D03*
%TD*%
D20*
%TO.C,C18*%
X91391656Y-90248114D03*
X92941656Y-90248114D03*
%TD*%
%TO.C,C12*%
X140861656Y-72648114D03*
X142411656Y-72648114D03*
%TD*%
D23*
%TO.C,R13*%
X88496656Y-86113114D03*
X88496656Y-87763114D03*
%TD*%
D20*
%TO.C,C3*%
X98741656Y-95473114D03*
X100291656Y-95473114D03*
%TD*%
D16*
%TO.C,C38*%
X87375000Y-68700000D03*
X85825000Y-68700000D03*
%TD*%
D20*
%TO.C,C7*%
X98741656Y-93848114D03*
X100291656Y-93848114D03*
%TD*%
%LPD*%
M02*
